<svg xmlns="http://www.w3.org/2000/svg" style="display: none;">
    <symbol id="shopping-bag" viewBox="0 0 448 512">
        <path d="M352 160v-32C352 57.42 294.579 0 224 0 153.42 0 96 57.42 96 128v32H0v272c0 44.183 35.817 80 80 80h288c44.183 0 80-35.817 80-80V160h-96zm-192-32c0-35.29 28.71-64 64-64s64 28.71 64 64v32H160v-32zm160 120c-13.255 0-24-10.745-24-24s10.745-24 24-24 24 10.745 24 24-10.745 24-24 24zm-192 0c-13.255 0-24-10.745-24-24s10.745-24 24-24 24 10.745 24 24-10.745 24-24 24z" />
    </symbol>
    <symbol id="shield-alt" viewBox="0 0 512 512">
        <path d="M496 128c0 221.282-135.934 344.645-221.539 380.308a48 48 0 0 1-36.923 0C130.495 463.713 16 326.487 16 128a48 48 0 0 1 29.539-44.308l192-80a48 48 0 0 1 36.923 0l192 80A48 48 0 0 1 496 128zM256 446.313l.066.034c93.735-46.689 172.497-156.308 175.817-307.729L256 65.333v380.98z" />
    </symbol>
    <symbol id="search" viewBox="0 0 24 24">
        <path d="M19.707 18.293c-.39-.39-1.023-.39-1.414 0s-.39 1.023 0 1.414l3 3c.195.195.45.293.707.293s.512-.098.707-.293c.39-.39.39-1.023 0-1.414l-3-3z" />
        <path fill="currentColor" d="M10 0C4.486 0 0 4.486 0 10s4.486 10 10 10 10-4.486 10-10S15.514 0 10 0zm-.8 6.08C7.623 6.4 6.4 7.624 6.08 9.2l-.2.98-1.96-.398.2-.98C4.6 6.437 6.437 4.6 8.8 4.12l.98-.2.398 1.96-.98.2z" />
    </symbol>
    <symbol id="times" viewBox="0 0 100 100">
        <path d="M75.015 25.861a5.403 5.403 0 0 0-7.638-.001L49.878 43.354l-17.5-17.493a5.4 5.4 0 1 0-7.637 7.638L42.239 50.99 24.741 68.481a5.401 5.401 0 0 0 7.636 7.64l17.5-17.495 17.499 17.495a5.39 5.39 0 0 0 3.818 1.58 5.402 5.402 0 0 0 3.818-9.22L57.516 50.99l17.498-17.492a5.4 5.4 0 0 0 .001-7.637z" />
    </symbol>
    <symbol id="chevron-right" viewBox="0 0 320 512">
        <path d="M285.476 272.971L91.132 467.314c-9.373 9.373-24.569 9.373-33.941 0l-22.667-22.667c-9.357-9.357-9.375-24.522-.04-33.901L188.505 256 34.484 101.255c-9.335-9.379-9.317-24.544.04-33.901l22.667-22.667c9.373-9.373 24.569-9.373 33.941 0L285.475 239.03c9.373 9.372 9.373 24.568.001 33.941z" />
    </symbol>
    <symbol id="chevron-left" viewBox="0 0 320 512">
        <path d="M34.52 239.03L228.87 44.69c9.37-9.37 24.57-9.37 33.94 0l22.67 22.67c9.36 9.36 9.37 24.52.04 33.9L131.49 256l154.02 154.75c9.34 9.38 9.32 24.54-.04 33.9l-22.67 22.67c-9.37 9.37-24.57 9.37-33.94 0L34.52 272.97c-9.37-9.37-9.37-24.57 0-33.94z" />
    </symbol>
    <symbol id="lock-alt" viewBox="0 0 448 512">
        <path d="M400 224h-24v-72C376 68.2 307.8 0 224 0S72 68.2 72 152v72H48c-26.5 0-48 21.5-48 48v192c0 26.5 21.5 48 48 48h352c26.5 0 48-21.5 48-48V272c0-26.5-21.5-48-48-48zM264 392c0 22.1-17.9 40-40 40s-40-17.9-40-40v-48c0-22.1 17.9-40 40-40s40 17.9 40 40v48zm32-168H152v-72c0-39.7 32.3-72 72-72s72 32.3 72 72v72z" />
    </symbol>
    <symbol id="dots-vertical" viewBox="0 0 1008 1008">
        <g transform="matrix(1 0 0 -1 0 840)">
            <path d="M504 168c47 0 83 -38 83 -85s-36 -83 -83 -83s-83 36 -83 83s36 85 83 85zM504 420c47 0 83 -38 83 -85s-36 -83 -83 -83s-83 36 -83 83s36 85 83 85zM504 672c47 0 83 -38 83 -85s-36 -83 -83 -83s-83 36 -83 83s36 85 83 85z" />
        </g>
    </symbol>
    <symbol id="calendar-check" viewBox="0 0 448 512">
        <path d="M400 64h-48V12c0-6.627-5.373-12-12-12h-8c-6.627 0-12 5.373-12 12v52H128V12c0-6.627-5.373-12-12-12h-8c-6.627 0-12 5.373-12 12v52H48C21.49 64 0 85.49 0 112v352c0 26.51 21.49 48 48 48h352c26.51 0 48-21.49 48-48V112c0-26.51-21.49-48-48-48zM48 96h352c8.822 0 16 7.178 16 16v48H32v-48c0-8.822 7.178-16 16-16zm352 384H48c-8.822 0-16-7.178-16-16V192h384v272c0 8.822-7.178 16-16 16zm-66.467-194.937l-134.791 133.71c-4.7 4.663-12.288 4.642-16.963-.046l-67.358-67.552c-4.683-4.697-4.672-12.301.024-16.985l8.505-8.48c4.697-4.683 12.301-4.672 16.984.024l50.442 50.587 117.782-116.837c4.709-4.671 12.313-4.641 16.985.068l8.458 8.527c4.672 4.709 4.641 12.313-.068 16.984z" />
    </symbol>
    <symbol id="envelope" viewBox="0 0 512 512">
        <path d="M502.3 190.8c3.9-3.1 9.7-.2 9.7 4.7V400c0 26.5-21.5 48-48 48H48c-26.5 0-48-21.5-48-48V195.6c0-5 5.7-7.8 9.7-4.7 22.4 17.4 52.1 39.5 154.1 113.6 21.1 15.4 56.7 47.8 92.2 47.6 35.7.3 72-32.8 92.3-47.6 102-74.1 131.6-96.3 154-113.7zM256 320c23.2.4 56.6-29.2 73.4-41.4 132.7-96.3 142.8-104.7 173.4-128.7 5.8-4.5 9.2-11.5 9.2-18.9v-19c0-26.5-21.5-48-48-48H48C21.5 64 0 85.5 0 112v19c0 7.4 3.4 14.3 9.2 18.9 30.6 23.9 40.7 32.4 173.4 128.7 16.8 12.2 50.2 41.8 73.4 41.4z" />
    </symbol>
    <symbol id="check" viewBox="0 0 512 512">
        <path d="M173.898 439.404l-166.4-166.4c-9.997-9.997-9.997-26.206 0-36.204l36.203-36.204c9.997-9.998 26.207-9.998 36.204 0L192 312.69 432.095 72.596c9.997-9.997 26.207-9.997 36.204 0l36.203 36.204c9.997 9.997 9.997 26.206 0 36.204l-294.4 294.401c-9.998 9.997-26.207 9.997-36.204-.001z" />
    </symbol>
    <symbol id="thumbs-up" viewBox="0 0 512 512">
        <path d="M104 224H24c-13.255 0-24 10.745-24 24v240c0 13.255 10.745 24 24 24h80c13.255 0 24-10.745 24-24V248c0-13.255-10.745-24-24-24zM64 472c-13.255 0-24-10.745-24-24s10.745-24 24-24 24 10.745 24 24-10.745 24-24 24zM384 81.452c0 42.416-25.97 66.208-33.277 94.548h101.723c33.397 0 59.397 27.746 59.553 58.098.084 17.938-7.546 37.249-19.439 49.197l-.11.11c9.836 23.337 8.237 56.037-9.308 79.469 8.681 25.895-.069 57.704-16.382 74.757 4.298 17.598 2.244 32.575-6.148 44.632C440.202 511.587 389.616 512 346.839 512l-2.845-.001c-48.287-.017-87.806-17.598-119.56-31.725-15.957-7.099-36.821-15.887-52.651-16.178-6.54-.12-11.783-5.457-11.783-11.998v-213.77c0-3.2 1.282-6.271 3.558-8.521 39.614-39.144 56.648-80.587 89.117-113.111 14.804-14.832 20.188-37.236 25.393-58.902C282.515 39.293 291.817 0 312 0c24 0 72 8 72 81.452z" />
    </symbol>
    <symbol id="thumbs-down" viewBox="0 0 512 512">
      <path d="M0 56v240c0 13.255 10.745 24 24 24h80c13.255 0 24-10.745 24-24V56c0-13.255-10.745-24-24-24H24C10.745 32 0 42.745 0 56zm40 200c0-13.255 10.745-24 24-24s24 10.745 24 24-10.745 24-24 24-24-10.745-24-24zm272 256c-20.183 0-29.485-39.293-33.931-57.795-5.206-21.666-10.589-44.07-25.393-58.902-32.469-32.524-49.503-73.967-89.117-113.111a11.98 11.98 0 0 1-3.558-8.521V59.901c0-6.541 5.243-11.878 11.783-11.998 15.831-.29 36.694-9.079 52.651-16.178C256.189 17.598 295.709.017 343.995 0h2.844c42.777 0 93.363.413 113.774 29.737 8.392 12.057 10.446 27.034 6.148 44.632 16.312 17.053 25.063 48.863 16.382 74.757 17.544 23.432 19.143 56.132 9.308 79.469l.11.11c11.893 11.949 19.523 31.259 19.439 49.197-.156 30.352-26.157 58.098-59.553 58.098H350.723C358.03 364.34 384 388.132 384 430.548 384 504 336 512 312 512z"></path>
    </symbol>
  <symbol id="chevron-down" viewBox="0 0 448 512">
    <path d="M207.029 381.476L12.686 187.132c-9.373-9.373-9.373-24.569 0-33.941l22.667-22.667c9.357-9.357 24.522-9.375 33.901-.04L224 284.505l154.745-154.021c9.379-9.335 24.544-9.317 33.901.04l22.667 22.667c9.373 9.373 9.373 24.569 0 33.941L240.971 381.476c-9.373 9.372-24.569 9.372-33.942 0z"></path>
  </symbol>
    <symbol id="facebook-square" viewBox="0 0 448 512">
        <path d="M448 80v352c0 26.5-21.5 48-48 48h-85.3V302.8h60.6l8.7-67.6h-69.3V192c0-19.6 5.4-32.9 33.5-32.9H384V98.7c-6.2-.8-27.4-2.7-52.2-2.7-51.6 0-87 31.5-87 89.4v49.9H184v67.6h60.9V480H48c-26.5 0-48-21.5-48-48V80c0-26.5 21.5-48 48-48h352c26.5 0 48 21.5 48 48z" />
    </symbol>
  <symbol id="facebook" viewBox="0 0 320 512">
    <path d="M279.14 288l14.22-92.66h-88.91v-60.13c0-25.35 12.42-50.06 52.24-50.06h40.42V6.26S260.43 0 225.36 0c-73.22 0-121.08 44.38-121.08 124.72v70.62H22.89V288h81.39v224h100.17V288z"></path>
  </symbol>
  <symbol id="google" viewBox="0 0 488 512">
    <path d="M488 261.8C488 403.3 391.1 504 248 504 110.8 504 0 393.2 0 256S110.8 8 248 8c66.8 0 123 24.5 166.3 64.9l-67.5 64.9C258.5 52.6 94.3 116.6 94.3 256c0 86.5 69.1 156.6 153.7 156.6 98.2 0 135-70.4 140.8-106.9H248v-85.3h236.1c2.3 12.7 3.9 24.9 3.9 41.4z"></path>
  </symbol>
    <symbol id="twitter-square" viewBox="0 0 448 512">
        <path d="M400 32H48C21.5 32 0 53.5 0 80v352c0 26.5 21.5 48 48 48h352c26.5 0 48-21.5 48-48V80c0-26.5-21.5-48-48-48zm-48.9 158.8c.2 2.8.2 5.7.2 8.5 0 86.7-66 186.6-186.6 186.6-37.2 0-71.7-10.8-100.7-29.4 5.3.6 10.4.8 15.8.8 30.7 0 58.9-10.4 81.4-28-28.8-.6-53-19.5-61.3-45.5 10.1 1.5 19.2 1.5 29.6-1.2-30-6.1-52.5-32.5-52.5-64.4v-.8c8.7 4.9 18.9 7.9 29.6 8.3a65.447 65.447 0 0 1-29.2-54.6c0-12.2 3.2-23.4 8.9-33.1 32.3 39.8 80.8 65.8 135.2 68.6-9.3-44.5 24-80.6 64-80.6 18.9 0 35.9 7.9 47.9 20.7 14.8-2.8 29-8.3 41.6-15.8-4.9 15.2-15.2 28-28.8 36.1 13.2-1.4 26-5.1 37.8-10.2-8.9 13.1-20.1 24.7-32.9 34z" />
    </symbol>
    <symbol id="trash-alt" viewBox="0 0 448 512">
        <path d="M0 84V56c0-13.3 10.7-24 24-24h112l9.4-18.7c4-8.2 12.3-13.3 21.4-13.3h114.3c9.1 0 17.4 5.1 21.5 13.3L312 32h112c13.3 0 24 10.7 24 24v28c0 6.6-5.4 12-12 12H12C5.4 96 0 90.6 0 84zm416 56v324c0 26.5-21.5 48-48 48H80c-26.5 0-48-21.5-48-48V140c0-6.6 5.4-12 12-12h360c6.6 0 12 5.4 12 12zm-272 68c0-8.8-7.2-16-16-16s-16 7.2-16 16v224c0 8.8 7.2 16 16 16s16-7.2 16-16V208zm96 0c0-8.8-7.2-16-16-16s-16 7.2-16 16v224c0 8.8 7.2 16 16 16s16-7.2 16-16V208zm96 0c0-8.8-7.2-16-16-16s-16 7.2-16 16v224c0 8.8 7.2 16 16 16s16-7.2 16-16V208z" />
    </symbol>
    <symbol id="edit" viewBox="0 0 576 512">
        <path d="M402.6 83.2l90.2 90.2c3.8 3.8 3.8 10 0 13.8L274.4 405.6l-92.8 10.3c-12.4 1.4-22.9-9.1-21.5-21.5l10.3-92.8L388.8 83.2c3.8-3.8 10-3.8 13.8 0zm162-22.9l-48.8-48.8c-15.2-15.2-39.9-15.2-55.2 0l-35.4 35.4c-3.8 3.8-3.8 10 0 13.8l90.2 90.2c3.8 3.8 10 3.8 13.8 0l35.4-35.4c15.2-15.3 15.2-40 0-55.2zM384 346.2V448H64V128h229.8c3.2 0 6.2-1.3 8.5-3.5l40-40c7.6-7.6 2.2-20.5-8.5-20.5H48C21.5 64 0 85.5 0 112v352c0 26.5 21.5 48 48 48h352c26.5 0 48-21.5 48-48V306.2c0-10.7-12.9-16-20.5-8.5l-40 40c-2.2 2.3-3.5 5.3-3.5 8.5z" />
    </symbol>
    <symbol id="creditcard" viewBox="0 0 576 512">
      <path d="M528 32H48C21.5 32 0 53.5 0 80v352c0 26.5 21.5 48 48 48h480c26.5 0 48-21.5 48-48V80c0-26.5-21.5-48-48-48zM48 64h480c8.8 0 16 7.2 16 16v48H32V80c0-8.8 7.2-16 16-16zm480 384H48c-8.8 0-16-7.2-16-16V224h512v208c0 8.8-7.2 16-16 16zm-336-84v8c0 6.6-5.4 12-12 12h-72c-6.6 0-12-5.4-12-12v-8c0-6.6 5.4-12 12-12h72c6.6 0 12 5.4 12 12zm192 0v8c0 6.6-5.4 12-12 12H236c-6.6 0-12-5.4-12-12v-8c0-6.6 5.4-12 12-12h136c6.6 0 12 5.4 12 12z" />
    </symbol>
    <symbol id="world-of-warcraft" viewBox="0 0 512 512">
        <circle cx="255.7" cy="256.5" r="168" fill="#2b374c" />
        <path fill="#f4bf2a" d="M466 256.5c0-42.3-13.2-84-36.8-119.4V85.7c0-1.4-1.4-2.8-2.8-2.8H375c-71.5-49.3-165.9-49.3-237.4 0H86.3c-.7 0-1.4 0-2.1.7-.7.7-.7 1.4-.7 2.1v50.7c-50 72.2-50 167.3 0 239.5v50.7c0 1.4 1.4 2.8 2.8 2.8h51.4c72.2 49.3 166.6 48.6 238.8-.7h50.7c1.4 0 2.8-1.4 2.8-3.5v-50.7c23.5-34 36-75.6 36-118zm-392.2 0c0-100.7 81.2-181.9 181.9-181.9s181.9 81.2 181.9 181.9-81.2 181.9-181.9 181.9S73.8 357.2 73.8 256.5z" />
        <path fill="#f4bf2a" d="M134.9 157.9h68.7c-1.4 7.6-2.1 15.3-2.1 23.6 2.8 30.5 22.9 115.2 22.9 115.2L257 164.9 290.4 294s20.1-113.9 20.1-121.5c-.7-5.6-3.5-11.1-8.3-14.6h72.9c-9.7 9-16.7 20.1-20.8 33.3-6.2 25-28.5 151.3-28.5 159 .7 8.3 3.5 16 8.3 22.9h-68c1.4-6.2 2.1-12.5 2.1-18.7 0-11.8-10.4-66.6-10.4-66.6s-13.9 56.9-13.9 67.3c0 6.2 1.4 12.5 4.2 18h-68.7s13.2-9.7 13.2-18.7c-1.4-25.7-37.5-159.7-40.3-170.1-2.2-10.4-8.4-20.1-17.4-26.4z" />
    </symbol>
    <symbol id="star" viewBox="0 0 100 100">
        <path d="M50 14l11.44908 24.5059L89 41.5015 68.525 59.64272l5.57832 26.3573L50 72.70592l-24.10333 13.2941 5.57832-26.3573L11 41.5016l27.55092-2.9957z" />
    </symbol>
    <symbol id="diablo-3" viewBox="0 0 512 512">
        <path fill="#490005" d="M495.9 248.6s-55.8-11.8-79.4-52.7c0 0-11.2 19.2-22.9 20.5 0 0 3.1-22.3 17.4-32.2l-17.4-16.7h-40.3s10.5-31 24.8-33.5c0 0-24.2-11.2-40.3 2.5 0 0-52.1 7.4-8.1-33.5 0 0-63.2-24.8-73.8-52.1-10.5 27.3-73.8 52.1-73.8 52.1 44 40.9-8.1 33.5-8.1 33.5-16.1-13.6-40.3-2.5-40.3-2.5 14.3 2.5 24.8 33.5 24.8 33.5h-40.3L101 184.1c14.3 10.5 17.4 32.2 17.4 32.2-11.8-1.9-22.9-20.5-22.9-20.5-22.9 40.9-79.4 52.7-79.4 52.7s55.8 11.8 79.4 52.7c0 0 11.2-19.2 22.9-20.5 0 0-3.1 22.3-17.4 32.2l17.4 16.7h40.3s-10.5 31-24.8 33.5c0 0 24.2 11.2 40.3-2.5 0 0 52.1-7.4 8.1 33.5 0 0 63.2 24.8 73.8 52.1 10.5-27.3 73.8-52.1 73.8-52.1-44-40.9 8.1-33.5 8.1-33.5 16.1 13.6 40.3 2.5 40.3 2.5-14.3-2.5-24.8-33.5-24.8-33.5h40.3L411 313c-14.3-10.5-17.4-32.2-17.4-32.2 11.8 1.9 22.9 20.5 22.9 20.5 23-40.3 79.4-52.1 79.4-52.7z" />
        <path fill="#d80000" d="M257.2 10.5c6.2 40.9 9.9 81.2 12.4 122.1s3.1 81.2 3.1 122.1-1.2 81.2-3.1 122.1c-2.5 40.9-5.6 81.2-12.4 122.1-6.2-40.9-9.9-81.2-12.4-122.1s-3.1-81.2-3.1-122.1 1.2-81.2 3.1-122.1c3.1-40.9 6.2-81.8 12.4-122.1z" />
        <path fill="#f23f00" d="M257.2 8c6.2 41.5 9.9 82.5 12.4 124s3.1 82.5 3.1 124-1.2 82.5-3.1 124c-2.5 41.5-5.6 82.5-12.4 124-6.2-41.5-9.9-82.5-12.4-124s-3.1-82.5-3.1-124 1.2-82.5 3.1-124c3.1-41.5 6.2-82.5 12.4-124zM172.3 58.2c6.2 32.9 9.9 65.7 12.4 98 2.5 32.9 3.1 65.7 3.1 98 0 32.9-1.2 65.7-3.1 98-2.5 32.9-5.6 65.7-12.4 98-6.2-32.9-9.9-65.7-12.4-98-1.9-32.2-3.1-65.1-3.1-97.3 0-32.9 1.2-65.7 3.1-98 2.5-33.6 6.2-65.8 12.4-98.7zM337.8 58.2c6.2 32.9 9.9 65.7 12.4 98 2.5 32.9 3.1 65.7 3.1 98 0 32.9-1.2 65.7-3.1 98-2.5 32.9-5.6 65.7-12.4 98-6.2-32.9-9.9-65.7-12.4-98-2.5-32.9-3.1-65.7-3.1-98 0-32.9 1.2-65.7 3.1-98 2.5-32.9 6.2-65.1 12.4-98z" />
        <path fill="#e8dcc1" d="M398 198.3c-12.4-8.7-26-17.4-42.2-21.7 15.5 21.7 33.5 45.9 31 86.2-1.9 31-16.7 52.7-32.9 70.1-17.4 18-39.7 31.6-63.9 37.8-14.3 5-28.5 7.4-43.4 8.1-49 0-99.8-3.1-146.9 2.5-.6-4.3-1.2-8.7-2.5-13 19.2-5 45.3-11.2 47.7-33.5 1.2-12.4 1.2-154.4-1.2-164.9-3.1-14.3-31-18.6-45.9-21.7 0-5 1.2-8.1 1.2-13 32.2-4.3 64.5-4.3 99.2-6.2 89.4-3.8 166.3 14.2 199.8 69.3zM210.7 163c-4.3.6-3.1 14.9-3.1 19.2.6 36-.6 78.1-.6 114.1 0 11.2-3.1 35.3 3.7 40.9s32.9 3.7 43.4 2.5c54.6-3.7 78.7-63.9 60.1-116.6-11.8-34.1-38.4-57.7-82.5-60.8-5.5-.5-19.7.7-21 .7z" />
    </symbol>
    <symbol id="skype" viewBox="0 0 448 512">
        <path d="M424.7 299.8c2.9-14 4.7-28.9 4.7-43.8 0-113.5-91.9-205.3-205.3-205.3-14.9 0-29.7 1.7-43.8 4.7C161.3 40.7 137.7 32 112 32 50.2 32 0 82.2 0 144c0 25.7 8.7 49.3 23.3 68.2-2.9 14-4.7 28.9-4.7 43.8 0 113.5 91.9 205.3 205.3 205.3 14.9 0 29.7-1.7 43.8-4.7 19 14.6 42.6 23.3 68.2 23.3 61.8 0 112-50.2 112-112 .1-25.6-8.6-49.2-23.2-68.1zm-194.6 91.5c-65.6 0-120.5-29.2-120.5-65 0-16 9-30.6 29.5-30.6 31.2 0 34.1 44.9 88.1 44.9 25.7 0 42.3-11.4 42.3-26.3 0-18.7-16-21.6-42-28-62.5-15.4-117.8-22-117.8-87.2 0-59.2 58.6-81.1 109.1-81.1 55.1 0 110.8 21.9 110.8 55.4 0 16.9-11.4 31.8-30.3 31.8-28.3 0-29.2-33.5-75-33.5-25.7 0-42 7-42 22.5 0 19.8 20.8 21.8 69.1 33 41.4 9.3 90.7 26.8 90.7 77.6 0 59.1-57.1 86.5-112 86.5z" />
    </symbol>
    <symbol id="whatsapp" viewBox="0 0 448 512">
        <path d="M380.9 97.1C339 55.1 283.2 32 223.9 32c-122.4 0-222 99.6-222 222 0 39.1 10.2 77.3 29.6 111L0 480l117.7-30.9c32.4 17.7 68.9 27 106.1 27h.1c122.3 0 224.1-99.6 224.1-222 0-59.3-25.2-115-67.1-157zm-157 341.6c-33.2 0-65.7-8.9-94-25.7l-6.7-4-69.8 18.3L72 359.2l-4.4-7c-18.5-29.4-28.2-63.3-28.2-98.2 0-101.7 82.8-184.5 184.6-184.5 49.3 0 95.6 19.2 130.4 54.1 34.8 34.9 56.2 81.2 56.1 130.5 0 101.8-84.9 184.6-186.6 184.6zm101.2-138.2c-5.5-2.8-32.8-16.2-37.9-18-5.1-1.9-8.8-2.8-12.5 2.8-3.7 5.6-14.3 18-17.6 21.8-3.2 3.7-6.5 4.2-12 1.4-32.6-16.3-54-29.1-75.5-66-5.7-9.8 5.7-9.1 16.3-30.3 1.8-3.7.9-6.9-.5-9.7-1.4-2.8-12.5-30.1-17.1-41.2-4.5-10.8-9.1-9.3-12.5-9.5-3.2-.2-6.9-.2-10.6-.2-3.7 0-9.7 1.4-14.8 6.9-5.1 5.6-19.4 19-19.4 46.3 0 27.3 19.9 53.7 22.6 57.4 2.8 3.7 39.1 59.7 94.8 83.8 35.2 15.2 49 16.5 66.6 13.9 10.7-1.6 32.8-13.4 37.4-26.4 4.6-13 4.6-24.1 3.2-26.4-1.3-2.5-5-3.9-10.5-6.6z" />
    </symbol>
    <symbol id="discord" viewBox="0 0 48 48">
        <path d="M40 12s-4.586-3.59-10-4l-.488.977C34.406 10.176 36.652 11.89 39 14c-4.047-2.066-8.04-4-15-4-6.96 0-10.953 1.934-15 4 2.348-2.11 5.02-4.016 9.488-5.023L18 8c-5.68.535-10 4-10 4s-5.121 7.426-6 22c5.16 5.953 13 6 13 6l1.64-2.184C13.856 36.848 10.716 35.121 8 32c3.238 2.45 8.125 5 16 5s12.762-2.55 16-5c-2.715 3.121-5.855 4.848-8.64 5.816L33 40s7.84-.047 13-6c-.879-14.574-6-22-6-22zM17.5 30c-1.934 0-3.5-1.79-3.5-4s1.566-4 3.5-4 3.5 1.79 3.5 4-1.566 4-3.5 4zm13 0c-1.934 0-3.5-1.79-3.5-4s1.566-4 3.5-4 3.5 1.79 3.5 4-1.566 4-3.5 4z" />
    </symbol>
    <symbol id="mail" viewBox="0 0 512 512">
        <path d="M502.3 190.8c3.9-3.1 9.7-.2 9.7 4.7V400c0 26.5-21.5 48-48 48H48c-26.5 0-48-21.5-48-48V195.6c0-5 5.7-7.8 9.7-4.7 22.4 17.4 52.1 39.5 154.1 113.6 21.1 15.4 56.7 47.8 92.2 47.6 35.7.3 72-32.8 92.3-47.6 102-74.1 131.6-96.3 154-113.7zM256 320c23.2.4 56.6-29.2 73.4-41.4 132.7-96.3 142.8-104.7 173.4-128.7 5.8-4.5 9.2-11.5 9.2-18.9v-19c0-26.5-21.5-48-48-48H48C21.5 64 0 85.5 0 112v19c0 7.4 3.4 14.3 9.2 18.9 30.6 23.9 40.7 32.4 173.4 128.7 16.8 12.2 50.2 41.8 73.4 41.4z" />
    </symbol>
    <symbol id="clock" viewBox="0 0 16 16">
        <path d="M8 0C3.6 0 0 3.6 0 8s3.6 8 8 8 8-3.6 8-8-3.6-8-8-8zm0 14c-3.3 0-6-2.7-6-6s2.7-6 6-6 6 2.7 6 6-2.7 6-6 6z" />
        <path d="M8 3H7v6h5V8H8z" />
    </symbol>
    <symbol id="paypal" viewBox="717.8 88.6 2048.3 545.2">
        <path d="M1846 235.3c7.2.2 13 6.1 13 13.3 0 2.7-.8 5.1-2.1 7.2l-255 368.6v.1c-4 5.7-10.6 9.4-18.1 9.4H1507.1c-7.2-.2-12.9-6.1-12.9-13.3 0-2.7.8-5.1 2.1-7.2l79.7-112-84.4-247.8v.1c-.5-1.4-.7-2.9-.7-4.4 0-7.3 5.9-13.3 13.2-13.3h76.2c9.6.3 17.7 6.8 20.4 15.8l44.6 150.7 105.9-156.9v-.1c4-5.8 10.6-9.5 18.2-9.6h76.8l-.2-.6zm-512 148.2l-.1.4c.9-4.3 1.4-8.9 1.4-13.5 0-15.5-5.4-29.7-14.2-40.8-11.7-12.6-28.5-20.5-47.1-20.5-1.3 0-2.5 0-3.6.1h-.9c-42.9 0-78.4 31.6-84.5 73.3l.1-.4c-1.4 5-2.1 10.2-2.1 15.7 0 32.7 26.5 59.2 59.2 59.2 2.1 0 4.1-.1 5.9-.3h-.1 2c42.7 0 78-31.5 84.1-72.9l-.1-.3zm105.9-148.2c7.3 0 13.3 6 13.3 13.3 0 .7-.1 1.4-.2 2l-41 261.1v.1c-1.7 10.5-10.8 18.5-21.8 18.5H1321.5c-7.3 0-13.3-6-13.3-13.3 0-.7.1-1.4.2-2l3.5-20.5c-26.5 26.7-63.2 43.2-103.7 43.2h-2.2.4c-2.7.2-5.4.3-8.2.3-34.9 0-66.3-15-88.2-39l.2.3c-19.7-24.5-31.4-55.7-31.4-89.6 0-9.9 1-19.5 2.7-27.9l.1-.8c10.3-85.5 82.2-152 170.1-154 36.7 0 73.5 8 90.1 31.9l5.3 7.8 3.3-20.5v-.1c1-6.3 6.5-11.2 13.1-11.2h76.8l-.4.4zm-457.7 3.2l-.1.4c1.3-4.7 2.1-9.6 2.1-14.7 0-11.5-3.7-22.2-9.8-30.7-13.9-16.4-41.2-16.4-69.8-16.4h-11.1-.1c-6.8 0-12.5 5.2-13.2 11.9l-16.8 106.7h24.2c42.2 0 85.8 0 94.6-57.2zM963.6 89c53.2 0 93.4 14.3 116.1 41l-.2-.3c15.3 20.5 24.3 45.9 24.3 73.3 0 10.4-1.3 20.6-3.6 29.4-15.8 100.6-76.4 151.3-181.2 151.3h-50.4-.1c-11 0-20.1 8-21.8 18.6l-17.4 110v.1c-1.7 10.5-10.8 18.5-21.8 18.5h-76.3c-7.3 0-13.3-6-13.3-13.3 0-.7.1-1.4.2-2l64.5-408.4v-.1c1.7-10.5 10.8-18.5 21.8-18.5h159.4l-.2.4zm1702.5 10.9c1-6.4 6.5-11.2 13.1-11.3h73.7c7.3 0 13.3 6 13.3 13.3 0 .7-.1 1.4-.2 2l-64.5 408.4v.1c-1.7 10.5-10.8 18.5-21.8 18.5h-65.8c-7.3 0-13.3-6-13.3-13.3 0-.7.1-1.4.2-2l65.3-415.9v.2zm-196.2 284.4l-.1.4c.9-4.3 1.4-8.9 1.4-13.5 0-15.5-5.4-29.7-14.2-40.8-11.7-12.6-28.5-20.5-47.1-20.5-1.3 0-2.5 0-3.6.1h-.9c-42.9 0-78.4 31.6-84.5 73.3l.1-.4c-1.4 5-2.1 10.2-2.1 15.7 0 32.7 26.5 59.2 59.2 59.2 2.1 0 4.1-.1 5.9-.3h-.1 2c42.7 0 78-31.5 84.1-72.9l-.1-.3zm105.8-149.5c7.3 0 13.3 6 13.3 13.3 0 .7-.1 1.4-.2 2l-41 261.1v.1C2546.1 522 2537 530 2526 530H2457.3c-7.3 0-13.3-6-13.3-13.3 0-.7.1-1.4.2-2l3.5-20.5c-26.5 26.9-63.3 43.6-104.1 43.6h-1.6.4c-2.7.2-5.4.3-8.2.3-34.9 0-66.3-15-88.2-39l.2.3c-19.7-24.5-31.4-55.7-31.4-89.6 0-9.9 1-19.5 2.7-27.9l.1-.9c10.7-85.1 82.5-151.3 170.3-153.1 36.9 0 73.5 8 90.1 31.9l5.3 7.8 3.3-20.5v-.1c1-6.3 6.5-11.2 13.1-11.2h76.4l-.4-1zm-457.3 3.7l-.1.4c1.2-4.4 1.8-9 1.8-13.7 0-12-3.9-23-10.5-31.7-13.9-16.4-41.2-16.4-69.8-16.4h-11.1c-6.4.5-11.5 5.5-12.2 11.9l-16.8 106.7h24.2c42.1 0 85.7 0 94.5-57.2zM2099.8 89c53.2 0 93.4 14.3 116.1 41l-.2-.3c15.3 20.5 24.3 45.9 24.3 73.3 0 10.4-1.3 20.6-3.6 29.4-15.8 100.6-76.4 151.3-181.2 151.3h-50.4-.1c-11 0-20.1 8-21.8 18.6l-18 115.5v.1c-1.2 7.4-7.6 13-15.3 13h-81.9c-7.3 0-13.3-6-13.3-13.3 0-.7.1-1.4.2-2l64.3-407.6v-.1c1.7-10.5 10.8-18.5 21.8-18.5H2100l-.2-.4z" />
    </symbol>
    <symbol id="mastercard" viewBox="1107.8 -571 1268 983.3">
        <path d="M1542.1 347.1c22.7 3.7 36 11.3 36 31.1 0 19.9-17.4 34-47.5 34h.1-2.2c-16.1 0-31-5.1-43-13.5l10.7-17.6-.1-.1c9.3 7 20.9 11.2 33.5 11.2h2.3c15.6 0 23.8-6.8 23.8-12.7 0-5.9-5.7-9.2-18.2-10.9l-10.7-1.4c-23.1-3.3-35.8-13.7-35.8-30.7 0-20.7 16.8-33.4 43.2-33.4h-.1 2.8c14.7 0 28.4 4.1 39.7 10.9l-9.8 18.2.3.2c-9.6-5.6-20.7-9-32.7-9.2-13.1 0-20.5 5.3-20.5 12.3 0 7 7.8 9 17.6 10.2l10.6 1.4zm110.6 43.6c7.4-.3 14.2-2.6 19.9-6.1l6.6 19.5.2-.1c-8.2 5.1-17.9 8.1-28.3 8.1h-.2c-26.6 0-36-14.3-36-38.5V326h-20.5v-20.5h20.5V274h22.9v31.7h37.1v20.5h-37.1v47.1c0 10.5 3.6 17.4 14.9 17.4zm-357.2-87.6h-.1c.8-.1 1.6-.1 2.5-.1 21.4 0 38.7 17.3 38.7 38.7 0 1 0 1.9-.1 2.7v65.3h-22.1v-58c0-17.6-7.6-27.4-22.9-27.4h.1-1.5c-13.6 0-24.6 11-24.6 24.6 0 1.1.1 2.2.2 3.1v57.8h-22.9v-58c0-17.6-7.8-27.4-22.7-27.4h.1-1.3c-13.5 0-24.4 10.9-24.4 24.4 0 1.2.1 2.3.2 3.3v57.5h-22.9v-104h22.5v12.9l.1-.1c6.2-9.2 16.7-15.3 28.6-15.3h1.8-.1 1.7c13.8 0 25.9 7.3 32.8 18.5l.1-.2c7.3-11.1 19.9-18.3 34.2-18.3.6-.1 1.4-.1 2 0zm145.9 2.4h22.7v104.2h-22.7V397l-.1.1c-7.2 9.2-18.5 15.1-31.1 15.1h-1.8c-28.6-1.8-51.2-25.5-51.2-54.6s22.6-52.8 51.3-54.6h-.1 1.7c12.6 0 23.8 5.9 31.1 15.2l.2-12.7zm-29.9 86.3h.3c17.2 0 31.1-13.9 31.1-31.1 0-.8 0-1.6-.1-2.3 0-18.4-15-33.3-33.4-33.3S1376 340 1376 358.5s14.9 33.4 33.4 33.4c.7-.1 1.4-.1 2.1-.1zm743.2-73.6l.1-.1c5.4-8.9 15.1-14.8 26.3-14.8h.9c5.8 0 11.4 1.1 16.2 2.9l-7 20.5.2.1c-4.3-1.8-9-2.8-14-2.8h-.4c-14.7 0-22.1 9.6-22.1 26.8v58.8h-22.5v-104h22.3v12.6zm-409.6-15.1c27.2.5 49.2 22.7 49.2 50 0 1.6-.1 3.2-.2 4.5v8.8h-77.2v.1c1.7 14.3 13.9 25.4 28.7 25.4.9 0 1.7 0 2.5-.1 11.5-.2 22-4.2 30.3-10.9l11.1 16.8.1-.1c-11 9.2-25.1 14.7-40.5 14.7H1746.8c-29-1.3-52.1-25.3-52.1-54.6-.2-28.9 22-52.4 50.4-54.6zm26 45.5c-.3-14-11.8-25.2-25.8-25.2h-1.5c-14.2 0-25.9 11.1-26.8 25.2h54.1zm308.6-43.1h22.5v104.2h-22.5V397l-.1.1c-7.2 9.2-18.5 15.1-31.1 15.1h-1.8c-28.6-1.8-51.2-25.5-51.2-54.6s22.6-52.8 51.3-54.6h-.1 1.7c12.6 0 23.8 5.9 31.1 15.2l.2-12.7zm-30.5 86.3h.3c17.2 0 31.1-13.9 31.1-31.1 0-.8 0-1.6-.1-2.3 0-18.4-15-33.3-33.4-33.3s-33.4 14.9-33.4 33.4 14.9 33.4 33.4 33.4c.8-.1 1.5-.1 2.1-.1zm240.6-128h22.7v146h-22.7v-12.7l-.1.1c-7.2 9.2-18.5 15.1-31.1 15.1h-1.8c-28.6-1.8-51.2-25.5-51.2-54.6s22.6-52.8 51.3-54.6h-.1 1.7c12.6 0 23.8 5.9 31.1 15.2l.2-54.5zm-30.1 128h.3c17.2 0 31.1-13.9 31.1-31.1 0-.8 0-1.6-.1-2.3 0-18.4-15-33.3-33.4-33.3s-33.4 14.9-33.4 33.4 14.9 33.4 33.4 33.4c.8-.1 1.5-.1 2.1-.1zm-419.4-73.6l.1-.1c5.4-8.9 15.1-14.8 26.3-14.8h.7c5.8 0 11.4 1.1 16.2 2.9l-7 20.5.2.1c-4.3-1.8-9-2.8-14-2.8h-.4c-14.7 0-22.1 9.6-22.1 26.8v58.8h-22.5v-104h22.5v12.6zm105.9 6.2h-.1c-17.2 1.4-30.7 15.8-30.7 33.3s13.5 31.9 30.8 33.3c10.3-.1 19.7-3.6 27.2-9.4l10.9 18.2.1-.1c-9.4 7.9-21.6 12.6-34.9 12.6-.9 0-1.9 0-2.7-.1h.2c-1.2.1-2.3.1-3.5.1-30.2 0-54.7-24.5-54.7-54.7 0-30.2 24.5-54.7 54.7-54.7 1.2 0 2.3 0 3.3.1h-.1 2c13.3 0 25.4 4.7 34.8 12.5l-10.9 18.2.1.1c-7.6-5.8-17-9.4-27.3-9.5l.8.1zm-446.3-111.8h-.3c-216.4 0-391.8-175.4-391.8-391.8S1283.3-571 1499.6-571c91.9 0 176.4 31.6 242.4 84l-.8.6c66.8-52.8 151.2-84.4 242.9-84.4 216.4 0 391.8 175.4 391.8 391.8s-175.4 391.8-391.8 391.8c-91.8 0-176.2-31.5-242.1-83.8l.8-.6c-66.4 52.7-150.4 84.2-241.7 84.2h-1.2z" />
    </symbol>
    <symbol id="visa" viewBox="738.5 -551.2 2007 614.4">
        <path d="M1444.6 50.3h162.6l101.6-596.2h-162.4L1444.6 50.3zM2197.5-527l-22.1 129.2-14.5-7 2 .7c-36-15.3-75.6-23.7-117.1-23.7-2.3 0-4.5 0-6.5.1-63.5 0-93 26.4-93 51.2-.4 27.9 34.4 46.3 91.1 73.9 93.8 42.6 136.4 94.2 136.4 162-1.4 123.9-112.2 203.8-283 203.8h.2-4.7c-62.8 0-123.1-11.3-175.2-30.7l22.7-133.5 20.5 9.4-2.1-.9c44 20.8 93.2 32.4 145.1 32.4 3.5 0 7-.1 10-.1 46.7 0 97.3-17.2 97.3-58.2.4-26-21.5-45.5-84.2-73.9s-143.4-76.4-143.4-162c1-115.9 114.1-196.8 274.6-196.8h-.2 4.3c50.8 0 99.4 9 141.6 24.6l.2-.5zm416.5-13.8l131.5 595.6h-150.1s-15.6-68.8-20.5-89.3h-208.1c-6.3 15.8-34.2 89.5-34.2 89.5H2162l241.5-546.4c17-38.7 46.1-49.4 85-49.4H2614zm-200.5 384.5h136l-37.7-172.2-11.1-51.4c-8.2 22.3-21.5 56.9-21.5 56.9s-52.2 132.3-65.7 166.5v.2zM1309.3-541h172L1225.1 55h-171.8L907.8-466.4c102.4 51.6 195.6 154.8 225.3 250.1l17 81.9L1309.3-541zm-306.8-.4c35.4 1.4 63.9 12.7 73.7 50.4l56.9 274.2c-55.9-143.4-189.9-262.6-394.7-311.9l2-12.5h262.1v-.2zm-59.2 92.6l-49.2-22.7.2.1c10.5 5 18.3 14.9 20.3 26.9l28.7-4.3z" />
    </symbol>
    <symbol id="paper-plane" viewBox="0 0 512 512">
        <path d="M476 3.2L12.5 270.6c-18.1 10.4-15.8 35.6 2.2 43.2L121 358.4l287.3-253.2c5.5-4.9 13.3 2.6 8.6 8.3L176 407v80.5c0 23.6 28.5 32.9 42.5 15.8L282 426l124.6 52.2c14.2 6 30.4-2.9 33-18.2l72-432C515 7.8 493.3-6.8 476 3.2z"></path>
    </symbol>
    <symbol id="question" viewBox="0 0 384 512">
        <path d="M202.021 0C122.202 0 70.503 32.703 29.914 91.026c-7.363 10.58-5.093 25.086 5.178 32.874l43.138 32.709c10.373 7.865 25.132 6.026 33.253-4.148 25.049-31.381 43.63-49.449 82.757-49.449 30.764 0 68.816 19.799 68.816 49.631 0 22.552-18.617 34.134-48.993 51.164-35.423 19.86-82.299 44.576-82.299 106.405V320c0 13.255 10.745 24 24 24h72.471c13.255 0 24-10.745 24-24v-5.773c0-42.86 125.268-44.645 125.268-160.627C377.504 66.256 286.902 0 202.021 0zM192 373.459c-38.196 0-69.271 31.075-69.271 69.271 0 38.195 31.075 69.27 69.271 69.27s69.271-31.075 69.271-69.271-31.075-69.27-69.271-69.27z" />
    </symbol>
    <symbol id="bars" viewBox="0 0 448 512">
      <path d="M16 132h416c8.837 0 16-7.163 16-16V76c0-8.837-7.163-16-16-16H16C7.163 60 0 67.163 0 76v40c0 8.837 7.163 16 16 16zm0 160h416c8.837 0 16-7.163 16-16v-40c0-8.837-7.163-16-16-16H16c-8.837 0-16 7.163-16 16v40c0 8.837 7.163 16 16 16zm0 160h416c8.837 0 16-7.163 16-16v-40c0-8.837-7.163-16-16-16H16c-8.837 0-16 7.163-16 16v40c0 8.837 7.163 16 16 16z" />
    </symbol>
</svg>
