<svg xmlns="http://www.w3.org/2000/svg" style="display: none;">
    <symbol id="shopping-bag" viewBox="0 0 448 512">
        <path d="M352 160v-32C352 57.42 294.579 0 224 0 153.42 0 96 57.42 96 128v32H0v272c0 44.183 35.817 80 80 80h288c44.183 0 80-35.817 80-80V160h-96zm-192-32c0-35.29 28.71-64 64-64s64 28.71 64 64v32H160v-32zm160 120c-13.255 0-24-10.745-24-24s10.745-24 24-24 24 10.745 24 24-10.745 24-24 24zm-192 0c-13.255 0-24-10.745-24-24s10.745-24 24-24 24 10.745 24 24-10.745 24-24 24z" />
    </symbol>
    <symbol id="shield-alt" viewBox="0 0 512 512">
        <path d="M496 128c0 221.282-135.934 344.645-221.539 380.308a48 48 0 0 1-36.923 0C130.495 463.713 16 326.487 16 128a48 48 0 0 1 29.539-44.308l192-80a48 48 0 0 1 36.923 0l192 80A48 48 0 0 1 496 128zM256 446.313l.066.034c93.735-46.689 172.497-156.308 175.817-307.729L256 65.333v380.98z" />
    </symbol>
    <symbol id="home" viewBox="0 0 576 512">
        <path d="M488 312.7V456c0 13.3-10.7 24-24 24H348c-6.6 0-12-5.4-12-12V356c0-6.6-5.4-12-12-12h-72c-6.6 0-12 5.4-12 12v112c0 6.6-5.4 12-12 12H112c-13.3 0-24-10.7-24-24V312.7c0-3.6 1.6-7 4.4-9.3l188-154.8c4.4-3.6 10.8-3.6 15.3 0l188 154.8c2.7 2.3 4.3 5.7 4.3 9.3zm83.6-60.9L488 182.9V44.4c0-6.6-5.4-12-12-12h-56c-6.6 0-12 5.4-12 12V117l-89.5-73.7c-17.7-14.6-43.3-14.6-61 0L4.4 251.8c-5.1 4.2-5.8 11.8-1.6 16.9l25.5 31c4.2 5.1 11.8 5.8 16.9 1.6l235.2-193.7c4.4-3.6 10.8-3.6 15.3 0l235.2 193.7c5.1 4.2 12.7 3.5 16.9-1.6l25.5-31c4.2-5.2 3.4-12.7-1.7-16.9z" />
    </symbol>
    <symbol id="search" viewBox="0 0 24 24">
        <path d="M19.707 18.293c-.39-.39-1.023-.39-1.414 0s-.39 1.023 0 1.414l3 3c.195.195.45.293.707.293s.512-.098.707-.293c.39-.39.39-1.023 0-1.414l-3-3z" />
        <path fill="currentColor" d="M10 0C4.486 0 0 4.486 0 10s4.486 10 10 10 10-4.486 10-10S15.514 0 10 0zm-.8 6.08C7.623 6.4 6.4 7.624 6.08 9.2l-.2.98-1.96-.398.2-.98C4.6 6.437 6.437 4.6 8.8 4.12l.98-.2.398 1.96-.98.2z" />
    </symbol>
    <symbol id="times" viewBox="0 0 100 100">
        <path d="M75.015 25.861a5.403 5.403 0 0 0-7.638-.001L49.878 43.354l-17.5-17.493a5.4 5.4 0 1 0-7.637 7.638L42.239 50.99 24.741 68.481a5.401 5.401 0 0 0 7.636 7.64l17.5-17.495 17.499 17.495a5.39 5.39 0 0 0 3.818 1.58 5.402 5.402 0 0 0 3.818-9.22L57.516 50.99l17.498-17.492a5.4 5.4 0 0 0 .001-7.637z" />
    </symbol>
    <symbol id="key" viewBox="0 0 512 512">
        <path d="M512 176.001C512 273.203 433.202 352 336 352c-11.22 0-22.19-1.062-32.827-3.069l-24.012 27.014A23.999 23.999 0 0 1 261.223 384H224v40c0 13.255-10.745 24-24 24h-40v40c0 13.255-10.745 24-24 24H24c-13.255 0-24-10.745-24-24v-78.059c0-6.365 2.529-12.47 7.029-16.971l161.802-161.802C163.108 213.814 160 195.271 160 176 160 78.798 238.797.001 335.999 0 433.488-.001 512 78.511 512 176.001zM336 128c0 26.51 21.49 48 48 48s48-21.49 48-48-21.49-48-48-48-48 21.49-48 48z" />
    </symbol>
    <symbol id="gift" viewBox="0 0 512 512">
        <path d="M488 160h-72.044C426.024 146.62 432 129.996 432 112c0-44.112-35.888-80-80-80-49.048 0-75.315 34.969-94.543 80.224C239.098 66.478 209.724 32 160 32c-44.112 0-80 35.888-80 80 0 17.996 5.976 34.62 16.044 48H24c-13.255 0-24 10.745-24 24v112c0 13.255 10.745 24 24 24h8v112c0 26.51 21.49 48 48 48h352c26.51 0 48-21.49 48-48V320h8c13.255 0 24-10.745 24-24V184c0-13.255-10.745-24-24-24zM352 64c26.468 0 48 21.532 48 48s-21.532 48-48 48h-80c24-88 57.025-96 80-96zm-240 48c0-26.468 21.533-48 48-48 15.228 0 54.856.003 80 96h-80c-26.467 0-48-21.532-48-48zM32 288v-96h160v96H32zm48 160c-8.822 0-16-7.178-16-16V320h128v128H80zm144 0V192h64v256h-64zm224-16c0 8.822-7.178 16-16 16H320V320h128v112zm32-144H320v-96h160v96z" />
    </symbol>
    <symbol id="chevron-right" viewBox="0 0 320 512">
        <path d="M285.476 272.971L91.132 467.314c-9.373 9.373-24.569 9.373-33.941 0l-22.667-22.667c-9.357-9.357-9.375-24.522-.04-33.901L188.505 256 34.484 101.255c-9.335-9.379-9.317-24.544.04-33.901l22.667-22.667c9.373-9.373 24.569-9.373 33.941 0L285.475 239.03c9.373 9.372 9.373 24.568.001 33.941z" />
    </symbol>
    <symbol id="chevron-left" viewBox="0 0 320 512">
        <path d="M34.52 239.03L228.87 44.69c9.37-9.37 24.57-9.37 33.94 0l22.67 22.67c9.36 9.36 9.37 24.52.04 33.9L131.49 256l154.02 154.75c9.34 9.38 9.32 24.54-.04 33.9l-22.67 22.67c-9.37 9.37-24.57 9.37-33.94 0L34.52 272.97c-9.37-9.37-9.37-24.57 0-33.94z" />
    </symbol>
    <symbol id="chevron-double-right" viewBox="0 0 512 512">
        <path d="M477.5 273L283.1 467.3c-9.4 9.4-24.6 9.4-33.9 0l-22.7-22.7c-9.4-9.4-9.4-24.5 0-33.9l154-154.7-154-154.7c-9.3-9.4-9.3-24.5 0-33.9l22.7-22.7c9.4-9.4 24.6-9.4 33.9 0L477.5 239c9.3 9.4 9.3 24.6 0 34zm-192-34L91.1 44.7c-9.4-9.4-24.6-9.4-33.9 0L34.5 67.4c-9.4 9.4-9.4 24.5 0 33.9l154 154.7-154 154.7c-9.3 9.4-9.3 24.5 0 33.9l22.7 22.7c9.4 9.4 24.6 9.4 33.9 0L285.5 273c9.3-9.4 9.3-24.6 0-34z" />
    </symbol>
    <symbol id="chevron-double-left" viewBox="0 0 512 512">
        <path d="M34.5 239L228.9 44.7c9.4-9.4 24.6-9.4 33.9 0l22.7 22.7c9.4 9.4 9.4 24.5 0 33.9L131.5 256l154 154.7c9.3 9.4 9.3 24.5 0 33.9l-22.7 22.7c-9.4 9.4-24.6 9.4-33.9 0L34.5 273c-9.3-9.4-9.3-24.6 0-34zm192 34l194.3 194.3c9.4 9.4 24.6 9.4 33.9 0l22.7-22.7c9.4-9.4 9.4-24.5 0-33.9L323.5 256l154-154.7c9.3-9.4 9.3-24.5 0-33.9l-22.7-22.7c-9.4-9.4-24.6-9.4-33.9 0L226.5 239c-9.3 9.4-9.3 24.6 0 34z" />
    </symbol>
    <symbol id="address-book" viewBox="0 0 448 512">
        <path d="M436 160c6.627 0 12-5.373 12-12v-40c0-6.627-5.373-12-12-12h-20V48c0-26.51-21.49-48-48-48H80C53.49 0 32 21.49 32 48v416c0 26.51 21.49 48 48 48h288c26.51 0 48-21.49 48-48v-48h20c6.627 0 12-5.373 12-12v-40c0-6.627-5.373-12-12-12h-20v-64h20c6.627 0 12-5.373 12-12v-40c0-6.627-5.373-12-12-12h-20v-64h20zM224 96c53.019 0 96 42.981 96 96s-42.981 96-96 96-96-42.981-96-96 42.981-96 96-96zm128 304c0 26.51-21.49 48-48 48H144c-26.51 0-48-21.49-48-48v-48.711c0-20.994 13.644-39.553 33.683-45.815l22.954-7.173C173.563 312.413 198.198 320 224 320s50.437-7.587 71.363-21.699l22.954 7.173C338.356 311.736 352 330.295 352 351.289V400z" />
    </symbol>
    <symbol id="cog" viewBox="0 0 512 512">
        <path d="M444.788 291.1l42.616 24.599c4.867 2.809 7.126 8.618 5.459 13.985-11.07 35.642-29.97 67.842-54.689 94.586a12.016 12.016 0 0 1-14.832 2.254l-42.584-24.595a191.577 191.577 0 0 1-60.759 35.13v49.182a12.01 12.01 0 0 1-9.377 11.718c-34.956 7.85-72.499 8.256-109.219.007-5.49-1.233-9.403-6.096-9.403-11.723v-49.184a191.555 191.555 0 0 1-60.759-35.13l-42.584 24.595a12.016 12.016 0 0 1-14.832-2.254c-24.718-26.744-43.619-58.944-54.689-94.586-1.667-5.366.592-11.175 5.459-13.985L67.212 291.1a193.48 193.48 0 0 1 0-70.199l-42.616-24.599c-4.867-2.809-7.126-8.618-5.459-13.985 11.07-35.642 29.97-67.842 54.689-94.586a12.016 12.016 0 0 1 14.832-2.254l42.584 24.595a191.577 191.577 0 0 1 60.759-35.13V25.759a12.01 12.01 0 0 1 9.377-11.718c34.956-7.85 72.499-8.256 109.219-.007 5.49 1.233 9.403 6.096 9.403 11.723v49.184a191.555 191.555 0 0 1 60.759 35.13l42.584-24.595a12.016 12.016 0 0 1 14.832 2.254c24.718 26.744 43.619 58.944 54.689 94.586 1.667 5.366-.592 11.175-5.459 13.985L444.788 220.9a193.485 193.485 0 0 1 0 70.2zM336 256c0-44.112-35.888-80-80-80s-80 35.888-80 80 35.888 80 80 80 80-35.888 80-80z" />
    </symbol>
    <symbol id="lock-alt" viewBox="0 0 448 512">
        <path d="M400 224h-24v-72C376 68.2 307.8 0 224 0S72 68.2 72 152v72H48c-26.5 0-48 21.5-48 48v192c0 26.5 21.5 48 48 48h352c26.5 0 48-21.5 48-48V272c0-26.5-21.5-48-48-48zM264 392c0 22.1-17.9 40-40 40s-40-17.9-40-40v-48c0-22.1 17.9-40 40-40s40 17.9 40 40v48zm32-168H152v-72c0-39.7 32.3-72 72-72s72 32.3 72 72v72z" />
    </symbol>
    <symbol id="coins" viewBox="0 0 960 960">
        <path d="M557.484 762.058v100.22c31.066 6.566 66.725 10.617 105.366 10.617 128.425 0 224.394-43.592 224.394-82.473V715.44c-45.734 34.233-127.235 56.213-224.394 56.213-37.94.001-73.397-3.458-105.366-9.595zm0-140.879V721.4c31.066 6.568 66.725 10.617 105.366 10.617 128.425 0 224.394-43.558 224.394-82.509V574.6c-45.734 34.162-127.235 56.175-224.394 56.175-37.94.018-73.397-3.44-105.366-9.596zM438.496 292.898v56.875c63.102 17.674 110.908 47.984 117.84 89.778 31.298 6.715 67.369 10.799 106.517 10.799 128.424 0 224.394-43.519 224.394-82.503v-74.949c-45.734 34.25-127.235 56.228-224.394 56.228-97.125 0-178.642-21.978-224.357-56.228zm0-140.842v74.946c0 38.896 95.949 82.454 224.356 82.454 128.424 0 224.394-43.558 224.394-82.454v-74.946c-45.734 34.214-127.235 56.191-224.394 56.191-97.124.019-178.641-21.959-224.356-56.191zM297.112 367.559c-128.421 0-224.358 43.554-224.358 82.47 0 38.948 95.937 82.506 224.358 82.506 128.423 0 224.374-43.559 224.374-82.506 0-38.952-95.969-82.47-224.374-82.47zm260.372 112.797v100.255c31.066 6.567 66.725 10.583 105.366 10.583 128.425 0 224.394-43.559 224.394-82.509v-74.914c-45.734 34.2-127.235 56.141-224.394 56.141-37.94.002-73.397-3.438-105.366-9.556zM72.754 797.624v74.913c0 38.984 95.937 82.504 224.358 82.504 128.423 0 224.374-43.52 224.374-82.504v-74.913c-45.733 34.201-127.234 56.174-224.374 56.174-97.158 0-178.658-21.957-224.358-56.174zm590.099-628.992c128.424 0 224.394-43.539 224.394-82.508 0-38.914-95.971-82.471-224.394-82.471-128.407 0-224.356 43.557-224.356 82.471-.001 38.969 95.948 82.508 224.356 82.508zM72.754 656.763v74.95c0 38.949 95.937 82.507 224.358 82.507 128.423 0 224.374-43.558 224.374-82.507v-74.95c-45.733 34.232-127.234 56.213-224.374 56.213-97.158-.001-178.658-21.981-224.358-56.213zm0-140.824v74.946c0 38.879 95.937 82.437 224.358 82.437 128.423 0 224.374-43.558 224.374-82.437v-74.946c-45.733 34.196-127.234 56.213-224.374 56.213-97.158 0-178.658-22.013-224.358-56.213z" />
    </symbol>
    <symbol id="wallet" viewBox="0 0 1008 1008">
        <g transform="matrix(1 0 0 -1 0 864)">
            <path d="M732 209c21 0 39 7 54 22s22 33 22 54s-7 39 -22 54s-33 22 -54 22s-39 -7 -54 -22s-22 -33 -22 -54s7 -39 22 -54s33 -22 54 -22zM176 562h630h2c28 0 52 -10 72 -30s30 -44 30 -72v-403c0 -28 -10 -52 -30 -72s-44 -30 -72 -30h-605c-28 0 -52 10 -72 30s-30 44 -30 72 v504c0 28 10 53 30 76s43 36 70 40l506 72c18 3 35 1 50 -6s27 -18 36 -32s13 -30 13 -48v-76h-76v44l-554 -44v-25z" />
        </g>
    </symbol>
    <symbol id="dots-vertical" viewBox="0 0 1008 1008">
        <g transform="matrix(1 0 0 -1 0 840)">
            <path d="M504 168c47 0 83 -38 83 -85s-36 -83 -83 -83s-83 36 -83 83s36 85 83 85zM504 420c47 0 83 -38 83 -85s-36 -83 -83 -83s-83 36 -83 83s36 85 83 85zM504 672c47 0 83 -38 83 -85s-36 -83 -83 -83s-83 36 -83 83s36 85 83 85z" />
        </g>
    </symbol>
    <symbol id="list" viewBox="0 0 512 512">
      <path d="M80 368H16a16 16 0 0 0-16 16v64a16 16 0 0 0 16 16h64a16 16 0 0 0 16-16v-64a16 16 0 0 0-16-16zm0-320H16A16 16 0 0 0 0 64v64a16 16 0 0 0 16 16h64a16 16 0 0 0 16-16V64a16 16 0 0 0-16-16zm0 160H16a16 16 0 0 0-16 16v64a16 16 0 0 0 16 16h64a16 16 0 0 0 16-16v-64a16 16 0 0 0-16-16zm416 176H176a16 16 0 0 0-16 16v32a16 16 0 0 0 16 16h320a16 16 0 0 0 16-16v-32a16 16 0 0 0-16-16zm0-320H176a16 16 0 0 0-16 16v32a16 16 0 0 0 16 16h320a16 16 0 0 0 16-16V80a16 16 0 0 0-16-16zm0 160H176a16 16 0 0 0-16 16v32a16 16 0 0 0 16 16h320a16 16 0 0 0 16-16v-32a16 16 0 0 0-16-16z"></path>
    </symbol>
    <symbol id="grid" viewBox="0 0 512 512">
      <path d="M149.333 56v80c0 13.255-10.745 24-24 24H24c-13.255 0-24-10.745-24-24V56c0-13.255 10.745-24 24-24h101.333c13.255 0 24 10.745 24 24zm181.334 240v-80c0-13.255-10.745-24-24-24H205.333c-13.255 0-24 10.745-24 24v80c0 13.255 10.745 24 24 24h101.333c13.256 0 24.001-10.745 24.001-24zm32-240v80c0 13.255 10.745 24 24 24H488c13.255 0 24-10.745 24-24V56c0-13.255-10.745-24-24-24H386.667c-13.255 0-24 10.745-24 24zm-32 80V56c0-13.255-10.745-24-24-24H205.333c-13.255 0-24 10.745-24 24v80c0 13.255 10.745 24 24 24h101.333c13.256 0 24.001-10.745 24.001-24zm-205.334 56H24c-13.255 0-24 10.745-24 24v80c0 13.255 10.745 24 24 24h101.333c13.255 0 24-10.745 24-24v-80c0-13.255-10.745-24-24-24zM0 376v80c0 13.255 10.745 24 24 24h101.333c13.255 0 24-10.745 24-24v-80c0-13.255-10.745-24-24-24H24c-13.255 0-24 10.745-24 24zm386.667-56H488c13.255 0 24-10.745 24-24v-80c0-13.255-10.745-24-24-24H386.667c-13.255 0-24 10.745-24 24v80c0 13.255 10.745 24 24 24zm0 160H488c13.255 0 24-10.745 24-24v-80c0-13.255-10.745-24-24-24H386.667c-13.255 0-24 10.745-24 24v80c0 13.255 10.745 24 24 24zM181.333 376v80c0 13.255 10.745 24 24 24h101.333c13.255 0 24-10.745 24-24v-80c0-13.255-10.745-24-24-24H205.333c-13.255 0-24 10.745-24 24z"></path>
    </symbol>
    <symbol id="sort" viewBox="0 0 320 512">
        <path d="M41 288h238c21.4 0 32.1 25.9 17 41L177 448c-9.4 9.4-24.6 9.4-33.9 0L24 329c-15.1-15.1-4.4-41 17-41zm255-105L177 64c-9.4-9.4-24.6-9.4-33.9 0L24 183c-15.1 15.1-4.4 41 17 41h238c21.4 0 32.1-25.9 17-41z" />
    </symbol>
    <symbol id="life-ring" viewBox="0 0 512 512">
        <path d="M256 8C119.033 8 8 119.033 8 256s111.033 248 248 248 248-111.033 248-248S392.967 8 256 8zm168.766 113.176l-62.885 62.885a128.711 128.711 0 0 0-33.941-33.941l62.885-62.885a217.323 217.323 0 0 1 33.941 33.941zM256 352c-52.935 0-96-43.065-96-96s43.065-96 96-96 96 43.065 96 96-43.065 96-96 96zM363.952 68.853l-66.14 66.14c-26.99-9.325-56.618-9.33-83.624 0l-66.139-66.14c66.716-38.524 149.23-38.499 215.903 0zM121.176 87.234l62.885 62.885a128.711 128.711 0 0 0-33.941 33.941l-62.885-62.885a217.323 217.323 0 0 1 33.941-33.941zm-52.323 60.814l66.139 66.14c-9.325 26.99-9.33 56.618 0 83.624l-66.139 66.14c-38.523-66.715-38.5-149.229 0-215.904zm18.381 242.776l62.885-62.885a128.711 128.711 0 0 0 33.941 33.941l-62.885 62.885a217.366 217.366 0 0 1-33.941-33.941zm60.814 52.323l66.139-66.14c26.99 9.325 56.618 9.33 83.624 0l66.14 66.14c-66.716 38.524-149.23 38.499-215.903 0zm242.776-18.381l-62.885-62.885a128.711 128.711 0 0 0 33.941-33.941l62.885 62.885a217.323 217.323 0 0 1-33.941 33.941zm52.323-60.814l-66.14-66.14c9.325-26.99 9.33-56.618 0-83.624l66.14-66.14c38.523 66.715 38.5 149.229 0 215.904z" />
    </symbol>
    <symbol id="calendar-check" viewBox="0 0 448 512">
        <path d="M400 64h-48V12c0-6.627-5.373-12-12-12h-8c-6.627 0-12 5.373-12 12v52H128V12c0-6.627-5.373-12-12-12h-8c-6.627 0-12 5.373-12 12v52H48C21.49 64 0 85.49 0 112v352c0 26.51 21.49 48 48 48h352c26.51 0 48-21.49 48-48V112c0-26.51-21.49-48-48-48zM48 96h352c8.822 0 16 7.178 16 16v48H32v-48c0-8.822 7.178-16 16-16zm352 384H48c-8.822 0-16-7.178-16-16V192h384v272c0 8.822-7.178 16-16 16zm-66.467-194.937l-134.791 133.71c-4.7 4.663-12.288 4.642-16.963-.046l-67.358-67.552c-4.683-4.697-4.672-12.301.024-16.985l8.505-8.48c4.697-4.683 12.301-4.672 16.984.024l50.442 50.587 117.782-116.837c4.709-4.671 12.313-4.641 16.985.068l8.458 8.527c4.672 4.709 4.641 12.313-.068 16.984z" />
    </symbol>
    <symbol id="users" viewBox="0 0 640 512">
        <path d="M573.127 249.095C584.979 233.127 592 213.369 592 192c0-52.935-43.065-96-96-96-26.331 0-50.217 10.658-67.578 27.885a128.993 128.993 0 0 0-17.913-22.394C386.334 77.314 354.19 64 320 64s-66.334 13.314-90.51 37.49a129.115 129.115 0 0 0-17.913 22.394C194.217 106.658 170.331 96 144 96c-52.935 0-96 43.065-96 96 0 21.369 7.021 41.127 18.873 57.095C28.987 255.378 0 288.36 0 328v44c0 24.262 19.738 44 44 44h117.677c5.238 18.445 22.222 32 42.323 32h232c20.102 0 37.085-13.555 42.323-32H596c24.262 0 44-19.738 44-44v-44c0-39.64-28.986-72.622-66.873-78.905zM496 128c35.346 0 64 28.654 64 64s-28.654 64-64 64c-22.083 0-41.554-11.185-53.057-28.199C446.27 216.314 448 204.291 448 192s-1.73-24.314-5.057-35.801C454.446 139.185 473.917 128 496 128zM320 96c53.02 0 96 42.981 96 96s-42.98 96-96 96-96-42.981-96-96 42.98-96 96-96zm-176 32c22.083 0 41.554 11.185 53.057 28.199C193.73 167.686 192 179.709 192 192s1.73 24.314 5.057 35.801C185.554 244.815 166.083 256 144 256c-35.346 0-64-28.654-64-64s28.654-64 64-64zm16 224v32H44c-6.627 0-12-5.373-12-12v-44c0-26.51 21.49-48 48-48h25.655c24.374 10.662 52.272 10.681 76.689 0h22.81C178.452 292.976 160 320.372 160 352zm288 52c0 6.627-5.373 12-12 12H204c-6.627 0-12-5.373-12-12v-52c0-26.51 21.49-48 48-48h17.929c37.818 21.031 85.208 21.651 124.142 0H400c26.51 0 48 21.49 48 48v52zm160-32c0 6.627-5.373 12-12 12H480v-32c0-31.628-18.452-59.024-45.154-72h22.81c24.374 10.662 52.272 10.681 76.689 0H560c26.51 0 48 21.49 48 48v44z" />
    </symbol>
    <symbol id="envelope" viewBox="0 0 512 512">
        <path d="M502.3 190.8c3.9-3.1 9.7-.2 9.7 4.7V400c0 26.5-21.5 48-48 48H48c-26.5 0-48-21.5-48-48V195.6c0-5 5.7-7.8 9.7-4.7 22.4 17.4 52.1 39.5 154.1 113.6 21.1 15.4 56.7 47.8 92.2 47.6 35.7.3 72-32.8 92.3-47.6 102-74.1 131.6-96.3 154-113.7zM256 320c23.2.4 56.6-29.2 73.4-41.4 132.7-96.3 142.8-104.7 173.4-128.7 5.8-4.5 9.2-11.5 9.2-18.9v-19c0-26.5-21.5-48-48-48H48C21.5 64 0 85.5 0 112v19c0 7.4 3.4 14.3 9.2 18.9 30.6 23.9 40.7 32.4 173.4 128.7 16.8 12.2 50.2 41.8 73.4 41.4z" />
    </symbol>
    <symbol id="check" viewBox="0 0 512 512">
        <path d="M173.898 439.404l-166.4-166.4c-9.997-9.997-9.997-26.206 0-36.204l36.203-36.204c9.997-9.998 26.207-9.998 36.204 0L192 312.69 432.095 72.596c9.997-9.997 26.207-9.997 36.204 0l36.203 36.204c9.997 9.997 9.997 26.206 0 36.204l-294.4 294.401c-9.998 9.997-26.207 9.997-36.204-.001z" />
    </symbol>
    <symbol id="thumbs-up" viewBox="0 0 512 512">
        <path d="M104 224H24c-13.255 0-24 10.745-24 24v240c0 13.255 10.745 24 24 24h80c13.255 0 24-10.745 24-24V248c0-13.255-10.745-24-24-24zM64 472c-13.255 0-24-10.745-24-24s10.745-24 24-24 24 10.745 24 24-10.745 24-24 24zM384 81.452c0 42.416-25.97 66.208-33.277 94.548h101.723c33.397 0 59.397 27.746 59.553 58.098.084 17.938-7.546 37.249-19.439 49.197l-.11.11c9.836 23.337 8.237 56.037-9.308 79.469 8.681 25.895-.069 57.704-16.382 74.757 4.298 17.598 2.244 32.575-6.148 44.632C440.202 511.587 389.616 512 346.839 512l-2.845-.001c-48.287-.017-87.806-17.598-119.56-31.725-15.957-7.099-36.821-15.887-52.651-16.178-6.54-.12-11.783-5.457-11.783-11.998v-213.77c0-3.2 1.282-6.271 3.558-8.521 39.614-39.144 56.648-80.587 89.117-113.111 14.804-14.832 20.188-37.236 25.393-58.902C282.515 39.293 291.817 0 312 0c24 0 72 8 72 81.452z" />
    </symbol>
    <symbol id="thumbs-down" viewBox="0 0 512 512">
      <path d="M0 56v240c0 13.255 10.745 24 24 24h80c13.255 0 24-10.745 24-24V56c0-13.255-10.745-24-24-24H24C10.745 32 0 42.745 0 56zm40 200c0-13.255 10.745-24 24-24s24 10.745 24 24-10.745 24-24 24-24-10.745-24-24zm272 256c-20.183 0-29.485-39.293-33.931-57.795-5.206-21.666-10.589-44.07-25.393-58.902-32.469-32.524-49.503-73.967-89.117-113.111a11.98 11.98 0 0 1-3.558-8.521V59.901c0-6.541 5.243-11.878 11.783-11.998 15.831-.29 36.694-9.079 52.651-16.178C256.189 17.598 295.709.017 343.995 0h2.844c42.777 0 93.363.413 113.774 29.737 8.392 12.057 10.446 27.034 6.148 44.632 16.312 17.053 25.063 48.863 16.382 74.757 17.544 23.432 19.143 56.132 9.308 79.469l.11.11c11.893 11.949 19.523 31.259 19.439 49.197-.156 30.352-26.157 58.098-59.553 58.098H350.723C358.03 364.34 384 388.132 384 430.548 384 504 336 512 312 512z"></path>
    </symbol>
  <symbol id="chevron-down" viewBox="0 0 448 512">
    <path d="M207.029 381.476L12.686 187.132c-9.373-9.373-9.373-24.569 0-33.941l22.667-22.667c9.357-9.357 24.522-9.375 33.901-.04L224 284.505l154.745-154.021c9.379-9.335 24.544-9.317 33.901.04l22.667 22.667c9.373 9.373 9.373 24.569 0 33.941L240.971 381.476c-9.373 9.372-24.569 9.372-33.942 0z"></path>
  </symbol>
    <symbol id="facebook-square" viewBox="0 0 448 512">
        <path d="M448 80v352c0 26.5-21.5 48-48 48h-85.3V302.8h60.6l8.7-67.6h-69.3V192c0-19.6 5.4-32.9 33.5-32.9H384V98.7c-6.2-.8-27.4-2.7-52.2-2.7-51.6 0-87 31.5-87 89.4v49.9H184v67.6h60.9V480H48c-26.5 0-48-21.5-48-48V80c0-26.5 21.5-48 48-48h352c26.5 0 48 21.5 48 48z" />
    </symbol>
  <symbol id="facebook" viewBox="0 0 320 512">
    <path d="M279.14 288l14.22-92.66h-88.91v-60.13c0-25.35 12.42-50.06 52.24-50.06h40.42V6.26S260.43 0 225.36 0c-73.22 0-121.08 44.38-121.08 124.72v70.62H22.89V288h81.39v224h100.17V288z"></path>
  </symbol>
  <symbol id="google" viewBox="0 0 488 512">
    <path d="M488 261.8C488 403.3 391.1 504 248 504 110.8 504 0 393.2 0 256S110.8 8 248 8c66.8 0 123 24.5 166.3 64.9l-67.5 64.9C258.5 52.6 94.3 116.6 94.3 256c0 86.5 69.1 156.6 153.7 156.6 98.2 0 135-70.4 140.8-106.9H248v-85.3h236.1c2.3 12.7 3.9 24.9 3.9 41.4z"></path>
  </symbol>
    <symbol id="twitter-square" viewBox="0 0 448 512">
        <path d="M400 32H48C21.5 32 0 53.5 0 80v352c0 26.5 21.5 48 48 48h352c26.5 0 48-21.5 48-48V80c0-26.5-21.5-48-48-48zm-48.9 158.8c.2 2.8.2 5.7.2 8.5 0 86.7-66 186.6-186.6 186.6-37.2 0-71.7-10.8-100.7-29.4 5.3.6 10.4.8 15.8.8 30.7 0 58.9-10.4 81.4-28-28.8-.6-53-19.5-61.3-45.5 10.1 1.5 19.2 1.5 29.6-1.2-30-6.1-52.5-32.5-52.5-64.4v-.8c8.7 4.9 18.9 7.9 29.6 8.3a65.447 65.447 0 0 1-29.2-54.6c0-12.2 3.2-23.4 8.9-33.1 32.3 39.8 80.8 65.8 135.2 68.6-9.3-44.5 24-80.6 64-80.6 18.9 0 35.9 7.9 47.9 20.7 14.8-2.8 29-8.3 41.6-15.8-4.9 15.2-15.2 28-28.8 36.1 13.2-1.4 26-5.1 37.8-10.2-8.9 13.1-20.1 24.7-32.9 34z" />
    </symbol>
    <symbol id="user" viewBox="0 0 448 512">
        <path d="M224 256c70.7 0 128-57.3 128-128S294.7 0 224 0 96 57.3 96 128s57.3 128 128 128zm89.6 32h-16.7c-22.2 10.2-46.9 16-72.9 16s-50.6-5.8-72.9-16h-16.7C60.2 288 0 348.2 0 422.4V464c0 26.5 21.5 48 48 48h352c26.5 0 48-21.5 48-48v-41.6c0-74.2-60.2-134.4-134.4-134.4z" />
    </symbol>
    <symbol id="info-square" viewBox="0 0 448 512">
        <path d="M400 32H48C21.49 32 0 53.49 0 80v352c0 26.51 21.49 48 48 48h352c26.51 0 48-21.49 48-48V80c0-26.51-21.49-48-48-48zm-176 86c23.196 0 42 18.804 42 42s-18.804 42-42 42-42-18.804-42-42 18.804-42 42-42zm56 254c0 6.627-5.373 12-12 12h-88c-6.627 0-12-5.373-12-12v-24c0-6.627 5.373-12 12-12h12v-64h-12c-6.627 0-12-5.373-12-12v-24c0-6.627 5.373-12 12-12h64c6.627 0 12 5.373 12 12v100h12c6.627 0 12 5.373 12 12v24z" />
    </symbol>
    <symbol id="external-link" viewBox="0 0 576 512">
        <path d="M576 14.4l-.174 163.2c0 7.953-6.447 14.4-14.4 14.4H528.12c-8.067 0-14.56-6.626-14.397-14.691l2.717-73.627-2.062-2.062-278.863 278.865c-4.686 4.686-12.284 4.686-16.971 0l-23.029-23.029c-4.686-4.686-4.686-12.284 0-16.971L474.379 61.621l-2.062-2.062-73.626 2.717C390.626 62.44 384 55.946 384 47.879V14.574c0-7.953 6.447-14.4 14.4-14.4L561.6 0c7.953 0 14.4 6.447 14.4 14.4zM427.515 233.74l-24 24a12.002 12.002 0 0 0-3.515 8.485V458a6 6 0 0 1-6 6H54a6 6 0 0 1-6-6V118a6 6 0 0 1 6-6h301.976c10.691 0 16.045-12.926 8.485-20.485l-24-24A12.002 12.002 0 0 0 331.976 64H48C21.49 64 0 85.49 0 112v352c0 26.51 21.49 48 48 48h352c26.51 0 48-21.49 48-48V242.225c0-10.691-12.926-16.045-20.485-8.485z" />
    </symbol>
    <symbol id="exclamation-triangle" viewBox="0 0 576 512">
        <path d="M569.517 440.013C587.975 472.007 564.806 512 527.94 512H48.054c-36.937 0-59.999-40.055-41.577-71.987L246.423 23.985c18.467-32.009 64.72-31.951 83.154 0l239.94 416.028zM288 354c-25.405 0-46 20.595-46 46s20.595 46 46 46 46-20.595 46-46-20.595-46-46-46zm-43.673-165.346l7.418 136c.347 6.364 5.609 11.346 11.982 11.346h48.546c6.373 0 11.635-4.982 11.982-11.346l7.418-136c.375-6.874-5.098-12.654-11.982-12.654h-63.383c-6.884 0-12.356 5.78-11.981 12.654z" />
    </symbol>
    <symbol id="trash-alt" viewBox="0 0 448 512">
        <path d="M0 84V56c0-13.3 10.7-24 24-24h112l9.4-18.7c4-8.2 12.3-13.3 21.4-13.3h114.3c9.1 0 17.4 5.1 21.5 13.3L312 32h112c13.3 0 24 10.7 24 24v28c0 6.6-5.4 12-12 12H12C5.4 96 0 90.6 0 84zm416 56v324c0 26.5-21.5 48-48 48H80c-26.5 0-48-21.5-48-48V140c0-6.6 5.4-12 12-12h360c6.6 0 12 5.4 12 12zm-272 68c0-8.8-7.2-16-16-16s-16 7.2-16 16v224c0 8.8 7.2 16 16 16s16-7.2 16-16V208zm96 0c0-8.8-7.2-16-16-16s-16 7.2-16 16v224c0 8.8 7.2 16 16 16s16-7.2 16-16V208zm96 0c0-8.8-7.2-16-16-16s-16 7.2-16 16v224c0 8.8 7.2 16 16 16s16-7.2 16-16V208z" />
    </symbol>
    <symbol id="deactivate" viewBox="0 0 512 512">
        <path d="M400 54.1c63 45 104 118.6 104 201.9 0 136.8-110.8 247.7-247.5 248C120 504.3 8.2 393 8 256.4 7.9 173.1 48.9 99.3 111.8 54.2c11.7-8.3 28-4.8 35 7.7L162.6 90c5.9 10.5 3.1 23.8-6.6 31-41.5 30.8-68 79.6-68 134.9-.1 92.3 74.5 168.1 168 168.1 91.6 0 168.6-74.2 168-169.1-.3-51.8-24.7-101.8-68.1-134-9.7-7.2-12.4-20.5-6.5-30.9l15.8-28.1c7-12.4 23.2-16.1 34.8-7.8zM296 264V24c0-13.3-10.7-24-24-24h-32c-13.3 0-24 10.7-24 24v240c0 13.3 10.7 24 24 24h32c13.3 0 24-10.7 24-24z" />
    </symbol>
    <symbol id="edit" viewBox="0 0 576 512">
        <path d="M402.6 83.2l90.2 90.2c3.8 3.8 3.8 10 0 13.8L274.4 405.6l-92.8 10.3c-12.4 1.4-22.9-9.1-21.5-21.5l10.3-92.8L388.8 83.2c3.8-3.8 10-3.8 13.8 0zm162-22.9l-48.8-48.8c-15.2-15.2-39.9-15.2-55.2 0l-35.4 35.4c-3.8 3.8-3.8 10 0 13.8l90.2 90.2c3.8 3.8 10 3.8 13.8 0l35.4-35.4c15.2-15.3 15.2-40 0-55.2zM384 346.2V448H64V128h229.8c3.2 0 6.2-1.3 8.5-3.5l40-40c7.6-7.6 2.2-20.5-8.5-20.5H48C21.5 64 0 85.5 0 112v352c0 26.5 21.5 48 48 48h352c26.5 0 48-21.5 48-48V306.2c0-10.7-12.9-16-20.5-8.5l-40 40c-2.2 2.3-3.5 5.3-3.5 8.5z" />
    </symbol>
    <symbol id="ban" viewBox="0 0 512 512">
        <path d="M256 8C119.034 8 8 119.033 8 256s111.034 248 248 248 248-111.034 248-248S392.967 8 256 8zm130.108 117.892c65.448 65.448 70 165.481 20.677 235.637L150.47 105.216c70.204-49.356 170.226-44.735 235.638 20.676zM125.892 386.108c-65.448-65.448-70-165.481-20.677-235.637L361.53 406.784c-70.203 49.356-170.226 44.736-235.638-20.676z" />
    </symbol>
    <symbol id="credit-card" viewBox="0 0 576 512">
        <path d="M528 32H48C21.5 32 0 53.5 0 80v352c0 26.5 21.5 48 48 48h480c26.5 0 48-21.5 48-48V80c0-26.5-21.5-48-48-48zM48 64h480c8.8 0 16 7.2 16 16v48H32V80c0-8.8 7.2-16 16-16zm480 384H48c-8.8 0-16-7.2-16-16V224h512v208c0 8.8-7.2 16-16 16zm-336-84v8c0 6.6-5.4 12-12 12h-72c-6.6 0-12-5.4-12-12v-8c0-6.6 5.4-12 12-12h72c6.6 0 12 5.4 12 12zm192 0v8c0 6.6-5.4 12-12 12H236c-6.6 0-12-5.4-12-12v-8c0-6.6 5.4-12 12-12h136c6.6 0 12 5.4 12 12z" />
    </symbol>
    <symbol id="StripeDirectPayment" viewBox="0 0 576 512">
      <path d="M528 32H48C21.5 32 0 53.5 0 80v352c0 26.5 21.5 48 48 48h480c26.5 0 48-21.5 48-48V80c0-26.5-21.5-48-48-48zM48 64h480c8.8 0 16 7.2 16 16v48H32V80c0-8.8 7.2-16 16-16zm480 384H48c-8.8 0-16-7.2-16-16V224h512v208c0 8.8-7.2 16-16 16zm-336-84v8c0 6.6-5.4 12-12 12h-72c-6.6 0-12-5.4-12-12v-8c0-6.6 5.4-12 12-12h72c6.6 0 12 5.4 12 12zm192 0v8c0 6.6-5.4 12-12 12H236c-6.6 0-12-5.4-12-12v-8c0-6.6 5.4-12 12-12h136c6.6 0 12 5.4 12 12z" />
    </symbol> 
    <symbol id="shield" viewBox="0 0 512 512">
          <path d="M237.5 508.3c11.8 4.9 25.1 4.9 36.9 0C360.1 472.6 496 349.3 496 128c0-19.4-11.7-36.9-29.5-44.3l-192-80a48.15 48.15 0 0 0-36.9 0l-192 80C27.7 91.1 16 108.6 16 128c0 198.5 114.5 335.7 221.5 380.3zM256 48l192 80c0 173.8-98.4 297-192 336-97.5-40.6-192-166.7-192-336l192-80z" />
    </symbol>
    <symbol id="lock" viewBox="0 0 448 512">
        <path d="M400 224h-24v-72C376 68.2 307.8 0 224 0S72 68.2 72 152v72H48c-26.5 0-48 21.5-48 48v192c0 26.5 21.5 48 48 48h352c26.5 0 48-21.5 48-48V272c0-26.5-21.5-48-48-48zm-104 0H152v-72c0-39.7 32.3-72 72-72s72 32.3 72 72v72z" />
    </symbol>
    <symbol id="raids" viewBox="0 0 65 65">
        <path d="M63.51 2.825c0-.009.002-.017 0-.026-.004-.033-.016-.063-.021-.096-.012-.059-.021-.117-.038-.174-.013-.037-.028-.071-.043-.107a1.454 1.454 0 0 0-.075-.166 1.022 1.022 0 0 0-.053-.081 1.316 1.316 0 0 0-.116-.164l-.047-.049a1.503 1.503 0 0 0-.164-.155 1.754 1.754 0 0 0-.045-.032 1.507 1.507 0 0 0-.193-.124c-.022-.012-.047-.021-.069-.031a1.463 1.463 0 0 0-.189-.076c-.042-.013-.086-.02-.129-.029-.045-.005-.085-.019-.128-.025h-.031c-.048-.005-.097-.003-.146-.003-.053 0-.104-.002-.154.003h-.028L48.376 3.118c-.126.015-.244.05-.356.094-.022.008-.04.018-.061.027-.165.072-.313.17-.439.292-.008.007-.018.009-.023.016L16.001 35.04l-3.23-3.23a1.5 1.5 0 1 0-2.121 2.122l6.486 6.485-8.31 8.31-1.381-1.381a1.5 1.5 0 0 0-2.121 0L1.919 50.75a1.5 1.5 0 0 0 0 2.121l10.21 10.21c.293.293.677.438 1.061.438.384 0 .768-.146 1.061-.438l3.404-3.403a1.5 1.5 0 0 0 0-2.121l-1.381-1.382 8.311-8.312 6.486 6.486a1.5 1.5 0 1 0 2.123-2.121l-3.232-3.23 31.494-31.494c.04-.04.055-.091.089-.134.076-.094.147-.188.199-.3.036-.079.055-.16.077-.244.019-.069.055-.129.063-.203L63.51 3.16c.002-.009 0-.018.002-.026.004-.051.002-.102.002-.154s.002-.104-.004-.155z" />
    </symbol>
    <symbol id="security" viewBox="-255 347 100 100">
        <path d="M-160.4 409.7V364c0-3.5-2.8-6.3-6.3-6.3h-74.6c-3.5 0-6.3 2.8-6.3 6.3v56.2c.1 3 2.6 5.4 5.6 5.4h28.3c-.1 1.3-.8 7-9.3 8h.3c-1.3 0-2.4 1.1-2.4 2.4 0 1.3 1.1 2.4 2.4 2.4h37.3c1.3 0 2.4-1.1 2.4-2.4 0-1.3-1.1-2.4-2.4-2.4h.4c-8.5-1.1-9.2-6.8-9.3-8h28.3c3 0 5.5-2.4 5.6-5.4v-10.5zm-43.7 12.6c-1.7 0-3.1-1.4-3.1-3.1 0-1.7 1.4-3.1 3.1-3.1s3.1 1.4 3.1 3.1-1.4 3.1-3.1 3.1zm38.4-11.5c0 .6-.5 1.1-1.1 1.1h-74.6c-.6 0-1.1-.5-1.1-1.1V364c0-.6.5-1.1 1.1-1.1h74.6c.6 0 1.1.5 1.1 1.1v46.8z" />
        <path fill="#a7ffa5" d="M-191.9 386.2c-.4-1.3-1.1-1.8-2.4-1.8h-.6v-1.7c0-1.5.1-3 0-4.5-.3-4-3.4-7.5-7.3-8.4-.5-.1-1.1-.2-1.6-.3h-1.2c-.3 0-.6.1-.8.1-4.6.7-8.1 4.7-8.1 9.4v5.4h-.6c-1.4 0-2 .5-2.4 1.8v16.6c.1.1.1.3.2.4.3.7.8 1.1 1.4 1.3.1 0 .2.1.3.1h21.7c.2-.1.3-.1.5-.2.6-.3 1.1-.8 1.3-1.4 0-.1.1-.2.1-.2-.4-5.4-.4-11-.5-16.6.1.1 0 .1 0 0zm-11.2 9.2c-.2.1-.2.3-.2.5v3.1c0 .7-.5 1.2-1.2 1.2s-1.2-.5-1.2-1.2v-3.1c0-.2 0-.3-.2-.5-.9-.7-1.2-1.8-.8-2.9.5-1 1.5-1.6 2.6-1.4 1.1.2 2 1.2 2 2.3 0 .9-.3 1.5-1 2zm4.1-12.6s0 .1 0 0v1.7h-11v-1.3-.2-2.5c0-.7 0-1.4.1-2.2.4-2.8 3-4.8 5.9-4.6 2.8.2 5 2.5 5.1 5.3-.1 1.3-.1 2.5-.1 3.8z" />
    </symbol>
    <symbol id="skins" viewBox="0 0 24 24">
        <path d="M9.116 5H7l-5 6.667 1.667 1.666L7 10v10h10V10l3.333 3.333L22 11.667 17 5h-2.116A3.34 3.34 0 0 1 12 6.667 3.34 3.34 0 0 1 9.116 5z" />
    </symbol>
    <symbol id="world-of-warcraft" viewBox="0 0 512 512">
        <circle cx="255.7" cy="256.5" r="168" fill="#2b374c" />
        <path fill="#f4bf2a" d="M466 256.5c0-42.3-13.2-84-36.8-119.4V85.7c0-1.4-1.4-2.8-2.8-2.8H375c-71.5-49.3-165.9-49.3-237.4 0H86.3c-.7 0-1.4 0-2.1.7-.7.7-.7 1.4-.7 2.1v50.7c-50 72.2-50 167.3 0 239.5v50.7c0 1.4 1.4 2.8 2.8 2.8h51.4c72.2 49.3 166.6 48.6 238.8-.7h50.7c1.4 0 2.8-1.4 2.8-3.5v-50.7c23.5-34 36-75.6 36-118zm-392.2 0c0-100.7 81.2-181.9 181.9-181.9s181.9 81.2 181.9 181.9-81.2 181.9-181.9 181.9S73.8 357.2 73.8 256.5z" />
        <path fill="#f4bf2a" d="M134.9 157.9h68.7c-1.4 7.6-2.1 15.3-2.1 23.6 2.8 30.5 22.9 115.2 22.9 115.2L257 164.9 290.4 294s20.1-113.9 20.1-121.5c-.7-5.6-3.5-11.1-8.3-14.6h72.9c-9.7 9-16.7 20.1-20.8 33.3-6.2 25-28.5 151.3-28.5 159 .7 8.3 3.5 16 8.3 22.9h-68c1.4-6.2 2.1-12.5 2.1-18.7 0-11.8-10.4-66.6-10.4-66.6s-13.9 56.9-13.9 67.3c0 6.2 1.4 12.5 4.2 18h-68.7s13.2-9.7 13.2-18.7c-1.4-25.7-37.5-159.7-40.3-170.1-2.2-10.4-8.4-20.1-17.4-26.4z" />
    </symbol>
    <symbol id="overwatch" viewBox="0 0 512 512">
        <path fill="#ffba0d" d="M258.3 46h-4.8c-43.6 0-86.4 14.3-121.8 40.8l40.8 45.6c22.5-15 46.3-25.2 81.7-25.9 37.4 0 62.6 10.9 85.8 25.9l40.8-45.6C346.1 60.3 302.5 45.3 258.3 46z" />
        <path fill="#fff" d="M401.2 103.2L361 148.1l1.4 1.4c47.6 47.6 57.9 121.8 24.5 180.4L306.6 253l-38.1-88.5v134.8l78.3 75.6c-4.1 2.7-8.2 6.1-12.3 8.2l-2.7 2c-22.5 12.9-47.6 19.7-73.5 19.7h-4.1c-25.9 0-51.1-6.8-73.5-19.7l-2.7-1.4c-4.1-2.7-8.2-5.4-12.3-8.2l76.9-76.2V164.5L204.5 253l-79 76.9c-33.4-58.5-23.1-132.7 23.8-180.4l2-2-40.2-44.9-4.8 4.8c-81 81.7-80.3 215.1 0 296.1l2.7 2.7c19.1 18.4 40.2 32.7 64.7 42.9l5.4 2 2 2 5.4 2c6.8 2.7 14.3 4.8 21.8 6.1l13.6 2.7 14.3 2H255.9l4.8-.7H276.4l14.3-2 13.6-2.7c7.5-1.4 15-4.1 21.8-6.1l4.1-1.4 7.5-3.4.7-.7c23.1-9.5 44.9-23.8 63.3-41.5l8.2-8.2c77.8-83.6 74.4-216.4-8.7-296z" />
    </symbol>
    <symbol id="star" viewBox="0 0 100 100">
        <path d="M50 14l11.44908 24.5059L89 41.5015 68.525 59.64272l5.57832 26.3573L50 72.70592l-24.10333 13.2941 5.57832-26.3573L11 41.5016l27.55092-2.9957z" />
    </symbol>
    <symbol id="skype-color" viewBox="10.589 10.32 46.699 47.375">
        <path fill="#FFF" d="M34.533 52.561c-9.387 0-20.053-11.307-19.2-20.694.853-8.96 12.8-17.28 21.653-16 7.787 1.066 14.721 10.88 14.293 18.667-.425 8.212-8.533 18.027-16.746 18.027z" />
        <path fill="#00AFF0" d="M41.254 57.359c-.641-.213-1.601-.426-2.134-.64-.64-.319-1.387-.319-3.733-.213-2.24.106-3.414 0-5.013-.214C21.84 54.8 15.013 48.613 12.56 40.08c-.427-1.6-.533-2.453-.533-6.293 0-4.161-.107-4.48-.64-6.187-3.093-8.427 3.2-17.28 12.16-17.28 1.813 0 4.053.534 5.333 1.173.854.427 1.387.533 4.693.533 2.987 0 4.16.107 5.653.534 6.721 1.707 12.16 6.08 15.04 12.16 1.813 3.733 2.454 7.574 2.026 11.946-.213 2.348-.213 2.561.32 3.947 1.707 5.014.107 10.773-4.053 14.187-1.281 1.067-3.84 2.24-5.44 2.667-1.601.32-4.16.32-5.761-.107h-.104zm-2.881-8.213c3.521-.746 6.613-2.88 7.787-5.439 1.493-3.094 1.066-6.721-.96-8.961-1.707-1.92-4.267-2.986-10.347-4.479-4.054-.96-5.014-1.387-5.867-2.347-.747-.854-.854-1.493-.213-2.453.64-1.067 2.24-1.707 4.373-1.813 3.094-.213 4.48.533 6.293 3.413 1.387 2.134 2.773 2.667 4.588 1.813 2.346-1.173 2.133-5.013-.428-7.253-2.453-2.026-5.119-2.88-9.6-2.88-4.693 0-7.894.96-10.027 3.093-1.707 1.707-2.026 2.667-2.026 5.333 0 2.773.32 3.626 2.133 5.227 1.92 1.813 3.52 2.454 9.279 3.84 4.054.96 5.121 1.493 6.08 2.56.428.534.641.96.641 1.92 0 1.067-.107 1.28-.96 2.134-1.28 1.279-3.2 1.812-5.653 1.707-2.88-.214-4.16-1.067-5.653-4.054-1.067-2.026-1.92-2.773-3.307-2.773-3.094 0-4.16 2.56-2.56 5.866 1.387 2.881 4.16 4.801 7.68 5.547 2.133.427 6.827.427 8.854 0h-.107z" />
    </symbol>
    <symbol id="dungeons" viewBox="0 0 512 512">
        <path d="M489.2 287.9h-27.4c-2.6 0-4.6 2-4.6 4.6v32h-36.6V146.2c0-2.6-2-4.6-4.6-4.6h-27.4c-2.6 0-4.6 2-4.6 4.6v32h-36.6v-32c0-2.6-2-4.6-4.6-4.6h-27.4c-2.6 0-4.6 2-4.6 4.6v32h-36.6v-32c0-6-8-4.6-11.7-4.6v-38c8.3-2 17.1-3.4 25.7-3.4 10.9 0 20.9 4.3 31.4 4.3 4.6 0 27.7-1.1 27.7-8v-60c0-2.6-2-4.6-4.6-4.6-5.1 0-15.1 4.3-24 4.3-9.7 0-20.9-4.3-32.6-4.3-8 0-16 1.1-23.7 2.9v-4.9c5.4-2.6 9.1-8.3 9.1-14.3 0-20.7-31.4-20.8-31.4 0 0 6 3.7 11.7 9.1 14.3v111.7c-3.7 0-11.7-1.4-11.7 4.6v32h-36.6v-32c0-2.6-2-4.6-4.6-4.6h-27.4c-2.6 0-4.6 2-4.6 4.6v32H128v-32c0-2.6-2-4.6-4.6-4.6H96c-2.6 0-4.6 2-4.6 4.6v178.3H54.8v-32c0-2.6-2-4.6-4.6-4.6H22.8c-2.6 0-4.6 2-4.6 4.6V512h182.9v-96c0-72.6 109.7-72.6 109.7 0v96h182.9V292.5c.1-2.6-1.9-4.6-4.5-4.6zm-288.1-4.5c0 2.6-2 4.6-4.6 4.6h-27.4c-2.6 0-4.6-2-4.6-4.6v-64c0-2.6 2-4.6 4.6-4.6h27.4c2.6 0 4.6 2 4.6 4.6v64zm146.4 0c0 2.6-2 4.6-4.6 4.6h-27.4c-2.6 0-4.6-2-4.6-4.6v-64c0-2.6 2-4.6 4.6-4.6h27.4c2.6 0 4.6 2 4.6 4.6v64z" />
    </symbol>
    <symbol id="trophy" viewBox="0 0 576 512">
        <path d="M552 64H448V24c0-13.3-10.7-24-24-24H152c-13.3 0-24 10.7-24 24v40H24C10.7 64 0 74.7 0 88v56c0 35.7 22.5 72.4 61.9 100.7 31.5 22.7 69.8 37.1 110 41.7C203.3 338.5 240 360 240 360v72h-48c-35.3 0-64 20.7-64 56v12c0 6.6 5.4 12 12 12h296c6.6 0 12-5.4 12-12v-12c0-35.3-28.7-56-64-56h-48v-72s36.7-21.5 68.1-73.6c40.3-4.6 78.6-19 110-41.7 39.3-28.3 61.9-65 61.9-100.7V88c0-13.3-10.7-24-24-24zM99.3 192.8C74.9 175.2 64 155.6 64 144v-16h64.2c1 32.6 5.8 61.2 12.8 86.2-15.1-5.2-29.2-12.4-41.7-21.4zM512 144c0 16.1-17.7 36.1-35.3 48.8-12.5 9-26.7 16.2-41.8 21.4 7-25 11.8-53.6 12.8-86.2H512v16z" />
    </symbol>
    <symbol id="mount" viewBox="0 0 96 96">
        <path d="M22.2 67.6c-.6.6-1.4 1.1-2.2 1.4v14c0 1.7 1.3 3 3 3s3-1.3 3-3V66.8c1.5.8 3.4.8 4.8-.6l2.4-2.4c-1.9-.2-3.8-.7-5.7-1.5l-5.3 5.3z" />
        <path d="M87.2 28.2L75.8 16.8C75 16 74 15.5 73 15.2v-3.7c0-.3-.2-.5-.5-.5-1.9 0-3.5 1.6-3.5 3.5v.9C61.8 18.2 55 35 44 35H28c-2.5 0-4.7.7-6.6 2H16c-4.4 0-8 3.6-8 8v12l8-3.6V61c0-1.7-1.3-3-3-3s-3 1.3-3 3v22c0 1.7 1.3 3 3 3s3-1.3 3-3V66.8c1.5.8 3.4.8 4.8-.6l6.3-6.3c2.7 1.3 5.7 2.1 8.9 2.1h13v21c0 1.7 1.3 3 3 3s3-1.3 3-3V62c1.4 0 2.7-.3 4-.7V83c0 1.7 1.3 3 3 3s3-1.3 3-3V56.6c1.3-1.9 2-4.2 2-6.6v2c0-11.6 2.7-21 6-21l1.2 1.2c1.1 1.1 2.7 1.8 4.2 1.8H81l.2.2c1.6 1.6 4.1 1.6 5.7 0l.3-.3c1.5-1.6 1.5-4.2 0-5.7z" />
    </symbol>
    <symbol id="box-alt" viewBox="0 0 448 512">
        <path d="M446.7 160c.4-.5.5-.7.9-1.2L391.3 53.9C386.9 40.8 374.7 32 360.9 32H256l32 128h158.7zM160 160l32-128H87.1c-13.8 0-26 8.8-30.4 21.9L.4 158.8c.4.5.5.7.9 1.2H160zm128 32v80c0 8.8-7.2 16-16 16h-96c-8.8 0-16-7.2-16-16v-80H0v256c0 17.7 14.3 32 32 32h384c17.7 0 32-14.3 32-32V192H288z" />
    </symbol>
    <symbol id="crown" viewBox="1 -1 100 100">
        <path d="M89.5 27.7c-5.5 0-10 4.5-10 10 0 1.9.5 3.6 1.5 5.2l-12.7 6.8-11.1-16.8c2.4-1.9 4-5 4-8.3 0-5.8-4.8-10.6-10.6-10.6S40 18.8 40 24.6c0 3.3 1.5 6.3 3.9 8.2L31.8 49.7l-11.1-6.3c1.1-1.6 1.8-3.5 1.8-5.6 0-5.5-4.5-10-10-10s-10 4.5-10 10c0 4.2 2.8 8 6.5 9.3l4.5 30.2c.5 3.8 3.8 6.6 7.6 6.6h58.8c3.8 0 7.1-2.9 7.6-6.7L92 47.5c4.4-1.3 7.5-5.1 7.5-9.8 0-5.5-4.5-10-10-10z" />
    </symbol>
    <symbol id="fire" viewBox="0 0 100 100">
        <path d="M40.6 94c-4.9-2.9-8.4-8-8.6-14-.3-11.2 7.5-16.7 12.1-24.2 6.6-10.8 4.8-17.5 4.8-17.5s5.5 3.1 8.7 14.6c1 3.4 1.2 6.8.9 10-.5 8.1-4 15.4-4 15.4s6.1-1.3 7.8-12.4c2.8 2.9 5.4 7.1 5.7 11.5C68.5 85 64 92 57.2 95 69 92.3 77.4 82.3 80.3 75c3.7-9.2 2.7-17.4 2.1-24.5-.8-9.7 2.6-16.9 2.6-16.9s-6.5 1.9-11.3 9.8c-2.2 3.6-3.1 8.9-3.1 8.9s.5-4.7-2.6-13.3c-3.1-8.4-5.9-11.4-7.6-17.6C58.2 13.1 63.1 5 63.1 5S43.7 8.6 34.9 25.5c-7.8 15-4.6 24-4.6 24s-3.3-3.1-5-7.4-1.3-8.2-1.3-8.2-13.8 15.2-7.1 34.3C21.4 81.6 30.1 90.4 40.6 94z" />
    </symbol>
    <symbol id="discount" viewBox="0 0 100 100">
        <path d="M60.86 57.5c0-2.3 1.38-4.31 3-4.31s3 2 3 4.31-1.38 4.31-3 4.31-3-2.01-3-4.31zM36.19 46.81c1.57 0 3-2 3-4.31s-1.38-4.31-3-4.31-3 2-3 4.31 1.43 4.31 3 4.31zM5 45.28l1.81-1.59a6.14 6.14 0 0 0 1.61-7l-.93-2.23a6.14 6.14 0 0 1 4-8.28l2.33-.65A6.14 6.14 0 0 0 18.27 20l.13-2.41a6.14 6.14 0 0 1 6.12-5.81 6.21 6.21 0 0 1 1.09.1l2.38.43a6.14 6.14 0 0 0 6.46-3.09l1.15-2.16a6.13 6.13 0 0 1 9-2l2 1.41a6.14 6.14 0 0 0 7.16 0l2-1.4a6.14 6.14 0 0 1 9 2.07l1.15 2.12a6.14 6.14 0 0 0 5.4 3.22 6.07 6.07 0 0 0 1-.09L74.6 12a6.22 6.22 0 0 1 1.06-.09 6.14 6.14 0 0 1 6.12 5.85l.11 2.41a6.14 6.14 0 0 0 4.45 5.61l2.32.66a6.14 6.14 0 0 1 4 8.3l-.94 2.22a6.14 6.14 0 0 0 1.58 7l1.8 1.6a6.14 6.14 0 0 1 0 9.2l-1.81 1.59a6.14 6.14 0 0 0-1.61 7l.93 2.23a6.14 6.14 0 0 1-4 8.28l-2.33.65A6.14 6.14 0 0 0 81.73 80l-.13 2.41a6.14 6.14 0 0 1-6.12 5.81 6.21 6.21 0 0 1-1.09-.1L72 87.74a6.13 6.13 0 0 0-6.46 3.09l-1.14 2.11a6.13 6.13 0 0 1-9 2l-2-1.41a6.14 6.14 0 0 0-7.16 0l-2 1.4a6.13 6.13 0 0 1-9-2.07l-1.15-2.12a6.14 6.14 0 0 0-6.44-3.13L25.4 88a6.22 6.22 0 0 1-1.06.09 6.14 6.14 0 0 1-6.12-5.85l-.12-2.41a6.14 6.14 0 0 0-4.45-5.61l-2.32-.66a6.14 6.14 0 0 1-4-8.3l.94-2.22a6.14 6.14 0 0 0-1.58-7l-1.8-1.6A6.14 6.14 0 0 1 5 45.28zM54.49 57.5c0 5.89 4.18 10.69 9.32 10.69s9.32-4.79 9.32-10.69S69 46.81 63.81 46.81s-9.32 4.8-9.32 10.69zM38 64.93A3.19 3.19 0 1 0 43.54 68L62 35.07A3.19 3.19 0 1 0 56.46 32zM26.86 42.5c0 5.89 4.18 10.69 9.32 10.69S45.5 48.4 45.5 42.5s-4.18-10.69-9.32-10.69-9.32 4.8-9.32 10.69z" />
    </symbol>
    <symbol id="bolt" viewBox="0 0 320 512">
        <path d="M295.973 160H180.572L215.19 30.184C219.25 14.956 207.756 0 192 0H56C43.971 0 33.8 8.905 32.211 20.828l-31.996 240C-1.704 275.217 9.504 288 24.004 288h118.701L96.646 482.466C93.05 497.649 104.659 512 119.992 512c8.35 0 16.376-4.374 20.778-11.978l175.973-303.997c9.244-15.967-2.288-36.025-20.77-36.025z" />
    </symbol>
    <symbol id="destiny-2" viewBox="0 0 512 512">
        <path fill="#fff" d="M255.8 258.6c24.2 0 44.4-19.6 45.1-43.8v-77.1c0-24.8-20.3-45.1-45.1-45.1s-45.1 20.3-45.1 45.1v77.1c.7 24.2 20.3 43.8 45.1 43.8zM399.6 58c-28.1 0-47 19.6-70.6 30.7-2 .7-3.3 1.3-5.2 2.6v123.5c-.7 36.6-30.7 66.7-67.3 66.7-37.2 0-68-30.1-68-68V91.3c-2-.7-3.3-1.3-5.2-2.6C159.8 77 140.2 58 112.1 58c-47.7 0-81.7 48.4-65.3 93.4 7.2 19.6 21.6 30.7 37.9 41.2 20.3 13.1 38.6 28.8 53.6 47.7 22.2 27.4 37.2 60.8 44.4 96.1 3.3 16.3 5.2 38.6 6.5 53.6 3.3 35.3 27.4 64 66.7 64s63.4-28.8 66.7-64c1.3-15 3.3-37.2 7.2-53.6 7.2-34.6 22.2-68 44.4-96.1 15-19 33.3-34.6 53.6-47.7 17-10.5 31.4-21.6 37.9-41.2 15.6-45-19.1-93.4-66.1-93.4z" />
    </symbol>
    <symbol id="league-of-legends" viewBox="0 0 48 48">
        <circle cx="24" cy="26" r="19" fill="#DD9F05" />
        <circle cx="24" cy="26" r="17" fill="#01579B" />
        <path fill="#0277BD" d="M34 32c.917 2.917-2.167 5.045-4.583 5.045-1.322 0-2.958-.504-3.417-2.045a34.526 34.526 0 0 0-4 2.518V39h12.915a17.01 17.01 0 0 0 4.671-6.22C38.731 32.46 36.988 32 34 32zM36.563 14.571a22.086 22.086 0 0 0-8.052 4.386C27.629 21.634 25.517 24.582 22 27v7s2.796-5.109 9.417-6.667a56.387 56.387 0 0 1 9.581-1.386 16.906 16.906 0 0 0-4.435-11.376z" />
        <path fill="#0091EA" d="M34.919 12.993a17.056 17.056 0 0 0-3.089-2.073c-1.113.515-2.506 1.223-3.83 2.08.629.787.957 1.84.985 3.04a23.948 23.948 0 0 1 5.934-3.047z" />
        <circle cx="24" cy="26" r="15" fill="#0277BD" />
        <path fill="#00B0FF" d="M29.557 12.076c-.517.286-1.041.59-1.557.924.629.787.957 1.84.985 3.04a24.296 24.296 0 0 1 3.804-2.178 14.934 14.934 0 0 0-3.232-1.786z" />
        <path fill="#0091EA" d="M39 26c0-4.19-1.721-7.974-4.491-10.695-2.875 1.18-4.954 2.746-5.999 3.652-.881 2.677-2.993 5.625-6.51 8.043v7s2.796-5.109 9.417-6.667a56.899 56.899 0 0 1 7.578-1.234c0-.033.005-.065.005-.099z" />
        <path fill="#B3831D" d="M39.473 37H33v2h4.83a18.982 18.982 0 0 0 1.643-2zM22 7.107v37.786c.658.069 1.324.107 2 .107V7c-.676 0-1.342.038-2 .107zM11 39.83a19.107 19.107 0 0 0 2 1.643V10.527a19.107 19.107 0 0 0-2 1.643v27.66z" />
        <path fill="#01579B" d="M11 36.943c.609.723 1.28 1.392 2 2.005V13.051a17.136 17.136 0 0 0-2 2.005v21.887z" />
        <path fill="#FFC107" d="M10 3h12v36h20l-5 6H10l3-4V7z" />
        <path fill="#01579B" d="M24 37V9c-.678 0-1.343.051-2 .128V39h12.943a17.136 17.136 0 0 0 2.005-2H24z" />
        <path fill="#0277BD" d="M24 25.395A17.09 17.09 0 0 1 22 27v7s.636-1.149 2-2.521v-6.084z" />
        <path fill="#E8A30A" d="M22 39V3h-2v38h20.333L42 39z" />
        <path fill="#0091EA" d="M34 32c.917 2.917-2.167 5.045-4.583 5.045-1.322 0-2.958-.504-3.417-2.045a34.526 34.526 0 0 0-4 2.518V39h9.462a15.04 15.04 0 0 0 6.15-6.727C36.693 32.117 35.505 32 34 32z" />
        <path fill="#0277BD" d="M36.349 37.65c.196-.206.366-.435.551-.65h-6.89c-.2.027-.399.045-.593.045-.209 0-.426-.018-.644-.045H24v-.836a36.461 36.461 0 0 0-2 1.354V39h12.915c.497-.418.971-.863 1.418-1.333l.016-.017z" />
    </symbol>
    <symbol id="diablo-3" viewBox="0 0 512 512">
        <path fill="#490005" d="M495.9 248.6s-55.8-11.8-79.4-52.7c0 0-11.2 19.2-22.9 20.5 0 0 3.1-22.3 17.4-32.2l-17.4-16.7h-40.3s10.5-31 24.8-33.5c0 0-24.2-11.2-40.3 2.5 0 0-52.1 7.4-8.1-33.5 0 0-63.2-24.8-73.8-52.1-10.5 27.3-73.8 52.1-73.8 52.1 44 40.9-8.1 33.5-8.1 33.5-16.1-13.6-40.3-2.5-40.3-2.5 14.3 2.5 24.8 33.5 24.8 33.5h-40.3L101 184.1c14.3 10.5 17.4 32.2 17.4 32.2-11.8-1.9-22.9-20.5-22.9-20.5-22.9 40.9-79.4 52.7-79.4 52.7s55.8 11.8 79.4 52.7c0 0 11.2-19.2 22.9-20.5 0 0-3.1 22.3-17.4 32.2l17.4 16.7h40.3s-10.5 31-24.8 33.5c0 0 24.2 11.2 40.3-2.5 0 0 52.1-7.4 8.1 33.5 0 0 63.2 24.8 73.8 52.1 10.5-27.3 73.8-52.1 73.8-52.1-44-40.9 8.1-33.5 8.1-33.5 16.1 13.6 40.3 2.5 40.3 2.5-14.3-2.5-24.8-33.5-24.8-33.5h40.3L411 313c-14.3-10.5-17.4-32.2-17.4-32.2 11.8 1.9 22.9 20.5 22.9 20.5 23-40.3 79.4-52.1 79.4-52.7z" />
        <path fill="#d80000" d="M257.2 10.5c6.2 40.9 9.9 81.2 12.4 122.1s3.1 81.2 3.1 122.1-1.2 81.2-3.1 122.1c-2.5 40.9-5.6 81.2-12.4 122.1-6.2-40.9-9.9-81.2-12.4-122.1s-3.1-81.2-3.1-122.1 1.2-81.2 3.1-122.1c3.1-40.9 6.2-81.8 12.4-122.1z" />
        <path fill="#f23f00" d="M257.2 8c6.2 41.5 9.9 82.5 12.4 124s3.1 82.5 3.1 124-1.2 82.5-3.1 124c-2.5 41.5-5.6 82.5-12.4 124-6.2-41.5-9.9-82.5-12.4-124s-3.1-82.5-3.1-124 1.2-82.5 3.1-124c3.1-41.5 6.2-82.5 12.4-124zM172.3 58.2c6.2 32.9 9.9 65.7 12.4 98 2.5 32.9 3.1 65.7 3.1 98 0 32.9-1.2 65.7-3.1 98-2.5 32.9-5.6 65.7-12.4 98-6.2-32.9-9.9-65.7-12.4-98-1.9-32.2-3.1-65.1-3.1-97.3 0-32.9 1.2-65.7 3.1-98 2.5-33.6 6.2-65.8 12.4-98.7zM337.8 58.2c6.2 32.9 9.9 65.7 12.4 98 2.5 32.9 3.1 65.7 3.1 98 0 32.9-1.2 65.7-3.1 98-2.5 32.9-5.6 65.7-12.4 98-6.2-32.9-9.9-65.7-12.4-98-2.5-32.9-3.1-65.7-3.1-98 0-32.9 1.2-65.7 3.1-98 2.5-32.9 6.2-65.1 12.4-98z" />
        <path fill="#e8dcc1" d="M398 198.3c-12.4-8.7-26-17.4-42.2-21.7 15.5 21.7 33.5 45.9 31 86.2-1.9 31-16.7 52.7-32.9 70.1-17.4 18-39.7 31.6-63.9 37.8-14.3 5-28.5 7.4-43.4 8.1-49 0-99.8-3.1-146.9 2.5-.6-4.3-1.2-8.7-2.5-13 19.2-5 45.3-11.2 47.7-33.5 1.2-12.4 1.2-154.4-1.2-164.9-3.1-14.3-31-18.6-45.9-21.7 0-5 1.2-8.1 1.2-13 32.2-4.3 64.5-4.3 99.2-6.2 89.4-3.8 166.3 14.2 199.8 69.3zM210.7 163c-4.3.6-3.1 14.9-3.1 19.2.6 36-.6 78.1-.6 114.1 0 11.2-3.1 35.3 3.7 40.9s32.9 3.7 43.4 2.5c54.6-3.7 78.7-63.9 60.1-116.6-11.8-34.1-38.4-57.7-82.5-60.8-5.5-.5-19.7.7-21 .7z" />
    </symbol>
    <symbol id="hearthstone" viewBox="0 0 512 512">
        <circle cx="256.7" cy="256" r="138.3" fill="#593810" />
        <path fill="#ff9c00" d="M400.3 311.8L494 256l-93.7-55.8c-4.7-12-10.6-22.6-17.9-33.2l21.3-59.2-58.6 21.2c-10-7.3-21.3-13.3-33.2-17.9L256 18l-55.8 93.7c-12 4.7-22.6 10.6-33.2 17.9l-58.5-21.3 21.3 58.5c-7.3 10-13.3 21.3-17.9 33.2L18 256l93.7 55.8c4.7 12 10.6 22.6 17.9 33.2l-21.3 59.2 58.5-21.3c10 7.3 21.3 13.3 33.2 17.9l56 93.2 55.8-93.7c12-4.7 22.6-10.6 33.2-17.9l59.2 21.3-21.2-58.6c7.3-10 13.3-21.3 17.3-33.3zM256 384.3c-70.5 0-128.3-57.2-128.3-128.3S185.5 127.7 256 127.7 384.3 185.5 384.3 256c0 70.5-57.8 128.3-128.3 128.3z" />
        <path fill="#39ccff" d="M341.8 252.7c.7-6-4.7-12-5.3-18.6 0-3.3-1.3-6.6-2.7-10-1.3-3.3-1.3-6.6-2-9.3h-.7c4-8-7.3-17.3-12.6-23.3-6.6-6.6-10-15.3-19.9-18.6-4.7-2-9.3-4.7-14.6-6.6-4.7-2-10-3.3-14-4.7-4.7-2-8-6-13.3-5.3-5.3.7-8 4-14 2.7-12-4-20.6 2.7-29.9 9.3-4.7 3.3-9.3 6-13.3 9.3-1.3 1.3-2.7 3.3-4 5.3-1.3 2-4 3.3-5.3 6-2.7 4-6.6 6.6-10.6 9.3-2 1.3-3.3 4-6 5.3-3.3 2-4 1.3-4 5.3 0 5.3 2.7 9.3 2.7 14v8c.7 2.7 1.3 4.7 2 7.3 1.3 4.7 0 10 2 14 2.7 4 5.3 8.6 8.6 12 3.3 4 6.6 8.6 10 13.3 2 2.7 9.3 6.6 9.3 10.6 5.3 1.3 6.6 7.3 11.3 7.3 2.7-.7 5.3-.7 7.3 0 2.7.7 4.7 1.3 7.3 2 4.7 0 8-4 12.6-5.3 4.7-1.3 10 0 14.6-2 8.6-5.3 14-14.6 14.6-24.6 0-5.3-1.3-10.6-4.7-14.6-2.7-4.7-.7-10-5.3-12.6-4.7-2-10-4-16-4-5.3-2-10.6-1.3-16 .7-8.6 6 10.6 19.9.7 24.6-11.3 4.7-17.3-8-19.9-16.6-1.3-5.3-1.3-11.3 0-16.6 0-2.7.7-4.7 1.3-7.3 1.3-2 4-3.3 6-4 4-2.7 7.3-6.6 11.3-9.3s9.3-4.7 14-6c6-1.3 12-1.3 17.9-1.3 2.7 0 5.3.7 8 .7s4.7-1.3 7.3-1.3c4 0 2.7 1.3 2.7 4.7 0 2 1.3 4 2.7 6 3.3 4 6 8 9.3 12 6.6 8 5.3 20.6 4.7 30.6-.7 5.3 0 10.6 1.3 16 2 6-2.7 6-6.6 9.3-2.7 4-5.3 8-7.3 12-3.3 4-6.6 7.3-10.6 10-3.3 3.3-7.3 6-10.6 8.6-4.7 2.7-9.3 5.3-14 7.3-5.3 2-11.3 3.3-16.6 4.7-2.7.7-5.3 1.3-8 2.7-2 1.3-3.3 4-6 5.3-6.6 4-14 3.3-21.3 6.6-4 2-17.3 2.7-17.9 7.3h-.7c2 4 6 7.3 10.6 8 4.7.7 9.3 2 13.3 3.3 4.7 2 8.6 2.7 13.3 3.3 4.7 0 8.6 2.7 13.3 3.3 5.3.7 9.3-3.3 14-4 5.3-.7 10.6-.7 16-1.3 5.3-.7 10-2 15.3-3.3 4.7-2 9.3-2 14-4 4.7-2 8.6-4 12.6-6.6 4-2.7 4.7-7.3 8.6-10 4-2.7 7.3-5.3 10.6-8.6 2.7-4 4.7-8.6 5.3-13.3 2-4 4.7-8 7.3-11.3 2-4.7 4-9.3 4.7-14 2-4.7 2-9.3 2-14.6-.7-2.7-3.3-4-2-7.3 3.9-3.8 4.6-5.8 5.3-7.8z" />
    </symbol>
    <symbol id="heroes-of-the-storm" viewBox="0 0 512 512">
        <path fill="#418af2" d="M422.6 352.8L256 449.6 89.4 352.8V160.6L256 63.8l166.6 96.8z" />
        <path fill="#fff" d="M256 46L69.5 150.6v210L256 466l186.5-105.4v-210z" />
        <path fill="#36aeea" d="M104.4 239.6c12.1-99.7 98.9-126.7 98.9-126.7C87.3 236.8 226.1 325 226.1 325l-94 20.6c.7.1-32.7-39.8-27.7-106z" class="st2" />
        <path fill="#36aeea" d="M315.8 397.7c-99.7 36.3-158-27.1-158-27.1 163 41.3 174.4-123.9 174.4-123.9l62.6 71.9s-17.8 51.3-79 79.1z" class="st2" />
        <path fill="#36aeea" d="M404.8 284.5c-49.8-163-190.1-85.4-190.1-85.4l29.9-94.7s59.8-7.8 113.9 38.4c66.2 57.7 46.3 141.7 46.3 141.7z" class="st2" />
    </symbol>
    <symbol id="skype" viewBox="0 0 448 512">
        <path d="M424.7 299.8c2.9-14 4.7-28.9 4.7-43.8 0-113.5-91.9-205.3-205.3-205.3-14.9 0-29.7 1.7-43.8 4.7C161.3 40.7 137.7 32 112 32 50.2 32 0 82.2 0 144c0 25.7 8.7 49.3 23.3 68.2-2.9 14-4.7 28.9-4.7 43.8 0 113.5 91.9 205.3 205.3 205.3 14.9 0 29.7-1.7 43.8-4.7 19 14.6 42.6 23.3 68.2 23.3 61.8 0 112-50.2 112-112 .1-25.6-8.6-49.2-23.2-68.1zm-194.6 91.5c-65.6 0-120.5-29.2-120.5-65 0-16 9-30.6 29.5-30.6 31.2 0 34.1 44.9 88.1 44.9 25.7 0 42.3-11.4 42.3-26.3 0-18.7-16-21.6-42-28-62.5-15.4-117.8-22-117.8-87.2 0-59.2 58.6-81.1 109.1-81.1 55.1 0 110.8 21.9 110.8 55.4 0 16.9-11.4 31.8-30.3 31.8-28.3 0-29.2-33.5-75-33.5-25.7 0-42 7-42 22.5 0 19.8 20.8 21.8 69.1 33 41.4 9.3 90.7 26.8 90.7 77.6 0 59.1-57.1 86.5-112 86.5z" />
    </symbol>
    <symbol id="whatsapp" viewBox="0 0 448 512">
        <path d="M380.9 97.1C339 55.1 283.2 32 223.9 32c-122.4 0-222 99.6-222 222 0 39.1 10.2 77.3 29.6 111L0 480l117.7-30.9c32.4 17.7 68.9 27 106.1 27h.1c122.3 0 224.1-99.6 224.1-222 0-59.3-25.2-115-67.1-157zm-157 341.6c-33.2 0-65.7-8.9-94-25.7l-6.7-4-69.8 18.3L72 359.2l-4.4-7c-18.5-29.4-28.2-63.3-28.2-98.2 0-101.7 82.8-184.5 184.6-184.5 49.3 0 95.6 19.2 130.4 54.1 34.8 34.9 56.2 81.2 56.1 130.5 0 101.8-84.9 184.6-186.6 184.6zm101.2-138.2c-5.5-2.8-32.8-16.2-37.9-18-5.1-1.9-8.8-2.8-12.5 2.8-3.7 5.6-14.3 18-17.6 21.8-3.2 3.7-6.5 4.2-12 1.4-32.6-16.3-54-29.1-75.5-66-5.7-9.8 5.7-9.1 16.3-30.3 1.8-3.7.9-6.9-.5-9.7-1.4-2.8-12.5-30.1-17.1-41.2-4.5-10.8-9.1-9.3-12.5-9.5-3.2-.2-6.9-.2-10.6-.2-3.7 0-9.7 1.4-14.8 6.9-5.1 5.6-19.4 19-19.4 46.3 0 27.3 19.9 53.7 22.6 57.4 2.8 3.7 39.1 59.7 94.8 83.8 35.2 15.2 49 16.5 66.6 13.9 10.7-1.6 32.8-13.4 37.4-26.4 4.6-13 4.6-24.1 3.2-26.4-1.3-2.5-5-3.9-10.5-6.6z" />
    </symbol>
    <symbol id="discord" viewBox="0 0 48 48">
        <path d="M40 12s-4.586-3.59-10-4l-.488.977C34.406 10.176 36.652 11.89 39 14c-4.047-2.066-8.04-4-15-4-6.96 0-10.953 1.934-15 4 2.348-2.11 5.02-4.016 9.488-5.023L18 8c-5.68.535-10 4-10 4s-5.121 7.426-6 22c5.16 5.953 13 6 13 6l1.64-2.184C13.856 36.848 10.716 35.121 8 32c3.238 2.45 8.125 5 16 5s12.762-2.55 16-5c-2.715 3.121-5.855 4.848-8.64 5.816L33 40s7.84-.047 13-6c-.879-14.574-6-22-6-22zM17.5 30c-1.934 0-3.5-1.79-3.5-4s1.566-4 3.5-4 3.5 1.79 3.5 4-1.566 4-3.5 4zm13 0c-1.934 0-3.5-1.79-3.5-4s1.566-4 3.5-4 3.5 1.79 3.5 4-1.566 4-3.5 4z" />
    </symbol>
    <symbol id="mail" viewBox="0 0 512 512">
        <path d="M502.3 190.8c3.9-3.1 9.7-.2 9.7 4.7V400c0 26.5-21.5 48-48 48H48c-26.5 0-48-21.5-48-48V195.6c0-5 5.7-7.8 9.7-4.7 22.4 17.4 52.1 39.5 154.1 113.6 21.1 15.4 56.7 47.8 92.2 47.6 35.7.3 72-32.8 92.3-47.6 102-74.1 131.6-96.3 154-113.7zM256 320c23.2.4 56.6-29.2 73.4-41.4 132.7-96.3 142.8-104.7 173.4-128.7 5.8-4.5 9.2-11.5 9.2-18.9v-19c0-26.5-21.5-48-48-48H48C21.5 64 0 85.5 0 112v19c0 7.4 3.4 14.3 9.2 18.9 30.6 23.9 40.7 32.4 173.4 128.7 16.8 12.2 50.2 41.8 73.4 41.4z" />
    </symbol>
    <symbol id="clock" viewBox="0 0 16 16">
        <path d="M8 0C3.6 0 0 3.6 0 8s3.6 8 8 8 8-3.6 8-8-3.6-8-8-8zm0 14c-3.3 0-6-2.7-6-6s2.7-6 6-6 6 2.7 6 6-2.7 6-6 6z" />
        <path d="M8 3H7v6h5V8H8z" />
    </symbol>
    <symbol id="PayPalStandardPro" viewBox="717.8 88.6 2048.3 545.2">
        <path d="M1846 235.3c7.2.2 13 6.1 13 13.3 0 2.7-.8 5.1-2.1 7.2l-255 368.6v.1c-4 5.7-10.6 9.4-18.1 9.4H1507.1c-7.2-.2-12.9-6.1-12.9-13.3 0-2.7.8-5.1 2.1-7.2l79.7-112-84.4-247.8v.1c-.5-1.4-.7-2.9-.7-4.4 0-7.3 5.9-13.3 13.2-13.3h76.2c9.6.3 17.7 6.8 20.4 15.8l44.6 150.7 105.9-156.9v-.1c4-5.8 10.6-9.5 18.2-9.6h76.8l-.2-.6zm-512 148.2l-.1.4c.9-4.3 1.4-8.9 1.4-13.5 0-15.5-5.4-29.7-14.2-40.8-11.7-12.6-28.5-20.5-47.1-20.5-1.3 0-2.5 0-3.6.1h-.9c-42.9 0-78.4 31.6-84.5 73.3l.1-.4c-1.4 5-2.1 10.2-2.1 15.7 0 32.7 26.5 59.2 59.2 59.2 2.1 0 4.1-.1 5.9-.3h-.1 2c42.7 0 78-31.5 84.1-72.9l-.1-.3zm105.9-148.2c7.3 0 13.3 6 13.3 13.3 0 .7-.1 1.4-.2 2l-41 261.1v.1c-1.7 10.5-10.8 18.5-21.8 18.5H1321.5c-7.3 0-13.3-6-13.3-13.3 0-.7.1-1.4.2-2l3.5-20.5c-26.5 26.7-63.2 43.2-103.7 43.2h-2.2.4c-2.7.2-5.4.3-8.2.3-34.9 0-66.3-15-88.2-39l.2.3c-19.7-24.5-31.4-55.7-31.4-89.6 0-9.9 1-19.5 2.7-27.9l.1-.8c10.3-85.5 82.2-152 170.1-154 36.7 0 73.5 8 90.1 31.9l5.3 7.8 3.3-20.5v-.1c1-6.3 6.5-11.2 13.1-11.2h76.8l-.4.4zm-457.7 3.2l-.1.4c1.3-4.7 2.1-9.6 2.1-14.7 0-11.5-3.7-22.2-9.8-30.7-13.9-16.4-41.2-16.4-69.8-16.4h-11.1-.1c-6.8 0-12.5 5.2-13.2 11.9l-16.8 106.7h24.2c42.2 0 85.8 0 94.6-57.2zM963.6 89c53.2 0 93.4 14.3 116.1 41l-.2-.3c15.3 20.5 24.3 45.9 24.3 73.3 0 10.4-1.3 20.6-3.6 29.4-15.8 100.6-76.4 151.3-181.2 151.3h-50.4-.1c-11 0-20.1 8-21.8 18.6l-17.4 110v.1c-1.7 10.5-10.8 18.5-21.8 18.5h-76.3c-7.3 0-13.3-6-13.3-13.3 0-.7.1-1.4.2-2l64.5-408.4v-.1c1.7-10.5 10.8-18.5 21.8-18.5h159.4l-.2.4zm1702.5 10.9c1-6.4 6.5-11.2 13.1-11.3h73.7c7.3 0 13.3 6 13.3 13.3 0 .7-.1 1.4-.2 2l-64.5 408.4v.1c-1.7 10.5-10.8 18.5-21.8 18.5h-65.8c-7.3 0-13.3-6-13.3-13.3 0-.7.1-1.4.2-2l65.3-415.9v.2zm-196.2 284.4l-.1.4c.9-4.3 1.4-8.9 1.4-13.5 0-15.5-5.4-29.7-14.2-40.8-11.7-12.6-28.5-20.5-47.1-20.5-1.3 0-2.5 0-3.6.1h-.9c-42.9 0-78.4 31.6-84.5 73.3l.1-.4c-1.4 5-2.1 10.2-2.1 15.7 0 32.7 26.5 59.2 59.2 59.2 2.1 0 4.1-.1 5.9-.3h-.1 2c42.7 0 78-31.5 84.1-72.9l-.1-.3zm105.8-149.5c7.3 0 13.3 6 13.3 13.3 0 .7-.1 1.4-.2 2l-41 261.1v.1C2546.1 522 2537 530 2526 530H2457.3c-7.3 0-13.3-6-13.3-13.3 0-.7.1-1.4.2-2l3.5-20.5c-26.5 26.9-63.3 43.6-104.1 43.6h-1.6.4c-2.7.2-5.4.3-8.2.3-34.9 0-66.3-15-88.2-39l.2.3c-19.7-24.5-31.4-55.7-31.4-89.6 0-9.9 1-19.5 2.7-27.9l.1-.9c10.7-85.1 82.5-151.3 170.3-153.1 36.9 0 73.5 8 90.1 31.9l5.3 7.8 3.3-20.5v-.1c1-6.3 6.5-11.2 13.1-11.2h76.4l-.4-1zm-457.3 3.7l-.1.4c1.2-4.4 1.8-9 1.8-13.7 0-12-3.9-23-10.5-31.7-13.9-16.4-41.2-16.4-69.8-16.4h-11.1c-6.4.5-11.5 5.5-12.2 11.9l-16.8 106.7h24.2c42.1 0 85.7 0 94.5-57.2zM2099.8 89c53.2 0 93.4 14.3 116.1 41l-.2-.3c15.3 20.5 24.3 45.9 24.3 73.3 0 10.4-1.3 20.6-3.6 29.4-15.8 100.6-76.4 151.3-181.2 151.3h-50.4-.1c-11 0-20.1 8-21.8 18.6l-18 115.5v.1c-1.2 7.4-7.6 13-15.3 13h-81.9c-7.3 0-13.3-6-13.3-13.3 0-.7.1-1.4.2-2l64.3-407.6v-.1c1.7-10.5 10.8-18.5 21.8-18.5H2100l-.2-.4z" />
    </symbol>
    <symbol id="braintree" viewBox="769.2 -375.7 1946 262.6">
        <path d="M881.8-120.5c53.5 0 86.2-23.6 86.2-65.9v-.1c-1.3-26.8-21-48.8-47.1-53.7l.4-.1c19.8-7 34.1-25.9 34.1-48.1v-1.3c0-38.7-29.9-61.4-79.1-61.4H769.2v34H796v163.8h-26.8v34l112.6-1.2zm-9.6-196.8c30.1 0 46.1 11.1 46.1 31.5s-16 31.5-44.6 31.5h-41v-63.1h39.5zm-39.5 95.8h43c36.7 0 55.5 11.7 55.5 34s-17.6 34-52.8 34h-45.7v-68zm362.7-28.6l-.1-.4c-5.1-25.8-27.9-45.2-55.2-45.2-1.4 0-2.7 0-3.9.1h.1-2.4c-25.2 0-47.2 13.7-59.1 34.4v-28.7h-64.3v34h29.5v102.4h-37.5v34h131.9v-34h-59.2v-44 .2c-.1-1.5-.2-3-.2-4.5 0-33.1 26.9-60 60-60h.5c13.1 0 24.1 9.1 27 21.5l32.9-9.8zm146.8 31.5l1.2.3c-14.6-4.4-30.1-6.9-46.2-7.1-37.7 0-78.6 17-78.6 58 0 35.4 30.3 53.5 65.5 53.5h-.2c1.8.1 3.7.2 5.6.2 21 0 40-9.1 53-23.8v18h61.4v-34h-24.8v-76c0-43.2-33.2-65.9-76-65.9h.1-2.4c-27.5 0-52.5 10.9-70.9 28.5l21.3 25.2c13-12.5 30.6-20.3 50-20.5 21.7 0 41 10 41 34v9.6zm-.2 35.2c0 24-29.1 37.9-55.1 37.9-18.8 0-32.4-7.2-32.4-22.3 0-20.5 21.7-27.6 44-27.6 15.6.1 30.6 2.7 43.6 7.2l-.1 4.8zm208.7 29.9v-136.2h-89.5v33.8h54.3v102.4h-71.1v34h171.8v-34h-65.5zm0-222.2h-39.5v52h39.5v-52zm107.9 256.2h88.5v-34h-27.2V-210.3c.8-28.2 23.9-50.7 52.2-50.7h1.2c16.4 0 34.4 8.4 34.4 37.9v69.6h-27.2v33.6h88.5v-34h-26V-233-234.3c0-33.9-27.5-61.4-61.4-61.4-1.3 0-2.6 0-3.7.1h.2c-1.4-.1-2.9-.1-4.4-.1-22.2 0-41.9 10.9-54.2 27.8v-21.9h-59.4v34h24.6v102.4h-26l-.1 33.9zm258.7-62.9c0 45.7 31.9 69.2 74.8 69.2h.2c28.8 0 54.6-12.5 72.5-32.4l-23.6-24.4-.1.1c-12.2 13.5-29.5 22.4-49.1 23.5h.2c-1.4.2-2.9.3-4.3.3-19.6 0-35.4-15.9-35.4-35.4 0-.7 0-1.3.1-1.9v-72.5h81.9v-34h-81.9v-61.4h-35.2v61.4H1873v34h44.4v73.5zm372.3-67.7l-.1-.4c-5.1-25.8-27.9-45.2-55.2-45.2-1.4 0-2.7 0-3.9.1h.1-2.4c-25.2 0-47.2 13.7-59.1 34.4v-28.7h-64.3v34h29.5v102.4h-37.5v34h131.7v-34h-59.2v-44 .2c-.1-1.5-.2-3-.2-4.5 0-33.1 26.9-60 60-60h.5c13.1 0 24.1 9.1 27 21.5l33.1-9.8zm180.1 80.4c-14.8 14.6-35.1 23.6-57.5 23.6h-2.1.2c-1.4.1-2.7.1-4.1.1-27.6 0-50.7-19.3-56.5-45.6h146.6v-5.9.3c.1-2.1.2-4.3.2-6.4 0-50.2-40.7-90.9-90.9-90.9h-.4.2c-1.4-.1-2.9-.1-4.3-.1-49 0-88.7 39.7-88.7 88.7v2.1c.2 49.8 40.7 90.1 90.5 90.1 2.3 0 4.6-.1 6.6-.2h-.2c1.2 0 2.3.1 3.5.1 31 0 59.3-12 80.3-31.6l-23.4-24.3zm-118.6-52.6l.1-.4c5.8-23.3 26.9-40.6 52.1-40.6h2c24.7 0 45.4 17.4 50.5 41h-104.7zm337.1 52.6c-14.8 14.6-35.1 23.6-57.5 23.6h-2.1.2c-1.4.1-2.7.1-4.1.1-27.6 0-50.7-19.3-56.5-45.6H2715v-5.9.3c.1-2.1.2-4.3.2-6.4 0-50.2-40.7-90.9-90.9-90.9h-.4.2c-1.4-.1-2.9-.1-4.3-.1-49 0-88.7 39.7-88.7 88.7v2.1c.2 49.8 40.7 90.1 90.5 90.1 2.2 0 4.4-.1 6.3-.2h-.2c1.2 0 2.3.1 3.5.1 31 0 59.3-12 80.3-31.6l-23.3-24.3zm-118.4-52.6l.1-.4c5.8-23.3 26.9-40.6 52.1-40.6h2c24.7 0 45.4 17.4 50.5 41h-104.7z" />
    </symbol>
    <symbol id="mastercard" viewBox="1107.8 -571 1268 983.3">
        <path d="M1542.1 347.1c22.7 3.7 36 11.3 36 31.1 0 19.9-17.4 34-47.5 34h.1-2.2c-16.1 0-31-5.1-43-13.5l10.7-17.6-.1-.1c9.3 7 20.9 11.2 33.5 11.2h2.3c15.6 0 23.8-6.8 23.8-12.7 0-5.9-5.7-9.2-18.2-10.9l-10.7-1.4c-23.1-3.3-35.8-13.7-35.8-30.7 0-20.7 16.8-33.4 43.2-33.4h-.1 2.8c14.7 0 28.4 4.1 39.7 10.9l-9.8 18.2.3.2c-9.6-5.6-20.7-9-32.7-9.2-13.1 0-20.5 5.3-20.5 12.3 0 7 7.8 9 17.6 10.2l10.6 1.4zm110.6 43.6c7.4-.3 14.2-2.6 19.9-6.1l6.6 19.5.2-.1c-8.2 5.1-17.9 8.1-28.3 8.1h-.2c-26.6 0-36-14.3-36-38.5V326h-20.5v-20.5h20.5V274h22.9v31.7h37.1v20.5h-37.1v47.1c0 10.5 3.6 17.4 14.9 17.4zm-357.2-87.6h-.1c.8-.1 1.6-.1 2.5-.1 21.4 0 38.7 17.3 38.7 38.7 0 1 0 1.9-.1 2.7v65.3h-22.1v-58c0-17.6-7.6-27.4-22.9-27.4h.1-1.5c-13.6 0-24.6 11-24.6 24.6 0 1.1.1 2.2.2 3.1v57.8h-22.9v-58c0-17.6-7.8-27.4-22.7-27.4h.1-1.3c-13.5 0-24.4 10.9-24.4 24.4 0 1.2.1 2.3.2 3.3v57.5h-22.9v-104h22.5v12.9l.1-.1c6.2-9.2 16.7-15.3 28.6-15.3h1.8-.1 1.7c13.8 0 25.9 7.3 32.8 18.5l.1-.2c7.3-11.1 19.9-18.3 34.2-18.3.6-.1 1.4-.1 2 0zm145.9 2.4h22.7v104.2h-22.7V397l-.1.1c-7.2 9.2-18.5 15.1-31.1 15.1h-1.8c-28.6-1.8-51.2-25.5-51.2-54.6s22.6-52.8 51.3-54.6h-.1 1.7c12.6 0 23.8 5.9 31.1 15.2l.2-12.7zm-29.9 86.3h.3c17.2 0 31.1-13.9 31.1-31.1 0-.8 0-1.6-.1-2.3 0-18.4-15-33.3-33.4-33.3S1376 340 1376 358.5s14.9 33.4 33.4 33.4c.7-.1 1.4-.1 2.1-.1zm743.2-73.6l.1-.1c5.4-8.9 15.1-14.8 26.3-14.8h.9c5.8 0 11.4 1.1 16.2 2.9l-7 20.5.2.1c-4.3-1.8-9-2.8-14-2.8h-.4c-14.7 0-22.1 9.6-22.1 26.8v58.8h-22.5v-104h22.3v12.6zm-409.6-15.1c27.2.5 49.2 22.7 49.2 50 0 1.6-.1 3.2-.2 4.5v8.8h-77.2v.1c1.7 14.3 13.9 25.4 28.7 25.4.9 0 1.7 0 2.5-.1 11.5-.2 22-4.2 30.3-10.9l11.1 16.8.1-.1c-11 9.2-25.1 14.7-40.5 14.7H1746.8c-29-1.3-52.1-25.3-52.1-54.6-.2-28.9 22-52.4 50.4-54.6zm26 45.5c-.3-14-11.8-25.2-25.8-25.2h-1.5c-14.2 0-25.9 11.1-26.8 25.2h54.1zm308.6-43.1h22.5v104.2h-22.5V397l-.1.1c-7.2 9.2-18.5 15.1-31.1 15.1h-1.8c-28.6-1.8-51.2-25.5-51.2-54.6s22.6-52.8 51.3-54.6h-.1 1.7c12.6 0 23.8 5.9 31.1 15.2l.2-12.7zm-30.5 86.3h.3c17.2 0 31.1-13.9 31.1-31.1 0-.8 0-1.6-.1-2.3 0-18.4-15-33.3-33.4-33.3s-33.4 14.9-33.4 33.4 14.9 33.4 33.4 33.4c.8-.1 1.5-.1 2.1-.1zm240.6-128h22.7v146h-22.7v-12.7l-.1.1c-7.2 9.2-18.5 15.1-31.1 15.1h-1.8c-28.6-1.8-51.2-25.5-51.2-54.6s22.6-52.8 51.3-54.6h-.1 1.7c12.6 0 23.8 5.9 31.1 15.2l.2-54.5zm-30.1 128h.3c17.2 0 31.1-13.9 31.1-31.1 0-.8 0-1.6-.1-2.3 0-18.4-15-33.3-33.4-33.3s-33.4 14.9-33.4 33.4 14.9 33.4 33.4 33.4c.8-.1 1.5-.1 2.1-.1zm-419.4-73.6l.1-.1c5.4-8.9 15.1-14.8 26.3-14.8h.7c5.8 0 11.4 1.1 16.2 2.9l-7 20.5.2.1c-4.3-1.8-9-2.8-14-2.8h-.4c-14.7 0-22.1 9.6-22.1 26.8v58.8h-22.5v-104h22.5v12.6zm105.9 6.2h-.1c-17.2 1.4-30.7 15.8-30.7 33.3s13.5 31.9 30.8 33.3c10.3-.1 19.7-3.6 27.2-9.4l10.9 18.2.1-.1c-9.4 7.9-21.6 12.6-34.9 12.6-.9 0-1.9 0-2.7-.1h.2c-1.2.1-2.3.1-3.5.1-30.2 0-54.7-24.5-54.7-54.7 0-30.2 24.5-54.7 54.7-54.7 1.2 0 2.3 0 3.3.1h-.1 2c13.3 0 25.4 4.7 34.8 12.5l-10.9 18.2.1.1c-7.6-5.8-17-9.4-27.3-9.5l.8.1zm-446.3-111.8h-.3c-216.4 0-391.8-175.4-391.8-391.8S1283.3-571 1499.6-571c91.9 0 176.4 31.6 242.4 84l-.8.6c66.8-52.8 151.2-84.4 242.9-84.4 216.4 0 391.8 175.4 391.8 391.8s-175.4 391.8-391.8 391.8c-91.8 0-176.2-31.5-242.1-83.8l.8-.6c-66.4 52.7-150.4 84.2-241.7 84.2h-1.2z" />
    </symbol>
    <symbol id="visa" viewBox="738.5 -551.2 2007 614.4">
        <path d="M1444.6 50.3h162.6l101.6-596.2h-162.4L1444.6 50.3zM2197.5-527l-22.1 129.2-14.5-7 2 .7c-36-15.3-75.6-23.7-117.1-23.7-2.3 0-4.5 0-6.5.1-63.5 0-93 26.4-93 51.2-.4 27.9 34.4 46.3 91.1 73.9 93.8 42.6 136.4 94.2 136.4 162-1.4 123.9-112.2 203.8-283 203.8h.2-4.7c-62.8 0-123.1-11.3-175.2-30.7l22.7-133.5 20.5 9.4-2.1-.9c44 20.8 93.2 32.4 145.1 32.4 3.5 0 7-.1 10-.1 46.7 0 97.3-17.2 97.3-58.2.4-26-21.5-45.5-84.2-73.9s-143.4-76.4-143.4-162c1-115.9 114.1-196.8 274.6-196.8h-.2 4.3c50.8 0 99.4 9 141.6 24.6l.2-.5zm416.5-13.8l131.5 595.6h-150.1s-15.6-68.8-20.5-89.3h-208.1c-6.3 15.8-34.2 89.5-34.2 89.5H2162l241.5-546.4c17-38.7 46.1-49.4 85-49.4H2614zm-200.5 384.5h136l-37.7-172.2-11.1-51.4c-8.2 22.3-21.5 56.9-21.5 56.9s-52.2 132.3-65.7 166.5v.2zM1309.3-541h172L1225.1 55h-171.8L907.8-466.4c102.4 51.6 195.6 154.8 225.3 250.1l17 81.9L1309.3-541zm-306.8-.4c35.4 1.4 63.9 12.7 73.7 50.4l56.9 274.2c-55.9-143.4-189.9-262.6-394.7-311.9l2-12.5h262.1v-.2zm-59.2 92.6l-49.2-22.7.2.1c10.5 5 18.3 14.9 20.3 26.9l28.7-4.3z" />
    </symbol>
    <symbol id="pvehero" viewBox="0 0 1500 1500">
        <path d="M1257.777 251.936L951.658 75.183c-124.776-72.037-278.54-72.037-403.316 0L242.227 251.936C117.432 323.972 40.548 457.147 40.548 601.216v353.507c0 144.111 76.884 277.249 201.679 349.281l277.721 160.351c33.423 19.318 74.599 19.318 108.022 0 33.412-19.276 54.005-54.951 54.005-93.542V952.85c-103.583 15.206-182.979 68.883-182.979 185.455v104.521l-164.165-94.784c-69.839-40.307-112.898-114.856-112.898-195.55v-349c0-80.696 43.059-155.206 112.898-195.553l164.165-94.782v104.56c0 116.57 79.396 170.249 182.979 185.414V405.745L750 360.409l68.024 45.336v197.386c103.583-15.165 182.978-68.844 182.978-185.414v-104.56l164.166 94.782c69.858 40.347 112.898 114.856 112.898 195.553v349c0 80.693-43.04 155.243-112.898 195.55l-164.166 94.784v-104.521c0-116.572-79.395-170.249-182.978-185.455v417.964c0 38.591 20.594 74.266 54.006 93.542 33.425 19.318 74.599 19.318 108.024 0l277.723-160.351c124.793-72.032 201.675-205.17 201.675-349.281V601.216c0-144.069-76.882-277.244-201.675-349.28z" />
    </symbol>
    <symbol id="arrow-from-right" viewBox="0 0 448 512">
        <path d="M448 88v336c0 13.3-10.7 24-24 24h-24c-13.3 0-24-10.7-24-24V88c0-13.3 10.7-24 24-24h24c13.3 0 24 10.7 24 24zM193.5 357.6L127.9 292H328c13.3 0 24-10.7 24-24v-24c0-13.3-10.7-24-24-24H127.9l65.6-65.6c9.4-9.4 9.4-24.6 0-33.9l-17-17c-9.4-9.4-24.6-9.4-33.9 0L7 239c-9.4 9.4-9.4 24.6 0 33.9l135.5 135.5c9.4 9.4 24.6 9.4 33.9 0l17-17c9.4-9.3 9.4-24.5.1-33.8z" />
    </symbol>
    <symbol id="paper-plane" viewBox="0 0 512 512">
        <path d="M476 3.2L12.5 270.6c-18.1 10.4-15.8 35.6 2.2 43.2L121 358.4l287.3-253.2c5.5-4.9 13.3 2.6 8.6 8.3L176 407v80.5c0 23.6 28.5 32.9 42.5 15.8L282 426l124.6 52.2c14.2 6 30.4-2.9 33-18.2l72-432C515 7.8 493.3-6.8 476 3.2z"></path>
    </symbol>
    <symbol id="power-off" viewBox="0 0 512 512">
        <path d="M400 54.1c63 45 104 118.6 104 201.9 0 136.8-110.8 247.7-247.5 248C120 504.3 8.2 393 8 256.4 7.9 173.1 48.9 99.3 111.8 54.2c11.7-8.3 28-4.8 35 7.7L162.6 90c5.9 10.5 3.1 23.8-6.6 31-41.5 30.8-68 79.6-68 134.9-.1 92.3 74.5 168.1 168 168.1 91.6 0 168.6-74.2 168-169.1-.3-51.8-24.7-101.8-68.1-134-9.7-7.2-12.4-20.5-6.5-30.9l15.8-28.1c7-12.4 23.2-16.1 34.8-7.8zM296 264V24c0-13.3-10.7-24-24-24h-32c-13.3 0-24 10.7-24 24v240c0 13.3 10.7 24 24 24h32c13.3 0 24-10.7 24-24z" />
    </symbol>
    <symbol id="question" viewBox="0 0 384 512">
        <path d="M202.021 0C122.202 0 70.503 32.703 29.914 91.026c-7.363 10.58-5.093 25.086 5.178 32.874l43.138 32.709c10.373 7.865 25.132 6.026 33.253-4.148 25.049-31.381 43.63-49.449 82.757-49.449 30.764 0 68.816 19.799 68.816 49.631 0 22.552-18.617 34.134-48.993 51.164-35.423 19.86-82.299 44.576-82.299 106.405V320c0 13.255 10.745 24 24 24h72.471c13.255 0 24-10.745 24-24v-5.773c0-42.86 125.268-44.645 125.268-160.627C377.504 66.256 286.902 0 202.021 0zM192 373.459c-38.196 0-69.271 31.075-69.271 69.271 0 38.195 31.075 69.27 69.271 69.27s69.271-31.075 69.271-69.271-31.075-69.27-69.271-69.27z" />
    </symbol>
    <symbol id="hourglass-end" viewBox="0 0 384 512">
        <path d="M360 64c13.255 0 24-10.745 24-24V24c0-13.255-10.745-24-24-24H24C10.745 0 0 10.745 0 24v16c0 13.255 10.745 24 24 24 0 90.965 51.016 167.734 120.842 192C75.016 280.266 24 357.035 24 448c-13.255 0-24 10.745-24 24v16c0 13.255 10.745 24 24 24h336c13.255 0 24-10.745 24-24v-16c0-13.255-10.745-24-24-24 0-90.965-51.016-167.734-120.842-192C308.984 231.734 360 154.965 360 64zM192 208c-57.787 0-104-66.518-104-144h208c0 77.945-46.51 144-104 144z" />
    </symbol>
    <symbol id="other" viewBox="0 0 509.02 512">
        <path d="M75.37 370.3c2.14 15.83-5.77 31.98-20.94 39.29-18.85 9.1-41.55 1.17-50.68-17.68-9.08-18.83-1.13-41.58 17.7-50.65 7.05-3.4 14.63-4.42 21.85-3.38-78.28-111.35 52-190.53 52-190.53-5.86 43.04-8.24 91.16-8.24 91.16-67.31 41.45.92 64.06 39.81 72.87 19.77 53.62 71.18 91.94 131.66 91.94 1.92 0 3.77-.21 5.67-.28l.11 18.86c-99.22 1.39-158.7-29.14-188.94-51.6zM183.38 42.6c.89-7-.1-14.33-3.39-21.15-9.1-18.84-31.82-26.78-50.66-17.69-18.86 9.1-26.8 31.83-17.69 50.68 6.98 14.47 22.02 22.42 37.18 21.23-22.55 29.91-53.83 89.57-52.42 190.03l21.84-.15c-.02-.9-.14-1.77-.14-2.68 0-58.95 36.37-109.33 87.85-130.16 8.01-37.75 30.74-114.3 73.84-44.29 0 0 48.14 2.38 91.18 8.24 0-.01-77.84-128.03-187.59-54.06zm304.18 134.17c18.84-9.09 26.81-31.81 17.7-50.65-9.1-18.85-31.83-26.77-50.67-17.69-15.27 7.37-23.19 23.69-20.87 39.64-31.71-21.94-89.84-49.05-183.45-47.74l.14 22.5c2.7-.15 5.39-.41 8.14-.41 59.3 0 109.9 36.8 130.49 88.76 39.1 9.02 105.06 31.58 38.46 72.54 0 0-2.34 48.13-8.21 91.16 0 0 133.45-81.16 48.96-194.61 6.43.5 13.07-.49 19.31-3.5zM373.05 436.24c21.43-32.46 46.42-89.69 45.14-179.66l-19.52.14c.08 2.06.3 4.07.3 6.15 0 60.27-38.05 111.55-91.39 131.45-8.85 38.95-31.44 106.66-72.77 39.49 0 0-48.12-2.34-91.19-8.22 0 0 79.92 131.34 191.9 50.97.31 4.72 1.45 9.45 3.64 13.97 9.06 18.89 31.8 26.78 50.64 17.71 18.86-9.1 26.79-31.83 17.7-50.65-6.56-13.62-20.26-21.43-34.45-21.35z" />
    </symbol>
    <symbol id="bars" viewBox="0 0 448 512">
      <path d="M16 132h416c8.837 0 16-7.163 16-16V76c0-8.837-7.163-16-16-16H16C7.163 60 0 67.163 0 76v40c0 8.837 7.163 16 16 16zm0 160h416c8.837 0 16-7.163 16-16v-40c0-8.837-7.163-16-16-16H16c-8.837 0-16 7.163-16 16v40c0 8.837 7.163 16 16 16zm0 160h416c8.837 0 16-7.163 16-16v-40c0-8.837-7.163-16-16-16H16c-8.837 0-16 7.163-16 16v40c0 8.837 7.163 16 16 16z" />
    </symbol>
</svg>
