<svg xmlns="http://www.w3.org/2000/svg" style="display: none;">
    <symbol id="other" viewBox="0 0 640 512">
        <path fill="currentColor" d="M480 96H160C71.6 96 0 167.6 0 256s71.6 160 160 160c44.8 0 85.2-18.4 114.2-48h91.5c29 29.6 69.5 48 114.2 48 88.4 0 160-71.6 160-160S568.4 96 480 96zM256 276c0 6.6-5.4 12-12 12h-52v52c0 6.6-5.4 12-12 12h-40c-6.6 0-12-5.4-12-12v-52H76c-6.6 0-12-5.4-12-12v-40c0-6.6 5.4-12 12-12h52v-52c0-6.6 5.4-12 12-12h40c6.6 0 12 5.4 12 12v52h52c6.6 0 12 5.4 12 12v40zm184 68c-26.5 0-48-21.5-48-48s21.5-48 48-48 48 21.5 48 48-21.5 48-48 48zm80-80c-26.5 0-48-21.5-48-48s21.5-48 48-48 48 21.5 48 48-21.5 48-48 48z" />
    </symbol>
    <symbol id="payment" viewBox="0 0 576 512">
        <path d="M528 32H48C21.5 32 0 53.5 0 80v352c0 26.5 21.5 48 48 48h480c26.5 0 48-21.5 48-48V80c0-26.5-21.5-48-48-48zM48 64h480c8.8 0 16 7.2 16 16v48H32V80c0-8.8 7.2-16 16-16zm480 384H48c-8.8 0-16-7.2-16-16V224h512v208c0 8.8-7.2 16-16 16zm-336-84v8c0 6.6-5.4 12-12 12h-72c-6.6 0-12-5.4-12-12v-8c0-6.6 5.4-12 12-12h72c6.6 0 12 5.4 12 12zm192 0v8c0 6.6-5.4 12-12 12H236c-6.6 0-12-5.4-12-12v-8c0-6.6 5.4-12 12-12h136c6.6 0 12 5.4 12 12z" />
    </symbol>
    <symbol id="youtube" viewBox="0 0 512 512">
        <path d="M501.3 120.3c-5.9-22.2-23.2-39.6-45.3-45.6C416.1 64 256 64 256 64S95.9 64 56 74.8c-22 5.9-39.4 23.4-45.3 45.6C0 160.5 0 244.4 0 244.4s0 83.8 10.7 124c5.9 22.2 23.2 38.9 45.3 44.8C95.9 424 256 424 256 424s160.1 0 200-10.8c22-5.9 39.4-22.7 45.3-44.8 10.7-40.2 10.7-124 10.7-124s0-83.9-10.7-124.1zM203.6 320.5V168.2l133.8 76.1-133.8 76.2z" />
    </symbol>
    <symbol id="windows" viewBox="0 0 100 100">
        <path d="M81.5 5.5c-.7-.5-1.5-.6-2.3-.4l-60 20c-1 .3-1.7 1.3-1.7 2.4v45c0 1.1.7 2 1.7 2.4l60 20c1.6.5 3.3-.7 3.3-2.4v-85c0-.8-.4-1.6-1-2-.7-.5.6.4 0 0zM43.8 77.8l-21.3-7.1V52.5h21.3v25.3zm0-30.3H22.5V29.3l21.3-7.1v25.3zM77.5 89l-28.8-9.6V52.5h28.8V89zm0-41.5H48.8V20.6L77.5 11v36.5z" />
    </symbol>
    <symbol id="filter" viewBox="0 0 512 512">
        <path d="M487.976 0H24.028C2.71 0-8.047 25.866 7.058 40.971L192 225.941V432c0 7.831 3.821 15.17 10.237 19.662l80 55.98C298.02 518.69 320 507.493 320 487.98V225.941l184.947-184.97C520.021 25.896 509.338 0 487.976 0z" />
    </symbol>
    <symbol id="playstation" viewBox="0 0 576 512">
        <path d="M570.9 372.3c-11.3 14.2-38.8 24.3-38.8 24.3L327 470.2v-54.3l150.9-53.8c17.1-6.1 19.8-14.8 5.8-19.4-13.9-4.6-39.1-3.3-56.2 2.9L327 381.1v-56.4c23.2-7.8 47.1-13.6 75.7-16.8 40.9-4.5 90.9.6 130.2 15.5 44.2 14 49.2 34.7 38 48.9zm-224.4-92.5v-139c0-16.3-3-31.3-18.3-35.6-11.7-3.8-19 7.1-19 23.4v347.9l-93.8-29.8V32c39.9 7.4 98 24.9 129.2 35.4C424.1 94.7 451 128.7 451 205.2c0 74.5-46 102.8-104.5 74.6zM43.2 410.2c-45.4-12.8-53-39.5-32.3-54.8 19.1-14.2 51.7-24.9 51.7-24.9l134.5-47.8v54.5l-96.8 34.6c-17.1 6.1-19.7 14.8-5.8 19.4 13.9 4.6 39.1 3.3 56.2-2.9l46.4-16.9v48.8c-51.6 9.3-101.4 7.3-153.9-10z" />
    </symbol>
    <symbol id="xbox" viewBox="0 0 512 512">
        <path d="M369.9 318.2c44.3 54.3 64.7 98.8 54.4 118.7-7.9 15.1-56.7 44.6-92.6 55.9-29.6 9.3-68.4 13.3-100.4 10.2-38.2-3.7-76.9-17.4-110.1-39C93.3 445.8 87 438.3 87 423.4c0-29.9 32.9-82.3 89.2-142.1 32-33.9 76.5-73.7 81.4-72.6 9.4 2.1 84.3 75.1 112.3 109.5zM188.6 143.8c-29.7-26.9-58.1-53.9-86.4-63.4-15.2-5.1-16.3-4.8-28.7 8.1-29.2 30.4-53.5 79.7-60.3 122.4-5.4 34.2-6.1 43.8-4.2 60.5 5.6 50.5 17.3 85.4 40.5 120.9 9.5 14.6 12.1 17.3 9.3 9.9-4.2-11-.3-37.5 9.5-64 14.3-39 53.9-112.9 120.3-194.4zm311.6 63.5C483.3 127.3 432.7 77 425.6 77c-7.3 0-24.2 6.5-36 13.9-23.3 14.5-41 31.4-64.3 52.8C367.7 197 427.5 283.1 448.2 346c6.8 20.7 9.7 41.1 7.4 52.3-1.7 8.5-1.7 8.5 1.4 4.6 6.1-7.7 19.9-31.3 25.4-43.5 7.4-16.2 15-40.2 18.6-58.7 4.3-22.5 3.9-70.8-.8-93.4zM141.3 43C189 40.5 251 77.5 255.6 78.4c.7.1 10.4-4.2 21.6-9.7 63.9-31.1 94-25.8 107.4-25.2-63.9-39.3-152.7-50-233.9-11.7-23.4 11.1-24 11.9-9.4 11.2z" />
    </symbol>
    <symbol id="battle.net" viewBox="0 -2 32 32">
        <path d="M26.577,14.339c0,0,2.304,0.117,2.304-1.238c0-1.769-3.068-3.364-3.068-3.364s0.48-1.019,0.78-1.588 c0.3-0.569,1.145-2.791,1.22-3.299c0.095-0.638-0.05-0.838-0.05-0.838c-0.208,1.367-2.436,5.303-2.613,5.438 c-2.174-1.018-5.159-1.301-5.159-1.301S17.069,2,14.32,2c-2.725,0-2.712,5.265-2.712,5.265s-0.77-1.493-1.737-1.493 c-1.413,0-1.877,2.136-1.877,4.451c-2.791,0-5.138,0.623-5.348,0.683c-0.21,0.06-0.87,0.54-0.57,0.479 c0.61-0.195,3.478-0.639,5.988-0.421c0.138,2.201,1.424,5.067,1.424,5.067s-2.758,3.991-2.758,6.841c0,0.75,0.327,2.122,2.307,2.122 c1.658,0,3.52-0.996,3.871-1.199c-0.306,0.437-0.533,1.268-0.533,1.649c0,0.313,0.186,1.199,1.464,1.199 c1.643,0,3.478-1.258,3.478-1.258s1.732,2.876,3.213,4.195c0.399,0.355,0.781,0.42,0.781,0.42s-1.471-1.415-3.409-5.061 c1.801-1.112,3.677-3.735,3.677-3.735s0.221,0.007,1.931,0.007c2.68,0,6.488-0.563,6.488-2.691 C30,16.323,26.577,14.339,26.577,14.339z M26.876,13.017c0,0.776-0.74,0.767-0.74,0.767l-0.562,0.037c0,0-1.068-0.561-1.714-0.823 c0,0,1.002-1.543,1.236-1.974C25.275,11.127,26.876,12.128,26.876,13.017z M15.662,5.097c1.26,0,3.058,2.971,3.058,2.971 s-2.807-0.251-5.116,1.105C13.667,7.034,14.388,5.097,15.662,5.097z M10.67,7.505c0.4,0,0.792,0.486,0.954,0.899 c0,0.272,0.142,1.864,0.142,1.864l-2.313-0.087C9.452,8.096,10.27,7.505,10.67,7.505z M10.43,21.977 c-1.264,0-1.525-0.704-1.525-1.337c0-1.434,1.146-3.44,1.146-3.44s1.283,2.698,3.525,3.837 C12.464,21.689,11.546,21.977,10.43,21.977z M14.535,24.802c-0.886,0-0.994-0.574-0.994-0.708c0-0.412,0.322-0.898,0.322-0.898 s1.49-1.006,1.584-1.113l1.101,2.052C16.548,24.135,15.421,24.802,14.535,24.802z M17.299,23.683 c-0.539-0.942-0.937-1.926-0.937-1.926s2.216,0.143,3.406-1.086c-0.742,0.334-1.924,0.754-3.301,0.627 c2.878-2.532,4.556-4.367,5.976-6.263c-0.123-0.147-0.771-0.6-0.931-0.676c-0.857,1.031-4.188,4.59-7.274,6.352 c-3.906-2.129-4.727-8.391-4.81-9.692l2.134,0.205c0,0-0.802,1.42-0.802,2.466s0.125,1.1,0.125,1.1s-0.027-1.822,1.1-3.229 c0.857,4.563,1.752,6.9,2.449,8.294c0.355-0.147,1.017-0.44,1.017-0.44s-1.972-5.676-1.861-9.517 c0.894-0.477,2.217-0.969,3.711-0.969c3.931,0,7.091,1.69,7.091,1.69l-1.237,1.725c0,0-1.102-1.994-2.657-2.349 c0.82,0.611,1.739,1.419,2.217,2.581c-3.257-1.272-7.188-1.945-8.45-2.092c-0.11,0.465-0.095,1.129-0.095,1.129 s5.272,0.972,9.108,3.165C23.251,19.573,18.022,23.256,17.299,23.683z M22.293,20.099c0,0,1.637-2.145,1.611-4.988 c0,0,2.644,1.636,2.644,3.232C26.548,20.126,22.293,20.099,22.293,20.099z" />
    </symbol>
    <symbol id="steam" viewBox="0 0 448 512">
        <path d="M185.2 356.5c7.7-18.5-1-39.7-19.6-47.4l-29.5-12.2c11.4-4.3 24.3-4.5 36.4.5 12.2 5.1 21.6 14.6 26.7 26.7 5 12.2 5 25.6-.1 37.7-10.5 25.1-39.4 37-64.6 26.5-11.6-4.8-20.4-13.6-25.4-24.2l28.5 11.8c18.6 7.8 39.9-.9 47.6-19.4zM400 32H48C21.5 32 0 53.5 0 80v160.7l116.6 48.1c12-8.2 26.2-12.1 40.7-11.3l55.4-80.2v-1.1c0-48.2 39.3-87.5 87.6-87.5s87.6 39.3 87.6 87.5c0 49.2-40.9 88.7-89.6 87.5l-79 56.3c1.6 38.5-29.1 68.8-65.7 68.8-31.8 0-58.5-22.7-64.5-52.7L0 319.2V432c0 26.5 21.5 48 48 48h352c26.5 0 48-21.5 48-48V80c0-26.5-21.5-48-48-48zm-99.7 222.5c-32.2 0-58.4-26.1-58.4-58.3s26.2-58.3 58.4-58.3 58.4 26.2 58.4 58.3-26.2 58.3-58.4 58.3zm.1-14.6c24.2 0 43.9-19.6 43.9-43.8 0-24.2-19.6-43.8-43.9-43.8-24.2 0-43.9 19.6-43.9 43.8 0 24.2 19.7 43.8 43.9 43.8z" />
    </symbol>
    <symbol id="origin" viewBox="0 0 50 50">
        <path d="M25 6c-.326 0-.662.011-1.013.032.459-1.907 1.761-3.755 1.776-3.777l.083-.141c.289-.589.161-1.28-.317-1.719-.488-.449-1.203-.519-1.778-.175-.28.168-.578.341-.89.522C19.228 2.855 13.738 6.05 8.644 15.35l-.204.376.003.009C7.756 17.079 6 20.915 6 25c0 10.477 8.523 19 19 19 .327 0 .663-.011 1.013-.032-.459 1.907-1.761 3.755-1.776 3.777l-.083.141c-.289.588-.161 1.279.317 1.719.282.259.639.392 1.001.392.265 0 .534-.071.777-.217.28-.168.578-.341.89-.522 3.632-2.112 9.119-5.306 14.211-14.599C41.631 34.175 44 29.965 44 25c0-10.477-8.523-19-19-19zm0 26c-3.866 0-7-3.134-7-7s3.134-7 7-7 7 3.134 7 7-3.134 7-7 7z" />
    </symbol>
    <symbol id="sync-alt" viewBox="0 0 512 512">
        <path d="M483.515 28.485L431.35 80.65C386.475 35.767 324.485 8 256 8 123.228 8 14.824 112.338 8.31 243.493 7.971 250.311 13.475 256 20.301 256h28.045c6.353 0 11.613-4.952 11.973-11.294C66.161 141.649 151.453 60 256 60c54.163 0 103.157 21.923 138.614 57.386l-54.128 54.129c-7.56 7.56-2.206 20.485 8.485 20.485H492c6.627 0 12-5.373 12-12V36.971c0-10.691-12.926-16.045-20.485-8.486zM491.699 256h-28.045c-6.353 0-11.613 4.952-11.973 11.294C445.839 370.351 360.547 452 256 452c-54.163 0-103.157-21.923-138.614-57.386l54.128-54.129c7.56-7.56 2.206-20.485-8.485-20.485H20c-6.627 0-12 5.373-12 12v143.029c0 10.691 12.926 16.045 20.485 8.485L80.65 431.35C125.525 476.233 187.516 504 256 504c132.773 0 241.176-104.338 247.69-235.493.339-6.818-5.165-12.507-11.991-12.507z" />
    </symbol>
    <symbol id="frown" viewBox="0 0 512 512">
        <path d="M368 192c0 26.51-21.49 48-48 48s-48-21.49-48-48a47.789 47.789 0 0 1 5.647-22.603v.015c0 10.916 8.849 19.765 19.765 19.765s19.765-8.849 19.765-19.765-8.849-19.765-19.765-19.765h-.015A47.789 47.789 0 0 1 320 144c26.51 0 48 21.49 48 48zm-176-48a47.789 47.789 0 0 0-22.603 5.647h.015c10.916 0 19.765 8.849 19.765 19.765s-8.849 19.765-19.765 19.765-19.765-8.849-19.765-19.765v-.015A47.789 47.789 0 0 0 144 192c0 26.51 21.49 48 48 48s48-21.49 48-48-21.49-48-48-48zm176.551 212.661c-59.124-91.452-165.846-91.599-225.064 0-11.502 17.79 15.381 35.148 26.873 17.373 46.626-72.119 124.864-71.854 171.318 0 11.327 17.525 38.547.684 26.873-17.373zM256 40C136.055 40 40 137.336 40 256c0 119.945 97.336 216 216 216 119.945 0 216-97.336 216-216 0-119.945-97.336-216-216-216m0-32c136.967 0 248 111.033 248 248S392.967 504 256 504 8 392.967 8 256 119.033 8 256 8z" />
    </symbol>
    <symbol id="desktop" viewBox="0 0 576 512">
        <path d="M528 0H48C21.5 0 0 21.5 0 48v288c0 26.5 21.5 48 48 48h480c26.5 0 48-21.5 48-48V48c0-26.5-21.5-48-48-48zm-6 336H54c-3.3 0-6-2.7-6-6V54c0-3.3 2.7-6 6-6h468c3.3 0 6 2.7 6 6v276c0 3.3-2.7 6-6 6zm-42 152c0 13.3-10.7 24-24 24H120c-13.3 0-24-10.7-24-24s10.7-24 24-24h98.7l18.6-55.8c1.6-4.9 6.2-8.2 11.4-8.2h78.7c5.2 0 9.8 3.3 11.4 8.2l18.6 55.8H456c13.3 0 24 10.7 24 24z" />
    </symbol>
    <symbol id="gavel" viewBox="0 0 512 512">
        <path d="M500.892 186.561l-20.633-20.643c-12.912-12.912-32.416-14.337-46.732-5.448L351.53 78.474c8.888-14.315 7.465-33.82-5.448-46.731L325.44 11.108c-14.808-14.808-38.781-14.813-53.592 0L158.315 124.633c-14.774 14.775-14.774 38.815 0 53.591l20.643 20.644c12.659 12.657 32.118 14.473 46.725 5.439l29.692 29.692-58.803 58.803-8.082-8.082c-16.933-16.934-44.484-16.932-61.417 0L12.699 399.073c-16.932 16.933-16.932 44.484 0 61.417l38.81 38.811c16.931 16.932 44.482 16.933 61.417 0L227.28 384.927c16.932-16.933 16.932-44.484 0-61.417l-8.081-8.081 58.803-58.803 29.692 29.692c-9.031 14.607-7.218 34.067 5.44 46.725l20.643 20.643c14.776 14.776 38.815 14.776 53.591 0l113.525-113.533c14.808-14.809 14.811-38.781-.001-53.592zM204.653 362.3L90.3 476.652c-4.456 4.458-11.707 4.457-16.163 0v.001l-38.79-38.79c-4.456-4.456-4.456-11.707 0-16.163L149.7 307.348c4.456-4.457 11.706-4.458 16.162-.001l38.79 38.79c4.456 4.456 4.456 11.707.001 16.163zm273.62-144.776L364.74 331.058a5.896 5.896 0 0 1-8.337 0l-20.643-20.643a5.902 5.902 0 0 1-.001-8.336l16.478-16.474-125.842-125.841-16.474 16.475a5.902 5.902 0 0 1-8.336.001l-20.643-20.643a5.903 5.903 0 0 1 0-8.337L294.476 33.727a5.896 5.896 0 0 1 8.337 0l20.643 20.644a5.893 5.893 0 0 1-.001 8.336l-16.472 16.475L432.82 205.019l16.477-16.473a5.893 5.893 0 0 1 8.335 0l20.643 20.643v.001a5.893 5.893 0 0 1-.002 8.334z" />
    </symbol>
    <symbol id="plus" viewBox="0 0 448 512">
        <path d="M448 294.2v-76.4c0-13.3-10.7-24-24-24H286.2V56c0-13.3-10.7-24-24-24h-76.4c-13.3 0-24 10.7-24 24v137.8H24c-13.3 0-24 10.7-24 24v76.4c0 13.3 10.7 24 24 24h137.8V456c0 13.3 10.7 24 24 24h76.4c13.3 0 24-10.7 24-24V318.2H424c13.3 0 24-10.7 24-24z" />
    </symbol>
    <symbol id="minus" viewBox="0 0 448 512">
        <path d="M424 318.2c13.3 0 24-10.7 24-24v-76.4c0-13.3-10.7-24-24-24H24c-13.3 0-24 10.7-24 24v76.4c0 13.3 10.7 24 24 24h400z" />
    </symbol>
    <symbol id="shield-check" viewBox="0 0 512 512">
        <path d="M466.461 83.692l-192-80a48 48 0 0 0-36.923 0l-192 80A48 48 0 0 0 16 128c0 198.487 114.495 335.713 221.539 380.308a48 48 0 0 0 36.923 0C360.066 472.645 496 349.282 496 128a48 48 0 0 0-29.539-44.308zM255.998 463.999C158.451 423.361 64 297.278 64 128l191.999-80L448 128c0 173.804-98.398 297.017-192.002 335.999zM403.82 190.276L231.232 361.48c-4.705 4.667-12.303 4.637-16.97-.068l-90.781-91.516c-4.667-4.705-4.637-12.303.069-16.971l22.718-22.536c4.705-4.667 12.303-4.637 16.97.069l59.792 60.277L364.382 150.52c4.705-4.667 12.303-4.637 16.97.068l22.536 22.718c4.668 4.705 4.637 12.303-.068 16.97z" />
    </symbol>
    <symbol id="calendar-alt" viewBox="0 0 448 512">
        <path d="M148 288h-40c-6.6 0-12-5.4-12-12v-40c0-6.6 5.4-12 12-12h40c6.6 0 12 5.4 12 12v40c0 6.6-5.4 12-12 12zm108-12v-40c0-6.6-5.4-12-12-12h-40c-6.6 0-12 5.4-12 12v40c0 6.6 5.4 12 12 12h40c6.6 0 12-5.4 12-12zm96 0v-40c0-6.6-5.4-12-12-12h-40c-6.6 0-12 5.4-12 12v40c0 6.6 5.4 12 12 12h40c6.6 0 12-5.4 12-12zm-96 96v-40c0-6.6-5.4-12-12-12h-40c-6.6 0-12 5.4-12 12v40c0 6.6 5.4 12 12 12h40c6.6 0 12-5.4 12-12zm-96 0v-40c0-6.6-5.4-12-12-12h-40c-6.6 0-12 5.4-12 12v40c0 6.6 5.4 12 12 12h40c6.6 0 12-5.4 12-12zm192 0v-40c0-6.6-5.4-12-12-12h-40c-6.6 0-12 5.4-12 12v40c0 6.6 5.4 12 12 12h40c6.6 0 12-5.4 12-12zm96-260v352c0 26.5-21.5 48-48 48H48c-26.5 0-48-21.5-48-48V112c0-26.5 21.5-48 48-48h48V12c0-6.6 5.4-12 12-12h40c6.6 0 12 5.4 12 12v52h128V12c0-6.6 5.4-12 12-12h40c6.6 0 12 5.4 12 12v52h48c26.5 0 48 21.5 48 48zm-48 346V160H48v298c0 3.3 2.7 6 6 6h340c3.3 0 6-2.7 6-6z" />
    </symbol>
    <symbol id="paper-plane" viewBox="0 0 512 512">
        <path d="M464 4.3L16 262.7C-7 276-4.7 309.9 19.8 320L160 378v102c0 30.2 37.8 43.3 56.7 20.3l60.7-73.8 126.4 52.2c19.1 7.9 40.7-4.2 43.8-24.7l64-417.1C515.7 10.2 487-9 464 4.3zM192 480v-88.8l54.5 22.5L192 480zm224-30.9l-206.2-85.2 199.5-235.8c4.8-5.6-2.9-13.2-8.5-8.4L145.5 337.3 32 290.5 480 32l-64 417.1z" />
    </symbol>
    <symbol id="fps" viewBox="0 0 100 100">
        <path d="M95 45.909H82.443c-1.855-14.775-13.577-26.497-28.352-28.352V5h-8.182v12.557c-14.775 1.855-26.497 13.577-28.352 28.352H5v8.182h12.557c1.855 14.775 13.577 26.497 28.352 28.352V95h8.182V82.443c14.775-1.855 26.497-13.577 28.352-28.352H95v-8.182zM54.091 74.177V62.273h-8.182v11.905C35.638 72.45 27.55 64.362 25.823 54.091h11.905v-8.182H25.823C27.55 35.638 35.638 27.55 45.91 25.822v11.905h8.182V25.823c10.271 1.727 18.359 9.815 20.087 20.087H62.273v8.182h11.905c-1.728 10.27-9.816 18.358-20.087 20.085z" />
    </symbol>
    <symbol id="co-op" viewBox="0 0 64 64">
        <circle cx="13.825" cy="23.115" r="8.015" />
        <path d="M27.649 41.803c0-7.468-8.151-7.605-8.151-7.605H8.151S0 34.289 0 41.803v7.094h27.649v-7.094z" />
        <circle cx="50.175" cy="23.115" r="8.015" />
        <path d="M55.849 34.198H44.502s-8.151.091-8.151 7.605v7.094H64v-7.094c0-7.468-8.151-7.605-8.151-7.605z" />
    </symbol>
    <symbol id="open world" viewBox="0 0 100 100">
        <path d="M12.2 80.1h75.5c.7 0 1.4-.4 1.7-1 .4-.6.4-1.4 0-2L78.6 57.7 69.2 41c-.4-.6-1-1-1.7-1s-1.4.4-1.7 1l-4 7.1-.1-.2-11.6-26.8c-.3-.7-1-1.2-1.8-1.2s-1.5.5-1.8 1.2l-5.1 11.8-1.4-2.4c-.4-.6-1-1-1.8-1-.7 0-1.4.4-1.8 1l-9.6 17.1-16.3 29.5c-.3.6-.3 1.4 0 2 .4.6 1 1 1.7 1zm55.2-34l6 10.6h-8l-1.7-4 3.7-6.6zM38.3 35.6l1.6 2.8c.4.7 1.1 1.1 1.9 1 .8 0 1.4-.5 1.7-1.2L48.3 27l7.3 17 1.1 2.6H32.1l6.2-11z" />
    </symbol>
    <symbol id="violent" viewBox="0 0 100 100">
        <path stroke="#FFF" stroke-miterlimit="10" d="M8-14.5h10M-179 16.5h17" />
        <path d="M-170.802 31.318h8.721v8.642h-8.721z" />
        <path d="M-164.455 42.312h4.747v-4.703h-4.747v4.703zm5.189.437h-5.63V37.17h5.63v5.579zm-6.955 1.313h8.279v-8.203h-8.279v8.203zm8.721.438h-9.163v-9.079h9.163V44.5z" />
        <path d="M-166.149 44.133l-.143-.142 8.279-8.204.142.142z" />
        <path d="M-126.514 34.815h10.261V45h-10.261zM-126.477 31.766h.522v2.337h-.522zM-116.812 31.766h.523v2.337h-.523z" />
        <path d="M-127 32.337h11.233v.572H-127zM-83.805 33.844H-73.5V44h-10.305zM-76.809 28.707h3.308v3.261h-3.308z" />
        <path stroke="#FFF" stroke-miterlimit="10" d="M-178.5 22.5h30v30h-30zM-136.5 22.5h30v30h-30zM-93.5 22.5h30v30h-30zM-49.5 22.5h30v30h-30z" />
        <g fill-rule="evenodd" clip-rule="evenodd"><path d="M5 74.91l25.477 23.47 8.249-9.516s2.556.796 5.896 0c5.503-2.78 25.814-24.615 25.814-29.579 0-2.377-2.443-4.854-5.145-8.574v4.931l-3.947 4.36-1.254-1.379 3.621-4.573.582-5.492c-1.996-2.634-4.27-5.447-6.533-8.137l-.752 7.812-3.945 4.36-1.389-1.39 3.629-4.562.865-8.104c-2.053-2.41-4.293-4.831-5.953-6.668l-.561 8.955-3.945 4.36-1.4-1.39 3.631-4.562.213-9.089c-.773-.841-1.816-3.217-5.605-3.217-3.508 0-4.349 1.827-5.649 3.363v7.879l-8.351 9.135-1.983-1.458 8.227-8.989v-6.098c-4.36-1.983-8.025 1.009-8.025 1.009S13.003 47.426 11.625 50.8c-1.379 3.374 1.176 15.467 1.176 15.467L5 74.91z" /><path d="M19.021 30.635c.347.168-1.053-25.41-1.053-25.41l14.728 12.7L38.2 1.292l9.213 14.515L61.322 1l-1.826 20.601L83.168 9.462 72.531 30.434l22.137-.291-15.701 13.191 15.566 7.129-12.418 7.688L92.639 72.97l-24.188 2.119 18.371-5.01-12.06-14.044 12.9-5.292s-16.756-7.409-17.115-7.409c-.348 0 13.754-9.684 13.754-9.684s-18.875 2.388-19.055 1.681c-.18-.706 9.527-17.788 9.527-17.788L56.279 28.046l.84-18.214-8.653 13.383-9.56-15.49-4.114 16.555-13.674-11.926s-2.444 18.102-2.097 18.281z" /></g>
    </symbol>
    <symbol id="multiplayer" viewBox="0 0 24 24">
        <g class="nc-icon-wrapper" fill="#2795f5"><path d="M12 6a3 3 0 1 1 0-6 3 3 0 1 1 0 6z" /><path data-color="color-2" fill="#fff" d="M4 19v-8c0-1.13.391-2.162 1.026-3H2a2 2 0 0 0-2 2v6h2v5a1 1 0 0 0 1 1h2a1 1 0 0 0 1-1v-2H4z" /><path d="M14 24h-4a1 1 0 0 1-1-1v-6H6v-6a3 3 0 0 1 3-3h6a3 3 0 0 1 3 3v6h-3v6a1 1 0 0 1-1 1z" /><path data-color="color-2" fill="#fff" d="M4 7a2 2 0 1 1 0-4 2 2 0 1 1 0 4zM20 19v-8c0-1.13-.391-2.162-1.026-3H22a2 2 0 0 1 2 2v6h-2v5a1 1 0 0 1-1 1h-2a1 1 0 0 1-1-1v-2h2zM20 7a2 2 0 1 0 0-4 2 2 0 1 0 0 4z" /></g>
    </symbol>
    <symbol id="digital product" viewBox="0 0 640 512">
        <path d="M272 32c-84.587 0-155.5 59.732-172.272 139.774C39.889 196.13 0 254.416 0 320c0 88.374 71.642 160 160 160h336c79.544 0 144-64.487 144-144 0-61.805-39.188-115.805-96.272-135.891C539.718 142.116 491.432 96 432 96c-7.558 0-15.051.767-22.369 2.262C377.723 58.272 328.091 32 272 32zm0 48c53.473 0 99.279 32.794 118.426 79.363C401.611 149.793 416.125 144 432 144c35.346 0 64 28.654 64 64 0 11.829-3.222 22.9-8.817 32.407A96.998 96.998 0 0 1 496 240c53.019 0 96 42.981 96 96s-42.981 96-96 96H160c-61.856 0-112-50.144-112-112 0-56.428 41.732-103.101 96.014-110.859-.003-.381-.014-.76-.014-1.141 0-70.692 57.308-128 128-128m-91.515 196.485l99.029 99.029c4.686 4.686 12.284 4.686 16.971 0l99.029-99.029c7.56-7.56 2.206-20.485-8.485-20.485H320v-84c0-6.627-5.373-12-12-12h-40c-6.627 0-12 5.373-12 12v84h-67.029c-10.691 0-16.045 12.926-8.486 20.485z" />
    </symbol>
    <symbol id="instant delivery" viewBox="0 0 100 100">
        <path d="M71.438 37H57.621l16.266-18.726a3.17 3.17 0 0 0 .496-3.425c-.527-1.152-1.68-1.85-2.945-1.85H48.444a3.24 3.24 0 0 0-2.883 1.756L26.358 52.047c-.516 1.006-.472 2.32.117 3.285.585.965 1.633 1.668 2.767 1.668h14.114l-7.267 23.938c-.448 1.492.229 3.041 1.614 3.756.473.246.981.335 1.488.335.973 0 1.924-.45 2.557-1.26l32.247-41.356c.76-.978.898-2.394.354-3.505C73.805 37.794 72.678 37 71.438 37z" />
    </symbol>
    <symbol id="single player" viewBox="0 0 192 512">
        <path d="M96 0c35.346 0 64 28.654 64 64s-28.654 64-64 64-64-28.654-64-64S60.654 0 96 0m48 144h-11.36c-22.711 10.443-49.59 10.894-73.28 0H48c-26.51 0-48 21.49-48 48v136c0 13.255 10.745 24 24 24h16v136c0 13.255 10.745 24 24 24h64c13.255 0 24-10.745 24-24V352h16c13.255 0 24-10.745 24-24V192c0-26.51-21.49-48-48-48z" />
    </symbol>
    <symbol id="sci-fi" viewBox="0 0 100 100">
        <path d="M92.911 7.912c4.256 4.295-.123 26.104-16.162 42.145a64.876 64.876 0 0 1-14.351 10.796l-.685.346.858 9.478-12.716 12.717-1.349-14.889-7.097 4.099-.404.402-.108-.107-12.645-12.647-.108-.107.403-.4 4.098-7.1-14.886-1.351 12.716-12.716 9.421.854.433-.839a67.3 67.3 0 0 1 10.875-14.301C67.245 8.252 88.653 3.619 92.911 7.912zM78.051 23.1a7.197 7.197 0 1 0-10.177 10.179A7.197 7.197 0 0 0 78.051 23.1z" />
        <ellipse fill="#2795f5" transform="rotate(134.999 18.408 72.885)" cx="18.406" cy="72.886" rx="9.175" ry="2.112" />
        <ellipse fill="#2795f5" transform="rotate(134.999 26.968 81.447)" cx="26.968" cy="81.447" rx="9.176" ry="2.111" />
        <ellipse fill="#2795f5" transform="rotate(134.999 17.76 82.095)" cx="17.758" cy="82.095" rx="16.146" ry="2.037" />
    </symbol>
</svg>
