<svg xmlns="http://www.w3.org/2000/svg" style="display: none;">
    <symbol id="other" viewBox="0 0 640 512">
        <path fill="currentColor" d="M480 96H160C71.6 96 0 167.6 0 256s71.6 160 160 160c44.8 0 85.2-18.4 114.2-48h91.5c29 29.6 69.5 48 114.2 48 88.4 0 160-71.6 160-160S568.4 96 480 96zM256 276c0 6.6-5.4 12-12 12h-52v52c0 6.6-5.4 12-12 12h-40c-6.6 0-12-5.4-12-12v-52H76c-6.6 0-12-5.4-12-12v-40c0-6.6 5.4-12 12-12h52v-52c0-6.6 5.4-12 12-12h40c6.6 0 12 5.4 12 12v52h52c6.6 0 12 5.4 12 12v40zm184 68c-26.5 0-48-21.5-48-48s21.5-48 48-48 48 21.5 48 48-21.5 48-48 48zm80-80c-26.5 0-48-21.5-48-48s21.5-48 48-48 48 21.5 48 48-21.5 48-48 48z" />
    </symbol>
    <symbol id="payment" viewBox="0 0 576 512">
        <path d="M528 32H48C21.5 32 0 53.5 0 80v352c0 26.5 21.5 48 48 48h480c26.5 0 48-21.5 48-48V80c0-26.5-21.5-48-48-48zM48 64h480c8.8 0 16 7.2 16 16v48H32V80c0-8.8 7.2-16 16-16zm480 384H48c-8.8 0-16-7.2-16-16V224h512v208c0 8.8-7.2 16-16 16zm-336-84v8c0 6.6-5.4 12-12 12h-72c-6.6 0-12-5.4-12-12v-8c0-6.6 5.4-12 12-12h72c6.6 0 12 5.4 12 12zm192 0v8c0 6.6-5.4 12-12 12H236c-6.6 0-12-5.4-12-12v-8c0-6.6 5.4-12 12-12h136c6.6 0 12 5.4 12 12z" />
    </symbol>
    <symbol id="youtube" viewBox="0 0 512 512">
        <path d="M501.3 120.3c-5.9-22.2-23.2-39.6-45.3-45.6C416.1 64 256 64 256 64S95.9 64 56 74.8c-22 5.9-39.4 23.4-45.3 45.6C0 160.5 0 244.4 0 244.4s0 83.8 10.7 124c5.9 22.2 23.2 38.9 45.3 44.8C95.9 424 256 424 256 424s160.1 0 200-10.8c22-5.9 39.4-22.7 45.3-44.8 10.7-40.2 10.7-124 10.7-124s0-83.9-10.7-124.1zM203.6 320.5V168.2l133.8 76.1-133.8 76.2z" />
    </symbol>
    <symbol id="windows" viewBox="0 0 100 100">
        <path d="M81.5 5.5c-.7-.5-1.5-.6-2.3-.4l-60 20c-1 .3-1.7 1.3-1.7 2.4v45c0 1.1.7 2 1.7 2.4l60 20c1.6.5 3.3-.7 3.3-2.4v-85c0-.8-.4-1.6-1-2-.7-.5.6.4 0 0zM43.8 77.8l-21.3-7.1V52.5h21.3v25.3zm0-30.3H22.5V29.3l21.3-7.1v25.3zM77.5 89l-28.8-9.6V52.5h28.8V89zm0-41.5H48.8V20.6L77.5 11v36.5z" />
    </symbol>
    <symbol id="filter" viewBox="0 0 512 512">
        <path d="M487.976 0H24.028C2.71 0-8.047 25.866 7.058 40.971L192 225.941V432c0 7.831 3.821 15.17 10.237 19.662l80 55.98C298.02 518.69 320 507.493 320 487.98V225.941l184.947-184.97C520.021 25.896 509.338 0 487.976 0z" />
    </symbol>
    <symbol id="playstation" viewBox="0 0 576 512">
        <path d="M570.9 372.3c-11.3 14.2-38.8 24.3-38.8 24.3L327 470.2v-54.3l150.9-53.8c17.1-6.1 19.8-14.8 5.8-19.4-13.9-4.6-39.1-3.3-56.2 2.9L327 381.1v-56.4c23.2-7.8 47.1-13.6 75.7-16.8 40.9-4.5 90.9.6 130.2 15.5 44.2 14 49.2 34.7 38 48.9zm-224.4-92.5v-139c0-16.3-3-31.3-18.3-35.6-11.7-3.8-19 7.1-19 23.4v347.9l-93.8-29.8V32c39.9 7.4 98 24.9 129.2 35.4C424.1 94.7 451 128.7 451 205.2c0 74.5-46 102.8-104.5 74.6zM43.2 410.2c-45.4-12.8-53-39.5-32.3-54.8 19.1-14.2 51.7-24.9 51.7-24.9l134.5-47.8v54.5l-96.8 34.6c-17.1 6.1-19.7 14.8-5.8 19.4 13.9 4.6 39.1 3.3 56.2-2.9l46.4-16.9v48.8c-51.6 9.3-101.4 7.3-153.9-10z" />
    </symbol>
    <symbol id="xbox" viewBox="0 0 512 512">
        <path d="M369.9 318.2c44.3 54.3 64.7 98.8 54.4 118.7-7.9 15.1-56.7 44.6-92.6 55.9-29.6 9.3-68.4 13.3-100.4 10.2-38.2-3.7-76.9-17.4-110.1-39C93.3 445.8 87 438.3 87 423.4c0-29.9 32.9-82.3 89.2-142.1 32-33.9 76.5-73.7 81.4-72.6 9.4 2.1 84.3 75.1 112.3 109.5zM188.6 143.8c-29.7-26.9-58.1-53.9-86.4-63.4-15.2-5.1-16.3-4.8-28.7 8.1-29.2 30.4-53.5 79.7-60.3 122.4-5.4 34.2-6.1 43.8-4.2 60.5 5.6 50.5 17.3 85.4 40.5 120.9 9.5 14.6 12.1 17.3 9.3 9.9-4.2-11-.3-37.5 9.5-64 14.3-39 53.9-112.9 120.3-194.4zm311.6 63.5C483.3 127.3 432.7 77 425.6 77c-7.3 0-24.2 6.5-36 13.9-23.3 14.5-41 31.4-64.3 52.8C367.7 197 427.5 283.1 448.2 346c6.8 20.7 9.7 41.1 7.4 52.3-1.7 8.5-1.7 8.5 1.4 4.6 6.1-7.7 19.9-31.3 25.4-43.5 7.4-16.2 15-40.2 18.6-58.7 4.3-22.5 3.9-70.8-.8-93.4zM141.3 43C189 40.5 251 77.5 255.6 78.4c.7.1 10.4-4.2 21.6-9.7 63.9-31.1 94-25.8 107.4-25.2-63.9-39.3-152.7-50-233.9-11.7-23.4 11.1-24 11.9-9.4 11.2z" />
    </symbol>
    <symbol id="battle.net" viewBox="0 -2 32 32">
        <path d="M26.577,14.339c0,0,2.304,0.117,2.304-1.238c0-1.769-3.068-3.364-3.068-3.364s0.48-1.019,0.78-1.588 c0.3-0.569,1.145-2.791,1.22-3.299c0.095-0.638-0.05-0.838-0.05-0.838c-0.208,1.367-2.436,5.303-2.613,5.438 c-2.174-1.018-5.159-1.301-5.159-1.301S17.069,2,14.32,2c-2.725,0-2.712,5.265-2.712,5.265s-0.77-1.493-1.737-1.493 c-1.413,0-1.877,2.136-1.877,4.451c-2.791,0-5.138,0.623-5.348,0.683c-0.21,0.06-0.87,0.54-0.57,0.479 c0.61-0.195,3.478-0.639,5.988-0.421c0.138,2.201,1.424,5.067,1.424,5.067s-2.758,3.991-2.758,6.841c0,0.75,0.327,2.122,2.307,2.122 c1.658,0,3.52-0.996,3.871-1.199c-0.306,0.437-0.533,1.268-0.533,1.649c0,0.313,0.186,1.199,1.464,1.199 c1.643,0,3.478-1.258,3.478-1.258s1.732,2.876,3.213,4.195c0.399,0.355,0.781,0.42,0.781,0.42s-1.471-1.415-3.409-5.061 c1.801-1.112,3.677-3.735,3.677-3.735s0.221,0.007,1.931,0.007c2.68,0,6.488-0.563,6.488-2.691 C30,16.323,26.577,14.339,26.577,14.339z M26.876,13.017c0,0.776-0.74,0.767-0.74,0.767l-0.562,0.037c0,0-1.068-0.561-1.714-0.823 c0,0,1.002-1.543,1.236-1.974C25.275,11.127,26.876,12.128,26.876,13.017z M15.662,5.097c1.26,0,3.058,2.971,3.058,2.971 s-2.807-0.251-5.116,1.105C13.667,7.034,14.388,5.097,15.662,5.097z M10.67,7.505c0.4,0,0.792,0.486,0.954,0.899 c0,0.272,0.142,1.864,0.142,1.864l-2.313-0.087C9.452,8.096,10.27,7.505,10.67,7.505z M10.43,21.977 c-1.264,0-1.525-0.704-1.525-1.337c0-1.434,1.146-3.44,1.146-3.44s1.283,2.698,3.525,3.837 C12.464,21.689,11.546,21.977,10.43,21.977z M14.535,24.802c-0.886,0-0.994-0.574-0.994-0.708c0-0.412,0.322-0.898,0.322-0.898 s1.49-1.006,1.584-1.113l1.101,2.052C16.548,24.135,15.421,24.802,14.535,24.802z M17.299,23.683 c-0.539-0.942-0.937-1.926-0.937-1.926s2.216,0.143,3.406-1.086c-0.742,0.334-1.924,0.754-3.301,0.627 c2.878-2.532,4.556-4.367,5.976-6.263c-0.123-0.147-0.771-0.6-0.931-0.676c-0.857,1.031-4.188,4.59-7.274,6.352 c-3.906-2.129-4.727-8.391-4.81-9.692l2.134,0.205c0,0-0.802,1.42-0.802,2.466s0.125,1.1,0.125,1.1s-0.027-1.822,1.1-3.229 c0.857,4.563,1.752,6.9,2.449,8.294c0.355-0.147,1.017-0.44,1.017-0.44s-1.972-5.676-1.861-9.517 c0.894-0.477,2.217-0.969,3.711-0.969c3.931,0,7.091,1.69,7.091,1.69l-1.237,1.725c0,0-1.102-1.994-2.657-2.349 c0.82,0.611,1.739,1.419,2.217,2.581c-3.257-1.272-7.188-1.945-8.45-2.092c-0.11,0.465-0.095,1.129-0.095,1.129 s5.272,0.972,9.108,3.165C23.251,19.573,18.022,23.256,17.299,23.683z M22.293,20.099c0,0,1.637-2.145,1.611-4.988 c0,0,2.644,1.636,2.644,3.232C26.548,20.126,22.293,20.099,22.293,20.099z" />
    </symbol>
    <symbol id="steam" viewBox="0 0 448 512">
        <path d="M185.2 356.5c7.7-18.5-1-39.7-19.6-47.4l-29.5-12.2c11.4-4.3 24.3-4.5 36.4.5 12.2 5.1 21.6 14.6 26.7 26.7 5 12.2 5 25.6-.1 37.7-10.5 25.1-39.4 37-64.6 26.5-11.6-4.8-20.4-13.6-25.4-24.2l28.5 11.8c18.6 7.8 39.9-.9 47.6-19.4zM400 32H48C21.5 32 0 53.5 0 80v160.7l116.6 48.1c12-8.2 26.2-12.1 40.7-11.3l55.4-80.2v-1.1c0-48.2 39.3-87.5 87.6-87.5s87.6 39.3 87.6 87.5c0 49.2-40.9 88.7-89.6 87.5l-79 56.3c1.6 38.5-29.1 68.8-65.7 68.8-31.8 0-58.5-22.7-64.5-52.7L0 319.2V432c0 26.5 21.5 48 48 48h352c26.5 0 48-21.5 48-48V80c0-26.5-21.5-48-48-48zm-99.7 222.5c-32.2 0-58.4-26.1-58.4-58.3s26.2-58.3 58.4-58.3 58.4 26.2 58.4 58.3-26.2 58.3-58.4 58.3zm.1-14.6c24.2 0 43.9-19.6 43.9-43.8 0-24.2-19.6-43.8-43.9-43.8-24.2 0-43.9 19.6-43.9 43.8 0 24.2 19.7 43.8 43.9 43.8z" />
    </symbol>
    <symbol id="origin" viewBox="0 0 50 50">
        <path d="M25 6c-.326 0-.662.011-1.013.032.459-1.907 1.761-3.755 1.776-3.777l.083-.141c.289-.589.161-1.28-.317-1.719-.488-.449-1.203-.519-1.778-.175-.28.168-.578.341-.89.522C19.228 2.855 13.738 6.05 8.644 15.35l-.204.376.003.009C7.756 17.079 6 20.915 6 25c0 10.477 8.523 19 19 19 .327 0 .663-.011 1.013-.032-.459 1.907-1.761 3.755-1.776 3.777l-.083.141c-.289.588-.161 1.279.317 1.719.282.259.639.392 1.001.392.265 0 .534-.071.777-.217.28-.168.578-.341.89-.522 3.632-2.112 9.119-5.306 14.211-14.599C41.631 34.175 44 29.965 44 25c0-10.477-8.523-19-19-19zm0 26c-3.866 0-7-3.134-7-7s3.134-7 7-7 7 3.134 7 7-3.134 7-7 7z" />
    </symbol>
    <symbol id="sync-alt" viewBox="0 0 512 512">
        <path d="M483.515 28.485L431.35 80.65C386.475 35.767 324.485 8 256 8 123.228 8 14.824 112.338 8.31 243.493 7.971 250.311 13.475 256 20.301 256h28.045c6.353 0 11.613-4.952 11.973-11.294C66.161 141.649 151.453 60 256 60c54.163 0 103.157 21.923 138.614 57.386l-54.128 54.129c-7.56 7.56-2.206 20.485 8.485 20.485H492c6.627 0 12-5.373 12-12V36.971c0-10.691-12.926-16.045-20.485-8.486zM491.699 256h-28.045c-6.353 0-11.613 4.952-11.973 11.294C445.839 370.351 360.547 452 256 452c-54.163 0-103.157-21.923-138.614-57.386l54.128-54.129c7.56-7.56 2.206-20.485-8.485-20.485H20c-6.627 0-12 5.373-12 12v143.029c0 10.691 12.926 16.045 20.485 8.485L80.65 431.35C125.525 476.233 187.516 504 256 504c132.773 0 241.176-104.338 247.69-235.493.339-6.818-5.165-12.507-11.991-12.507z" />
    </symbol>
    <symbol id="frown" viewBox="0 0 512 512">
        <path d="M368 192c0 26.51-21.49 48-48 48s-48-21.49-48-48a47.789 47.789 0 0 1 5.647-22.603v.015c0 10.916 8.849 19.765 19.765 19.765s19.765-8.849 19.765-19.765-8.849-19.765-19.765-19.765h-.015A47.789 47.789 0 0 1 320 144c26.51 0 48 21.49 48 48zm-176-48a47.789 47.789 0 0 0-22.603 5.647h.015c10.916 0 19.765 8.849 19.765 19.765s-8.849 19.765-19.765 19.765-19.765-8.849-19.765-19.765v-.015A47.789 47.789 0 0 0 144 192c0 26.51 21.49 48 48 48s48-21.49 48-48-21.49-48-48-48zm176.551 212.661c-59.124-91.452-165.846-91.599-225.064 0-11.502 17.79 15.381 35.148 26.873 17.373 46.626-72.119 124.864-71.854 171.318 0 11.327 17.525 38.547.684 26.873-17.373zM256 40C136.055 40 40 137.336 40 256c0 119.945 97.336 216 216 216 119.945 0 216-97.336 216-216 0-119.945-97.336-216-216-216m0-32c136.967 0 248 111.033 248 248S392.967 504 256 504 8 392.967 8 256 119.033 8 256 8z" />
    </symbol>
    <symbol id="desktop" viewBox="0 0 576 512">
        <path d="M528 0H48C21.5 0 0 21.5 0 48v288c0 26.5 21.5 48 48 48h480c26.5 0 48-21.5 48-48V48c0-26.5-21.5-48-48-48zm-6 336H54c-3.3 0-6-2.7-6-6V54c0-3.3 2.7-6 6-6h468c3.3 0 6 2.7 6 6v276c0 3.3-2.7 6-6 6zm-42 152c0 13.3-10.7 24-24 24H120c-13.3 0-24-10.7-24-24s10.7-24 24-24h98.7l18.6-55.8c1.6-4.9 6.2-8.2 11.4-8.2h78.7c5.2 0 9.8 3.3 11.4 8.2l18.6 55.8H456c13.3 0 24 10.7 24 24z" />
    </symbol>
    <symbol id="gavel" viewBox="0 0 512 512">
        <path d="M500.892 186.561l-20.633-20.643c-12.912-12.912-32.416-14.337-46.732-5.448L351.53 78.474c8.888-14.315 7.465-33.82-5.448-46.731L325.44 11.108c-14.808-14.808-38.781-14.813-53.592 0L158.315 124.633c-14.774 14.775-14.774 38.815 0 53.591l20.643 20.644c12.659 12.657 32.118 14.473 46.725 5.439l29.692 29.692-58.803 58.803-8.082-8.082c-16.933-16.934-44.484-16.932-61.417 0L12.699 399.073c-16.932 16.933-16.932 44.484 0 61.417l38.81 38.811c16.931 16.932 44.482 16.933 61.417 0L227.28 384.927c16.932-16.933 16.932-44.484 0-61.417l-8.081-8.081 58.803-58.803 29.692 29.692c-9.031 14.607-7.218 34.067 5.44 46.725l20.643 20.643c14.776 14.776 38.815 14.776 53.591 0l113.525-113.533c14.808-14.809 14.811-38.781-.001-53.592zM204.653 362.3L90.3 476.652c-4.456 4.458-11.707 4.457-16.163 0v.001l-38.79-38.79c-4.456-4.456-4.456-11.707 0-16.163L149.7 307.348c4.456-4.457 11.706-4.458 16.162-.001l38.79 38.79c4.456 4.456 4.456 11.707.001 16.163zm273.62-144.776L364.74 331.058a5.896 5.896 0 0 1-8.337 0l-20.643-20.643a5.902 5.902 0 0 1-.001-8.336l16.478-16.474-125.842-125.841-16.474 16.475a5.902 5.902 0 0 1-8.336.001l-20.643-20.643a5.903 5.903 0 0 1 0-8.337L294.476 33.727a5.896 5.896 0 0 1 8.337 0l20.643 20.644a5.893 5.893 0 0 1-.001 8.336l-16.472 16.475L432.82 205.019l16.477-16.473a5.893 5.893 0 0 1 8.335 0l20.643 20.643v.001a5.893 5.893 0 0 1-.002 8.334z" />
    </symbol>
    <symbol id="plus" viewBox="0 0 448 512">
        <path d="M448 294.2v-76.4c0-13.3-10.7-24-24-24H286.2V56c0-13.3-10.7-24-24-24h-76.4c-13.3 0-24 10.7-24 24v137.8H24c-13.3 0-24 10.7-24 24v76.4c0 13.3 10.7 24 24 24h137.8V456c0 13.3 10.7 24 24 24h76.4c13.3 0 24-10.7 24-24V318.2H424c13.3 0 24-10.7 24-24z" />
    </symbol>
    <symbol id="minus" viewBox="0 0 448 512">
        <path d="M424 318.2c13.3 0 24-10.7 24-24v-76.4c0-13.3-10.7-24-24-24H24c-13.3 0-24 10.7-24 24v76.4c0 13.3 10.7 24 24 24h400z" />
    </symbol>
    <symbol id="shield-check" viewBox="0 0 512 512">
        <path d="M466.461 83.692l-192-80a48 48 0 0 0-36.923 0l-192 80A48 48 0 0 0 16 128c0 198.487 114.495 335.713 221.539 380.308a48 48 0 0 0 36.923 0C360.066 472.645 496 349.282 496 128a48 48 0 0 0-29.539-44.308zM255.998 463.999C158.451 423.361 64 297.278 64 128l191.999-80L448 128c0 173.804-98.398 297.017-192.002 335.999zM403.82 190.276L231.232 361.48c-4.705 4.667-12.303 4.637-16.97-.068l-90.781-91.516c-4.667-4.705-4.637-12.303.069-16.971l22.718-22.536c4.705-4.667 12.303-4.637 16.97.069l59.792 60.277L364.382 150.52c4.705-4.667 12.303-4.637 16.97.068l22.536 22.718c4.668 4.705 4.637 12.303-.068 16.97z" />
    </symbol>
    <symbol id="calendar-alt" viewBox="0 0 448 512">
        <path d="M148 288h-40c-6.6 0-12-5.4-12-12v-40c0-6.6 5.4-12 12-12h40c6.6 0 12 5.4 12 12v40c0 6.6-5.4 12-12 12zm108-12v-40c0-6.6-5.4-12-12-12h-40c-6.6 0-12 5.4-12 12v40c0 6.6 5.4 12 12 12h40c6.6 0 12-5.4 12-12zm96 0v-40c0-6.6-5.4-12-12-12h-40c-6.6 0-12 5.4-12 12v40c0 6.6 5.4 12 12 12h40c6.6 0 12-5.4 12-12zm-96 96v-40c0-6.6-5.4-12-12-12h-40c-6.6 0-12 5.4-12 12v40c0 6.6 5.4 12 12 12h40c6.6 0 12-5.4 12-12zm-96 0v-40c0-6.6-5.4-12-12-12h-40c-6.6 0-12 5.4-12 12v40c0 6.6 5.4 12 12 12h40c6.6 0 12-5.4 12-12zm192 0v-40c0-6.6-5.4-12-12-12h-40c-6.6 0-12 5.4-12 12v40c0 6.6 5.4 12 12 12h40c6.6 0 12-5.4 12-12zm96-260v352c0 26.5-21.5 48-48 48H48c-26.5 0-48-21.5-48-48V112c0-26.5 21.5-48 48-48h48V12c0-6.6 5.4-12 12-12h40c6.6 0 12 5.4 12 12v52h128V12c0-6.6 5.4-12 12-12h40c6.6 0 12 5.4 12 12v52h48c26.5 0 48 21.5 48 48zm-48 346V160H48v298c0 3.3 2.7 6 6 6h340c3.3 0 6-2.7 6-6z" />
    </symbol>
    <symbol id="paper-plane" viewBox="0 0 512 512">
        <path d="M464 4.3L16 262.7C-7 276-4.7 309.9 19.8 320L160 378v102c0 30.2 37.8 43.3 56.7 20.3l60.7-73.8 126.4 52.2c19.1 7.9 40.7-4.2 43.8-24.7l64-417.1C515.7 10.2 487-9 464 4.3zM192 480v-88.8l54.5 22.5L192 480zm224-30.9l-206.2-85.2 199.5-235.8c4.8-5.6-2.9-13.2-8.5-8.4L145.5 337.3 32 290.5 480 32l-64 417.1z" />
    </symbol>
    <symbol id="fps" viewBox="0 0 100 100">
        <path d="M95 45.909H82.443c-1.855-14.775-13.577-26.497-28.352-28.352V5h-8.182v12.557c-14.775 1.855-26.497 13.577-28.352 28.352H5v8.182h12.557c1.855 14.775 13.577 26.497 28.352 28.352V95h8.182V82.443c14.775-1.855 26.497-13.577 28.352-28.352H95v-8.182zM54.091 74.177V62.273h-8.182v11.905C35.638 72.45 27.55 64.362 25.823 54.091h11.905v-8.182H25.823C27.55 35.638 35.638 27.55 45.91 25.822v11.905h8.182V25.823c10.271 1.727 18.359 9.815 20.087 20.087H62.273v8.182h11.905c-1.728 10.27-9.816 18.358-20.087 20.085z" />
    </symbol>
    <symbol id="co-op" viewBox="0 0 64 64">
        <circle cx="13.825" cy="23.115" r="8.015" />
        <path d="M27.649 41.803c0-7.468-8.151-7.605-8.151-7.605H8.151S0 34.289 0 41.803v7.094h27.649v-7.094z" />
        <circle cx="50.175" cy="23.115" r="8.015" />
        <path d="M55.849 34.198H44.502s-8.151.091-8.151 7.605v7.094H64v-7.094c0-7.468-8.151-7.605-8.151-7.605z" />
    </symbol>
    <symbol id="open world" viewBox="0 0 100 100">
        <path d="M12.2 80.1h75.5c.7 0 1.4-.4 1.7-1 .4-.6.4-1.4 0-2L78.6 57.7 69.2 41c-.4-.6-1-1-1.7-1s-1.4.4-1.7 1l-4 7.1-.1-.2-11.6-26.8c-.3-.7-1-1.2-1.8-1.2s-1.5.5-1.8 1.2l-5.1 11.8-1.4-2.4c-.4-.6-1-1-1.8-1-.7 0-1.4.4-1.8 1l-9.6 17.1-16.3 29.5c-.3.6-.3 1.4 0 2 .4.6 1 1 1.7 1zm55.2-34l6 10.6h-8l-1.7-4 3.7-6.6zM38.3 35.6l1.6 2.8c.4.7 1.1 1.1 1.9 1 .8 0 1.4-.5 1.7-1.2L48.3 27l7.3 17 1.1 2.6H32.1l6.2-11z" />
    </symbol>
    <symbol id="violent" viewBox="0 0 100 100">
        <path stroke="#FFF" stroke-miterlimit="10" d="M8-14.5h10M-179 16.5h17" />
        <path d="M-170.802 31.318h8.721v8.642h-8.721z" />
        <path d="M-164.455 42.312h4.747v-4.703h-4.747v4.703zm5.189.437h-5.63V37.17h5.63v5.579zm-6.955 1.313h8.279v-8.203h-8.279v8.203zm8.721.438h-9.163v-9.079h9.163V44.5z" />
        <path d="M-166.149 44.133l-.143-.142 8.279-8.204.142.142z" />
        <path d="M-126.514 34.815h10.261V45h-10.261zM-126.477 31.766h.522v2.337h-.522zM-116.812 31.766h.523v2.337h-.523z" />
        <path d="M-127 32.337h11.233v.572H-127zM-83.805 33.844H-73.5V44h-10.305zM-76.809 28.707h3.308v3.261h-3.308z" />
        <path stroke="#FFF" stroke-miterlimit="10" d="M-178.5 22.5h30v30h-30zM-136.5 22.5h30v30h-30zM-93.5 22.5h30v30h-30zM-49.5 22.5h30v30h-30z" />
        <g fill-rule="evenodd" clip-rule="evenodd"><path d="M5 74.91l25.477 23.47 8.249-9.516s2.556.796 5.896 0c5.503-2.78 25.814-24.615 25.814-29.579 0-2.377-2.443-4.854-5.145-8.574v4.931l-3.947 4.36-1.254-1.379 3.621-4.573.582-5.492c-1.996-2.634-4.27-5.447-6.533-8.137l-.752 7.812-3.945 4.36-1.389-1.39 3.629-4.562.865-8.104c-2.053-2.41-4.293-4.831-5.953-6.668l-.561 8.955-3.945 4.36-1.4-1.39 3.631-4.562.213-9.089c-.773-.841-1.816-3.217-5.605-3.217-3.508 0-4.349 1.827-5.649 3.363v7.879l-8.351 9.135-1.983-1.458 8.227-8.989v-6.098c-4.36-1.983-8.025 1.009-8.025 1.009S13.003 47.426 11.625 50.8c-1.379 3.374 1.176 15.467 1.176 15.467L5 74.91z" /><path d="M19.021 30.635c.347.168-1.053-25.41-1.053-25.41l14.728 12.7L38.2 1.292l9.213 14.515L61.322 1l-1.826 20.601L83.168 9.462 72.531 30.434l22.137-.291-15.701 13.191 15.566 7.129-12.418 7.688L92.639 72.97l-24.188 2.119 18.371-5.01-12.06-14.044 12.9-5.292s-16.756-7.409-17.115-7.409c-.348 0 13.754-9.684 13.754-9.684s-18.875 2.388-19.055 1.681c-.18-.706 9.527-17.788 9.527-17.788L56.279 28.046l.84-18.214-8.653 13.383-9.56-15.49-4.114 16.555-13.674-11.926s-2.444 18.102-2.097 18.281z" /></g>
    </symbol>
    <symbol id="multiplayer" viewBox="0 0 24 24">
        <g class="nc-icon-wrapper" fill="#2795f5"><path d="M12 6a3 3 0 1 1 0-6 3 3 0 1 1 0 6z" /><path data-color="color-2" fill="#fff" d="M4 19v-8c0-1.13.391-2.162 1.026-3H2a2 2 0 0 0-2 2v6h2v5a1 1 0 0 0 1 1h2a1 1 0 0 0 1-1v-2H4z" /><path d="M14 24h-4a1 1 0 0 1-1-1v-6H6v-6a3 3 0 0 1 3-3h6a3 3 0 0 1 3 3v6h-3v6a1 1 0 0 1-1 1z" /><path data-color="color-2" fill="#fff" d="M4 7a2 2 0 1 1 0-4 2 2 0 1 1 0 4zM20 19v-8c0-1.13-.391-2.162-1.026-3H22a2 2 0 0 1 2 2v6h-2v5a1 1 0 0 1-1 1h-2a1 1 0 0 1-1-1v-2h2zM20 7a2 2 0 1 0 0-4 2 2 0 1 0 0 4z" /></g>
    </symbol>
    <symbol id="digital product" viewBox="0 0 640 512">
        <path d="M272 32c-84.587 0-155.5 59.732-172.272 139.774C39.889 196.13 0 254.416 0 320c0 88.374 71.642 160 160 160h336c79.544 0 144-64.487 144-144 0-61.805-39.188-115.805-96.272-135.891C539.718 142.116 491.432 96 432 96c-7.558 0-15.051.767-22.369 2.262C377.723 58.272 328.091 32 272 32zm0 48c53.473 0 99.279 32.794 118.426 79.363C401.611 149.793 416.125 144 432 144c35.346 0 64 28.654 64 64 0 11.829-3.222 22.9-8.817 32.407A96.998 96.998 0 0 1 496 240c53.019 0 96 42.981 96 96s-42.981 96-96 96H160c-61.856 0-112-50.144-112-112 0-56.428 41.732-103.101 96.014-110.859-.003-.381-.014-.76-.014-1.141 0-70.692 57.308-128 128-128m-91.515 196.485l99.029 99.029c4.686 4.686 12.284 4.686 16.971 0l99.029-99.029c7.56-7.56 2.206-20.485-8.485-20.485H320v-84c0-6.627-5.373-12-12-12h-40c-6.627 0-12 5.373-12 12v84h-67.029c-10.691 0-16.045 12.926-8.486 20.485z" />
    </symbol>
    <symbol id="instant delivery" viewBox="0 0 100 100">
        <path d="M71.438 37H57.621l16.266-18.726a3.17 3.17 0 0 0 .496-3.425c-.527-1.152-1.68-1.85-2.945-1.85H48.444a3.24 3.24 0 0 0-2.883 1.756L26.358 52.047c-.516 1.006-.472 2.32.117 3.285.585.965 1.633 1.668 2.767 1.668h14.114l-7.267 23.938c-.448 1.492.229 3.041 1.614 3.756.473.246.981.335 1.488.335.973 0 1.924-.45 2.557-1.26l32.247-41.356c.76-.978.898-2.394.354-3.505C73.805 37.794 72.678 37 71.438 37z" />
    </symbol>
    <symbol id="single player" viewBox="0 0 192 512">
        <path d="M96 0c35.346 0 64 28.654 64 64s-28.654 64-64 64-64-28.654-64-64S60.654 0 96 0m48 144h-11.36c-22.711 10.443-49.59 10.894-73.28 0H48c-26.51 0-48 21.49-48 48v136c0 13.255 10.745 24 24 24h16v136c0 13.255 10.745 24 24 24h64c13.255 0 24-10.745 24-24V352h16c13.255 0 24-10.745 24-24V192c0-26.51-21.49-48-48-48z" />
    </symbol>
    <symbol id="sci-fi" viewBox="0 0 100 100">
        <path d="M92.911 7.912c4.256 4.295-.123 26.104-16.162 42.145a64.876 64.876 0 0 1-14.351 10.796l-.685.346.858 9.478-12.716 12.717-1.349-14.889-7.097 4.099-.404.402-.108-.107-12.645-12.647-.108-.107.403-.4 4.098-7.1-14.886-1.351 12.716-12.716 9.421.854.433-.839a67.3 67.3 0 0 1 10.875-14.301C67.245 8.252 88.653 3.619 92.911 7.912zM78.051 23.1a7.197 7.197 0 1 0-10.177 10.179A7.197 7.197 0 0 0 78.051 23.1z" />
        <ellipse fill="#2795f5" transform="rotate(134.999 18.408 72.885)" cx="18.406" cy="72.886" rx="9.175" ry="2.112" />
        <ellipse fill="#2795f5" transform="rotate(134.999 26.968 81.447)" cx="26.968" cy="81.447" rx="9.176" ry="2.111" />
        <ellipse fill="#2795f5" transform="rotate(134.999 17.76 82.095)" cx="17.758" cy="82.095" rx="16.146" ry="2.037" />
    </symbol>
  <symbol id="league-of-legends" viewBox="0 0 48 48">
    <circle cx="24" cy="26" r="19" fill="#DD9F05" />
    <circle cx="24" cy="26" r="17" fill="#01579B" />
    <path fill="#0277BD" d="M34 32c.917 2.917-2.167 5.045-4.583 5.045-1.322 0-2.958-.504-3.417-2.045a34.526 34.526 0 0 0-4 2.518V39h12.915a17.01 17.01 0 0 0 4.671-6.22C38.731 32.46 36.988 32 34 32zM36.563 14.571a22.086 22.086 0 0 0-8.052 4.386C27.629 21.634 25.517 24.582 22 27v7s2.796-5.109 9.417-6.667a56.387 56.387 0 0 1 9.581-1.386 16.906 16.906 0 0 0-4.435-11.376z" />
    <path fill="#0091EA" d="M34.919 12.993a17.056 17.056 0 0 0-3.089-2.073c-1.113.515-2.506 1.223-3.83 2.08.629.787.957 1.84.985 3.04a23.948 23.948 0 0 1 5.934-3.047z" />
    <circle cx="24" cy="26" r="15" fill="#0277BD" />
    <path fill="#00B0FF" d="M29.557 12.076c-.517.286-1.041.59-1.557.924.629.787.957 1.84.985 3.04a24.296 24.296 0 0 1 3.804-2.178 14.934 14.934 0 0 0-3.232-1.786z" />
    <path fill="#0091EA" d="M39 26c0-4.19-1.721-7.974-4.491-10.695-2.875 1.18-4.954 2.746-5.999 3.652-.881 2.677-2.993 5.625-6.51 8.043v7s2.796-5.109 9.417-6.667a56.899 56.899 0 0 1 7.578-1.234c0-.033.005-.065.005-.099z" />
    <path fill="#B3831D" d="M39.473 37H33v2h4.83a18.982 18.982 0 0 0 1.643-2zM22 7.107v37.786c.658.069 1.324.107 2 .107V7c-.676 0-1.342.038-2 .107zM11 39.83a19.107 19.107 0 0 0 2 1.643V10.527a19.107 19.107 0 0 0-2 1.643v27.66z" />
    <path fill="#01579B" d="M11 36.943c.609.723 1.28 1.392 2 2.005V13.051a17.136 17.136 0 0 0-2 2.005v21.887z" />
    <path fill="#FFC107" d="M10 3h12v36h20l-5 6H10l3-4V7z" />
    <path fill="#01579B" d="M24 37V9c-.678 0-1.343.051-2 .128V39h12.943a17.136 17.136 0 0 0 2.005-2H24z" />
    <path fill="#0277BD" d="M24 25.395A17.09 17.09 0 0 1 22 27v7s.636-1.149 2-2.521v-6.084z" />
    <path fill="#E8A30A" d="M22 39V3h-2v38h20.333L42 39z" />
    <path fill="#0091EA" d="M34 32c.917 2.917-2.167 5.045-4.583 5.045-1.322 0-2.958-.504-3.417-2.045a34.526 34.526 0 0 0-4 2.518V39h9.462a15.04 15.04 0 0 0 6.15-6.727C36.693 32.117 35.505 32 34 32z" />
    <path fill="#0277BD" d="M36.349 37.65c.196-.206.366-.435.551-.65h-6.89c-.2.027-.399.045-.593.045-.209 0-.426-.018-.644-.045H24v-.836a36.461 36.461 0 0 0-2 1.354V39h12.915c.497-.418.971-.863 1.418-1.333l.016-.017z" />
  </symbol>
  <symbol id="hearthstone" viewBox="0 0 512 512">
    <circle cx="256.7" cy="256" r="138.3" fill="#593810" />
    <path fill="#ff9c00" d="M400.3 311.8L494 256l-93.7-55.8c-4.7-12-10.6-22.6-17.9-33.2l21.3-59.2-58.6 21.2c-10-7.3-21.3-13.3-33.2-17.9L256 18l-55.8 93.7c-12 4.7-22.6 10.6-33.2 17.9l-58.5-21.3 21.3 58.5c-7.3 10-13.3 21.3-17.9 33.2L18 256l93.7 55.8c4.7 12 10.6 22.6 17.9 33.2l-21.3 59.2 58.5-21.3c10 7.3 21.3 13.3 33.2 17.9l56 93.2 55.8-93.7c12-4.7 22.6-10.6 33.2-17.9l59.2 21.3-21.2-58.6c7.3-10 13.3-21.3 17.3-33.3zM256 384.3c-70.5 0-128.3-57.2-128.3-128.3S185.5 127.7 256 127.7 384.3 185.5 384.3 256c0 70.5-57.8 128.3-128.3 128.3z" />
    <path fill="#39ccff" d="M341.8 252.7c.7-6-4.7-12-5.3-18.6 0-3.3-1.3-6.6-2.7-10-1.3-3.3-1.3-6.6-2-9.3h-.7c4-8-7.3-17.3-12.6-23.3-6.6-6.6-10-15.3-19.9-18.6-4.7-2-9.3-4.7-14.6-6.6-4.7-2-10-3.3-14-4.7-4.7-2-8-6-13.3-5.3-5.3.7-8 4-14 2.7-12-4-20.6 2.7-29.9 9.3-4.7 3.3-9.3 6-13.3 9.3-1.3 1.3-2.7 3.3-4 5.3-1.3 2-4 3.3-5.3 6-2.7 4-6.6 6.6-10.6 9.3-2 1.3-3.3 4-6 5.3-3.3 2-4 1.3-4 5.3 0 5.3 2.7 9.3 2.7 14v8c.7 2.7 1.3 4.7 2 7.3 1.3 4.7 0 10 2 14 2.7 4 5.3 8.6 8.6 12 3.3 4 6.6 8.6 10 13.3 2 2.7 9.3 6.6 9.3 10.6 5.3 1.3 6.6 7.3 11.3 7.3 2.7-.7 5.3-.7 7.3 0 2.7.7 4.7 1.3 7.3 2 4.7 0 8-4 12.6-5.3 4.7-1.3 10 0 14.6-2 8.6-5.3 14-14.6 14.6-24.6 0-5.3-1.3-10.6-4.7-14.6-2.7-4.7-.7-10-5.3-12.6-4.7-2-10-4-16-4-5.3-2-10.6-1.3-16 .7-8.6 6 10.6 19.9.7 24.6-11.3 4.7-17.3-8-19.9-16.6-1.3-5.3-1.3-11.3 0-16.6 0-2.7.7-4.7 1.3-7.3 1.3-2 4-3.3 6-4 4-2.7 7.3-6.6 11.3-9.3s9.3-4.7 14-6c6-1.3 12-1.3 17.9-1.3 2.7 0 5.3.7 8 .7s4.7-1.3 7.3-1.3c4 0 2.7 1.3 2.7 4.7 0 2 1.3 4 2.7 6 3.3 4 6 8 9.3 12 6.6 8 5.3 20.6 4.7 30.6-.7 5.3 0 10.6 1.3 16 2 6-2.7 6-6.6 9.3-2.7 4-5.3 8-7.3 12-3.3 4-6.6 7.3-10.6 10-3.3 3.3-7.3 6-10.6 8.6-4.7 2.7-9.3 5.3-14 7.3-5.3 2-11.3 3.3-16.6 4.7-2.7.7-5.3 1.3-8 2.7-2 1.3-3.3 4-6 5.3-6.6 4-14 3.3-21.3 6.6-4 2-17.3 2.7-17.9 7.3h-.7c2 4 6 7.3 10.6 8 4.7.7 9.3 2 13.3 3.3 4.7 2 8.6 2.7 13.3 3.3 4.7 0 8.6 2.7 13.3 3.3 5.3.7 9.3-3.3 14-4 5.3-.7 10.6-.7 16-1.3 5.3-.7 10-2 15.3-3.3 4.7-2 9.3-2 14-4 4.7-2 8.6-4 12.6-6.6 4-2.7 4.7-7.3 8.6-10 4-2.7 7.3-5.3 10.6-8.6 2.7-4 4.7-8.6 5.3-13.3 2-4 4.7-8 7.3-11.3 2-4.7 4-9.3 4.7-14 2-4.7 2-9.3 2-14.6-.7-2.7-3.3-4-2-7.3 3.9-3.8 4.6-5.8 5.3-7.8z" />
  </symbol>
  <symbol id="heroes-of-the-storm" viewBox="0 0 512 512">
    <path fill="#418af2" d="M422.6 352.8L256 449.6 89.4 352.8V160.6L256 63.8l166.6 96.8z" />
    <path fill="#fff" d="M256 46L69.5 150.6v210L256 466l186.5-105.4v-210z" />
    <path fill="#36aeea" d="M104.4 239.6c12.1-99.7 98.9-126.7 98.9-126.7C87.3 236.8 226.1 325 226.1 325l-94 20.6c.7.1-32.7-39.8-27.7-106z" class="st2" />
    <path fill="#36aeea" d="M315.8 397.7c-99.7 36.3-158-27.1-158-27.1 163 41.3 174.4-123.9 174.4-123.9l62.6 71.9s-17.8 51.3-79 79.1z" class="st2" />
    <path fill="#36aeea" d="M404.8 284.5c-49.8-163-190.1-85.4-190.1-85.4l29.9-94.7s59.8-7.8 113.9 38.4c66.2 57.7 46.3 141.7 46.3 141.7z" class="st2" />
  </symbol>
  <symbol id="braintree" viewBox="769.2 -375.7 1946 262.6">
    <path d="M881.8-120.5c53.5 0 86.2-23.6 86.2-65.9v-.1c-1.3-26.8-21-48.8-47.1-53.7l.4-.1c19.8-7 34.1-25.9 34.1-48.1v-1.3c0-38.7-29.9-61.4-79.1-61.4H769.2v34H796v163.8h-26.8v34l112.6-1.2zm-9.6-196.8c30.1 0 46.1 11.1 46.1 31.5s-16 31.5-44.6 31.5h-41v-63.1h39.5zm-39.5 95.8h43c36.7 0 55.5 11.7 55.5 34s-17.6 34-52.8 34h-45.7v-68zm362.7-28.6l-.1-.4c-5.1-25.8-27.9-45.2-55.2-45.2-1.4 0-2.7 0-3.9.1h.1-2.4c-25.2 0-47.2 13.7-59.1 34.4v-28.7h-64.3v34h29.5v102.4h-37.5v34h131.9v-34h-59.2v-44 .2c-.1-1.5-.2-3-.2-4.5 0-33.1 26.9-60 60-60h.5c13.1 0 24.1 9.1 27 21.5l32.9-9.8zm146.8 31.5l1.2.3c-14.6-4.4-30.1-6.9-46.2-7.1-37.7 0-78.6 17-78.6 58 0 35.4 30.3 53.5 65.5 53.5h-.2c1.8.1 3.7.2 5.6.2 21 0 40-9.1 53-23.8v18h61.4v-34h-24.8v-76c0-43.2-33.2-65.9-76-65.9h.1-2.4c-27.5 0-52.5 10.9-70.9 28.5l21.3 25.2c13-12.5 30.6-20.3 50-20.5 21.7 0 41 10 41 34v9.6zm-.2 35.2c0 24-29.1 37.9-55.1 37.9-18.8 0-32.4-7.2-32.4-22.3 0-20.5 21.7-27.6 44-27.6 15.6.1 30.6 2.7 43.6 7.2l-.1 4.8zm208.7 29.9v-136.2h-89.5v33.8h54.3v102.4h-71.1v34h171.8v-34h-65.5zm0-222.2h-39.5v52h39.5v-52zm107.9 256.2h88.5v-34h-27.2V-210.3c.8-28.2 23.9-50.7 52.2-50.7h1.2c16.4 0 34.4 8.4 34.4 37.9v69.6h-27.2v33.6h88.5v-34h-26V-233-234.3c0-33.9-27.5-61.4-61.4-61.4-1.3 0-2.6 0-3.7.1h.2c-1.4-.1-2.9-.1-4.4-.1-22.2 0-41.9 10.9-54.2 27.8v-21.9h-59.4v34h24.6v102.4h-26l-.1 33.9zm258.7-62.9c0 45.7 31.9 69.2 74.8 69.2h.2c28.8 0 54.6-12.5 72.5-32.4l-23.6-24.4-.1.1c-12.2 13.5-29.5 22.4-49.1 23.5h.2c-1.4.2-2.9.3-4.3.3-19.6 0-35.4-15.9-35.4-35.4 0-.7 0-1.3.1-1.9v-72.5h81.9v-34h-81.9v-61.4h-35.2v61.4H1873v34h44.4v73.5zm372.3-67.7l-.1-.4c-5.1-25.8-27.9-45.2-55.2-45.2-1.4 0-2.7 0-3.9.1h.1-2.4c-25.2 0-47.2 13.7-59.1 34.4v-28.7h-64.3v34h29.5v102.4h-37.5v34h131.7v-34h-59.2v-44 .2c-.1-1.5-.2-3-.2-4.5 0-33.1 26.9-60 60-60h.5c13.1 0 24.1 9.1 27 21.5l33.1-9.8zm180.1 80.4c-14.8 14.6-35.1 23.6-57.5 23.6h-2.1.2c-1.4.1-2.7.1-4.1.1-27.6 0-50.7-19.3-56.5-45.6h146.6v-5.9.3c.1-2.1.2-4.3.2-6.4 0-50.2-40.7-90.9-90.9-90.9h-.4.2c-1.4-.1-2.9-.1-4.3-.1-49 0-88.7 39.7-88.7 88.7v2.1c.2 49.8 40.7 90.1 90.5 90.1 2.3 0 4.6-.1 6.6-.2h-.2c1.2 0 2.3.1 3.5.1 31 0 59.3-12 80.3-31.6l-23.4-24.3zm-118.6-52.6l.1-.4c5.8-23.3 26.9-40.6 52.1-40.6h2c24.7 0 45.4 17.4 50.5 41h-104.7zm337.1 52.6c-14.8 14.6-35.1 23.6-57.5 23.6h-2.1.2c-1.4.1-2.7.1-4.1.1-27.6 0-50.7-19.3-56.5-45.6H2715v-5.9.3c.1-2.1.2-4.3.2-6.4 0-50.2-40.7-90.9-90.9-90.9h-.4.2c-1.4-.1-2.9-.1-4.3-.1-49 0-88.7 39.7-88.7 88.7v2.1c.2 49.8 40.7 90.1 90.5 90.1 2.2 0 4.4-.1 6.3-.2h-.2c1.2 0 2.3.1 3.5.1 31 0 59.3-12 80.3-31.6l-23.3-24.3zm-118.4-52.6l.1-.4c5.8-23.3 26.9-40.6 52.1-40.6h2c24.7 0 45.4 17.4 50.5 41h-104.7z" />
  </symbol>
  <symbol id="pvehero" viewBox="0 0 1500 1500">
    <path d="M1257.777 251.936L951.658 75.183c-124.776-72.037-278.54-72.037-403.316 0L242.227 251.936C117.432 323.972 40.548 457.147 40.548 601.216v353.507c0 144.111 76.884 277.249 201.679 349.281l277.721 160.351c33.423 19.318 74.599 19.318 108.022 0 33.412-19.276 54.005-54.951 54.005-93.542V952.85c-103.583 15.206-182.979 68.883-182.979 185.455v104.521l-164.165-94.784c-69.839-40.307-112.898-114.856-112.898-195.55v-349c0-80.696 43.059-155.206 112.898-195.553l164.165-94.782v104.56c0 116.57 79.396 170.249 182.979 185.414V405.745L750 360.409l68.024 45.336v197.386c103.583-15.165 182.978-68.844 182.978-185.414v-104.56l164.166 94.782c69.858 40.347 112.898 114.856 112.898 195.553v349c0 80.693-43.04 155.243-112.898 195.55l-164.166 94.784v-104.521c0-116.572-79.395-170.249-182.978-185.455v417.964c0 38.591 20.594 74.266 54.006 93.542 33.425 19.318 74.599 19.318 108.024 0l277.723-160.351c124.793-72.032 201.675-205.17 201.675-349.281V601.216c0-144.069-76.882-277.244-201.675-349.28z" />
  </symbol>
  <symbol id="destiny-2" viewBox="0 0 512 512">
    <path fill="#fff" d="M255.8 258.6c24.2 0 44.4-19.6 45.1-43.8v-77.1c0-24.8-20.3-45.1-45.1-45.1s-45.1 20.3-45.1 45.1v77.1c.7 24.2 20.3 43.8 45.1 43.8zM399.6 58c-28.1 0-47 19.6-70.6 30.7-2 .7-3.3 1.3-5.2 2.6v123.5c-.7 36.6-30.7 66.7-67.3 66.7-37.2 0-68-30.1-68-68V91.3c-2-.7-3.3-1.3-5.2-2.6C159.8 77 140.2 58 112.1 58c-47.7 0-81.7 48.4-65.3 93.4 7.2 19.6 21.6 30.7 37.9 41.2 20.3 13.1 38.6 28.8 53.6 47.7 22.2 27.4 37.2 60.8 44.4 96.1 3.3 16.3 5.2 38.6 6.5 53.6 3.3 35.3 27.4 64 66.7 64s63.4-28.8 66.7-64c1.3-15 3.3-37.2 7.2-53.6 7.2-34.6 22.2-68 44.4-96.1 15-19 33.3-34.6 53.6-47.7 17-10.5 31.4-21.6 37.9-41.2 15.6-45-19.1-93.4-66.1-93.4z" />
  </symbol>
  <symbol id="overwatch" viewBox="0 0 512 512">
    <path fill="#ffba0d" d="M258.3 46h-4.8c-43.6 0-86.4 14.3-121.8 40.8l40.8 45.6c22.5-15 46.3-25.2 81.7-25.9 37.4 0 62.6 10.9 85.8 25.9l40.8-45.6C346.1 60.3 302.5 45.3 258.3 46z" />
    <path fill="#fff" d="M401.2 103.2L361 148.1l1.4 1.4c47.6 47.6 57.9 121.8 24.5 180.4L306.6 253l-38.1-88.5v134.8l78.3 75.6c-4.1 2.7-8.2 6.1-12.3 8.2l-2.7 2c-22.5 12.9-47.6 19.7-73.5 19.7h-4.1c-25.9 0-51.1-6.8-73.5-19.7l-2.7-1.4c-4.1-2.7-8.2-5.4-12.3-8.2l76.9-76.2V164.5L204.5 253l-79 76.9c-33.4-58.5-23.1-132.7 23.8-180.4l2-2-40.2-44.9-4.8 4.8c-81 81.7-80.3 215.1 0 296.1l2.7 2.7c19.1 18.4 40.2 32.7 64.7 42.9l5.4 2 2 2 5.4 2c6.8 2.7 14.3 4.8 21.8 6.1l13.6 2.7 14.3 2H255.9l4.8-.7H276.4l14.3-2 13.6-2.7c7.5-1.4 15-4.1 21.8-6.1l4.1-1.4 7.5-3.4.7-.7c23.1-9.5 44.9-23.8 63.3-41.5l8.2-8.2c77.8-83.6 74.4-216.4-8.7-296z" />
  </symbol>
  <symbol id="credit-card" viewBox="0 0 576 512">
    <path d="M528 32H48C21.5 32 0 53.5 0 80v352c0 26.5 21.5 48 48 48h480c26.5 0 48-21.5 48-48V80c0-26.5-21.5-48-48-48zM48 64h480c8.8 0 16 7.2 16 16v48H32V80c0-8.8 7.2-16 16-16zm480 384H48c-8.8 0-16-7.2-16-16V224h512v208c0 8.8-7.2 16-16 16zm-336-84v8c0 6.6-5.4 12-12 12h-72c-6.6 0-12-5.4-12-12v-8c0-6.6 5.4-12 12-12h72c6.6 0 12 5.4 12 12zm192 0v8c0 6.6-5.4 12-12 12H236c-6.6 0-12-5.4-12-12v-8c0-6.6 5.4-12 12-12h136c6.6 0 12 5.4 12 12z" />
  </symbol>
  <symbol id="skype-color" viewBox="10.589 10.32 46.699 47.375">
    <path fill="#FFF" d="M34.533 52.561c-9.387 0-20.053-11.307-19.2-20.694.853-8.96 12.8-17.28 21.653-16 7.787 1.066 14.721 10.88 14.293 18.667-.425 8.212-8.533 18.027-16.746 18.027z" />
    <path fill="#00AFF0" d="M41.254 57.359c-.641-.213-1.601-.426-2.134-.64-.64-.319-1.387-.319-3.733-.213-2.24.106-3.414 0-5.013-.214C21.84 54.8 15.013 48.613 12.56 40.08c-.427-1.6-.533-2.453-.533-6.293 0-4.161-.107-4.48-.64-6.187-3.093-8.427 3.2-17.28 12.16-17.28 1.813 0 4.053.534 5.333 1.173.854.427 1.387.533 4.693.533 2.987 0 4.16.107 5.653.534 6.721 1.707 12.16 6.08 15.04 12.16 1.813 3.733 2.454 7.574 2.026 11.946-.213 2.348-.213 2.561.32 3.947 1.707 5.014.107 10.773-4.053 14.187-1.281 1.067-3.84 2.24-5.44 2.667-1.601.32-4.16.32-5.761-.107h-.104zm-2.881-8.213c3.521-.746 6.613-2.88 7.787-5.439 1.493-3.094 1.066-6.721-.96-8.961-1.707-1.92-4.267-2.986-10.347-4.479-4.054-.96-5.014-1.387-5.867-2.347-.747-.854-.854-1.493-.213-2.453.64-1.067 2.24-1.707 4.373-1.813 3.094-.213 4.48.533 6.293 3.413 1.387 2.134 2.773 2.667 4.588 1.813 2.346-1.173 2.133-5.013-.428-7.253-2.453-2.026-5.119-2.88-9.6-2.88-4.693 0-7.894.96-10.027 3.093-1.707 1.707-2.026 2.667-2.026 5.333 0 2.773.32 3.626 2.133 5.227 1.92 1.813 3.52 2.454 9.279 3.84 4.054.96 5.121 1.493 6.08 2.56.428.534.641.96.641 1.92 0 1.067-.107 1.28-.96 2.134-1.28 1.279-3.2 1.812-5.653 1.707-2.88-.214-4.16-1.067-5.653-4.054-1.067-2.026-1.92-2.773-3.307-2.773-3.094 0-4.16 2.56-2.56 5.866 1.387 2.881 4.16 4.801 7.68 5.547 2.133.427 6.827.427 8.854 0h-.107z" />
  </symbol>

  <symbol id="discount" viewBox="0 0 100 100">
    <path d="M60.86 57.5c0-2.3 1.38-4.31 3-4.31s3 2 3 4.31-1.38 4.31-3 4.31-3-2.01-3-4.31zM36.19 46.81c1.57 0 3-2 3-4.31s-1.38-4.31-3-4.31-3 2-3 4.31 1.43 4.31 3 4.31zM5 45.28l1.81-1.59a6.14 6.14 0 0 0 1.61-7l-.93-2.23a6.14 6.14 0 0 1 4-8.28l2.33-.65A6.14 6.14 0 0 0 18.27 20l.13-2.41a6.14 6.14 0 0 1 6.12-5.81 6.21 6.21 0 0 1 1.09.1l2.38.43a6.14 6.14 0 0 0 6.46-3.09l1.15-2.16a6.13 6.13 0 0 1 9-2l2 1.41a6.14 6.14 0 0 0 7.16 0l2-1.4a6.14 6.14 0 0 1 9 2.07l1.15 2.12a6.14 6.14 0 0 0 5.4 3.22 6.07 6.07 0 0 0 1-.09L74.6 12a6.22 6.22 0 0 1 1.06-.09 6.14 6.14 0 0 1 6.12 5.85l.11 2.41a6.14 6.14 0 0 0 4.45 5.61l2.32.66a6.14 6.14 0 0 1 4 8.3l-.94 2.22a6.14 6.14 0 0 0 1.58 7l1.8 1.6a6.14 6.14 0 0 1 0 9.2l-1.81 1.59a6.14 6.14 0 0 0-1.61 7l.93 2.23a6.14 6.14 0 0 1-4 8.28l-2.33.65A6.14 6.14 0 0 0 81.73 80l-.13 2.41a6.14 6.14 0 0 1-6.12 5.81 6.21 6.21 0 0 1-1.09-.1L72 87.74a6.13 6.13 0 0 0-6.46 3.09l-1.14 2.11a6.13 6.13 0 0 1-9 2l-2-1.41a6.14 6.14 0 0 0-7.16 0l-2 1.4a6.13 6.13 0 0 1-9-2.07l-1.15-2.12a6.14 6.14 0 0 0-6.44-3.13L25.4 88a6.22 6.22 0 0 1-1.06.09 6.14 6.14 0 0 1-6.12-5.85l-.12-2.41a6.14 6.14 0 0 0-4.45-5.61l-2.32-.66a6.14 6.14 0 0 1-4-8.3l.94-2.22a6.14 6.14 0 0 0-1.58-7l-1.8-1.6A6.14 6.14 0 0 1 5 45.28zM54.49 57.5c0 5.89 4.18 10.69 9.32 10.69s9.32-4.79 9.32-10.69S69 46.81 63.81 46.81s-9.32 4.8-9.32 10.69zM38 64.93A3.19 3.19 0 1 0 43.54 68L62 35.07A3.19 3.19 0 1 0 56.46 32zM26.86 42.5c0 5.89 4.18 10.69 9.32 10.69S45.5 48.4 45.5 42.5s-4.18-10.69-9.32-10.69-9.32 4.8-9.32 10.69z" />
  </symbol>
  <symbol id="bolt" viewBox="0 0 320 512">
    <path d="M295.973 160H180.572L215.19 30.184C219.25 14.956 207.756 0 192 0H56C43.971 0 33.8 8.905 32.211 20.828l-31.996 240C-1.704 275.217 9.504 288 24.004 288h118.701L96.646 482.466C93.05 497.649 104.659 512 119.992 512c8.35 0 16.376-4.374 20.778-11.978l175.973-303.997c9.244-15.967-2.288-36.025-20.77-36.025z" />
  </symbol>
  <symbol id="arrow-from-right" viewBox="0 0 448 512">
    <path d="M448 88v336c0 13.3-10.7 24-24 24h-24c-13.3 0-24-10.7-24-24V88c0-13.3 10.7-24 24-24h24c13.3 0 24 10.7 24 24zM193.5 357.6L127.9 292H328c13.3 0 24-10.7 24-24v-24c0-13.3-10.7-24-24-24H127.9l65.6-65.6c9.4-9.4 9.4-24.6 0-33.9l-17-17c-9.4-9.4-24.6-9.4-33.9 0L7 239c-9.4 9.4-9.4 24.6 0 33.9l135.5 135.5c9.4 9.4 24.6 9.4 33.9 0l17-17c9.4-9.3 9.4-24.5.1-33.8z" />
  </symbol>
  <symbol id="power-off" viewBox="0 0 512 512">
    <path d="M400 54.1c63 45 104 118.6 104 201.9 0 136.8-110.8 247.7-247.5 248C120 504.3 8.2 393 8 256.4 7.9 173.1 48.9 99.3 111.8 54.2c11.7-8.3 28-4.8 35 7.7L162.6 90c5.9 10.5 3.1 23.8-6.6 31-41.5 30.8-68 79.6-68 134.9-.1 92.3 74.5 168.1 168 168.1 91.6 0 168.6-74.2 168-169.1-.3-51.8-24.7-101.8-68.1-134-9.7-7.2-12.4-20.5-6.5-30.9l15.8-28.1c7-12.4 23.2-16.1 34.8-7.8zM296 264V24c0-13.3-10.7-24-24-24h-32c-13.3 0-24 10.7-24 24v240c0 13.3 10.7 24 24 24h32c13.3 0 24-10.7 24-24z" />
  </symbol>
  <symbol id="security" viewBox="-255 347 100 100">
    <path d="M-160.4 409.7V364c0-3.5-2.8-6.3-6.3-6.3h-74.6c-3.5 0-6.3 2.8-6.3 6.3v56.2c.1 3 2.6 5.4 5.6 5.4h28.3c-.1 1.3-.8 7-9.3 8h.3c-1.3 0-2.4 1.1-2.4 2.4 0 1.3 1.1 2.4 2.4 2.4h37.3c1.3 0 2.4-1.1 2.4-2.4 0-1.3-1.1-2.4-2.4-2.4h.4c-8.5-1.1-9.2-6.8-9.3-8h28.3c3 0 5.5-2.4 5.6-5.4v-10.5zm-43.7 12.6c-1.7 0-3.1-1.4-3.1-3.1 0-1.7 1.4-3.1 3.1-3.1s3.1 1.4 3.1 3.1-1.4 3.1-3.1 3.1zm38.4-11.5c0 .6-.5 1.1-1.1 1.1h-74.6c-.6 0-1.1-.5-1.1-1.1V364c0-.6.5-1.1 1.1-1.1h74.6c.6 0 1.1.5 1.1 1.1v46.8z" />
    <path fill="#a7ffa5" d="M-191.9 386.2c-.4-1.3-1.1-1.8-2.4-1.8h-.6v-1.7c0-1.5.1-3 0-4.5-.3-4-3.4-7.5-7.3-8.4-.5-.1-1.1-.2-1.6-.3h-1.2c-.3 0-.6.1-.8.1-4.6.7-8.1 4.7-8.1 9.4v5.4h-.6c-1.4 0-2 .5-2.4 1.8v16.6c.1.1.1.3.2.4.3.7.8 1.1 1.4 1.3.1 0 .2.1.3.1h21.7c.2-.1.3-.1.5-.2.6-.3 1.1-.8 1.3-1.4 0-.1.1-.2.1-.2-.4-5.4-.4-11-.5-16.6.1.1 0 .1 0 0zm-11.2 9.2c-.2.1-.2.3-.2.5v3.1c0 .7-.5 1.2-1.2 1.2s-1.2-.5-1.2-1.2v-3.1c0-.2 0-.3-.2-.5-.9-.7-1.2-1.8-.8-2.9.5-1 1.5-1.6 2.6-1.4 1.1.2 2 1.2 2 2.3 0 .9-.3 1.5-1 2zm4.1-12.6s0 .1 0 0v1.7h-11v-1.3-.2-2.5c0-.7 0-1.4.1-2.2.4-2.8 3-4.8 5.9-4.6 2.8.2 5 2.5 5.1 5.3-.1 1.3-.1 2.5-.1 3.8z" />
  </symbol>
  <symbol id="lock" viewBox="0 0 448 512">
    <path d="M400 224h-24v-72C376 68.2 307.8 0 224 0S72 68.2 72 152v72H48c-26.5 0-48 21.5-48 48v192c0 26.5 21.5 48 48 48h352c26.5 0 48-21.5 48-48V272c0-26.5-21.5-48-48-48zm-104 0H152v-72c0-39.7 32.3-72 72-72s72 32.3 72 72v72z" />
  </symbol>
  <symbol id="shield" viewBox="0 0 512 512">
    <path d="M237.5 508.3c11.8 4.9 25.1 4.9 36.9 0C360.1 472.6 496 349.3 496 128c0-19.4-11.7-36.9-29.5-44.3l-192-80a48.15 48.15 0 0 0-36.9 0l-192 80C27.7 91.1 16 108.6 16 128c0 198.5 114.5 335.7 221.5 380.3zM256 48l192 80c0 173.8-98.4 297-192 336-97.5-40.6-192-166.7-192-336l192-80z" />
  </symbol>
  <symbol id="ban" viewBox="0 0 512 512">
    <path d="M256 8C119.034 8 8 119.033 8 256s111.034 248 248 248 248-111.034 248-248S392.967 8 256 8zm130.108 117.892c65.448 65.448 70 165.481 20.677 235.637L150.47 105.216c70.204-49.356 170.226-44.735 235.638 20.676zM125.892 386.108c-65.448-65.448-70-165.481-20.677-235.637L361.53 406.784c-70.203 49.356-170.226 44.736-235.638-20.676z" />
  </symbol>
  <symbol id="home" viewBox="0 0 576 512">
    <path d="M488 312.7V456c0 13.3-10.7 24-24 24H348c-6.6 0-12-5.4-12-12V356c0-6.6-5.4-12-12-12h-72c-6.6 0-12 5.4-12 12v112c0 6.6-5.4 12-12 12H112c-13.3 0-24-10.7-24-24V312.7c0-3.6 1.6-7 4.4-9.3l188-154.8c4.4-3.6 10.8-3.6 15.3 0l188 154.8c2.7 2.3 4.3 5.7 4.3 9.3zm83.6-60.9L488 182.9V44.4c0-6.6-5.4-12-12-12h-56c-6.6 0-12 5.4-12 12V117l-89.5-73.7c-17.7-14.6-43.3-14.6-61 0L4.4 251.8c-5.1 4.2-5.8 11.8-1.6 16.9l25.5 31c4.2 5.1 11.8 5.8 16.9 1.6l235.2-193.7c4.4-3.6 10.8-3.6 15.3 0l235.2 193.7c5.1 4.2 12.7 3.5 16.9-1.6l25.5-31c4.2-5.2 3.4-12.7-1.7-16.9z" />
  </symbol>
  <symbol id="key" viewBox="0 0 512 512">
    <path d="M512 176.001C512 273.203 433.202 352 336 352c-11.22 0-22.19-1.062-32.827-3.069l-24.012 27.014A23.999 23.999 0 0 1 261.223 384H224v40c0 13.255-10.745 24-24 24h-40v40c0 13.255-10.745 24-24 24H24c-13.255 0-24-10.745-24-24v-78.059c0-6.365 2.529-12.47 7.029-16.971l161.802-161.802C163.108 213.814 160 195.271 160 176 160 78.798 238.797.001 335.999 0 433.488-.001 512 78.511 512 176.001zM336 128c0 26.51 21.49 48 48 48s48-21.49 48-48-21.49-48-48-48-48 21.49-48 48z" />
  </symbol>

  <symbol id="chevron-double-right" viewBox="0 0 512 512">
    <path d="M477.5 273L283.1 467.3c-9.4 9.4-24.6 9.4-33.9 0l-22.7-22.7c-9.4-9.4-9.4-24.5 0-33.9l154-154.7-154-154.7c-9.3-9.4-9.3-24.5 0-33.9l22.7-22.7c9.4-9.4 24.6-9.4 33.9 0L477.5 239c9.3 9.4 9.3 24.6 0 34zm-192-34L91.1 44.7c-9.4-9.4-24.6-9.4-33.9 0L34.5 67.4c-9.4 9.4-9.4 24.5 0 33.9l154 154.7-154 154.7c-9.3 9.4-9.3 24.5 0 33.9l22.7 22.7c9.4 9.4 24.6 9.4 33.9 0L285.5 273c9.3-9.4 9.3-24.6 0-34z" />
  </symbol>
  <symbol id="chevron-double-left" viewBox="0 0 512 512">
    <path d="M34.5 239L228.9 44.7c9.4-9.4 24.6-9.4 33.9 0l22.7 22.7c9.4 9.4 9.4 24.5 0 33.9L131.5 256l154 154.7c9.3 9.4 9.3 24.5 0 33.9l-22.7 22.7c-9.4 9.4-24.6 9.4-33.9 0L34.5 273c-9.3-9.4-9.3-24.6 0-34zm192 34l194.3 194.3c9.4 9.4 24.6 9.4 33.9 0l22.7-22.7c9.4-9.4 9.4-24.5 0-33.9L323.5 256l154-154.7c9.3-9.4 9.3-24.5 0-33.9l-22.7-22.7c-9.4-9.4-24.6-9.4-33.9 0L226.5 239c-9.3 9.4-9.3 24.6 0 34z" />
  </symbol>
  <symbol id="address-book" viewBox="0 0 448 512">
    <path d="M436 160c6.627 0 12-5.373 12-12v-40c0-6.627-5.373-12-12-12h-20V48c0-26.51-21.49-48-48-48H80C53.49 0 32 21.49 32 48v416c0 26.51 21.49 48 48 48h288c26.51 0 48-21.49 48-48v-48h20c6.627 0 12-5.373 12-12v-40c0-6.627-5.373-12-12-12h-20v-64h20c6.627 0 12-5.373 12-12v-40c0-6.627-5.373-12-12-12h-20v-64h20zM224 96c53.019 0 96 42.981 96 96s-42.981 96-96 96-96-42.981-96-96 42.981-96 96-96zm128 304c0 26.51-21.49 48-48 48H144c-26.51 0-48-21.49-48-48v-48.711c0-20.994 13.644-39.553 33.683-45.815l22.954-7.173C173.563 312.413 198.198 320 224 320s50.437-7.587 71.363-21.699l22.954 7.173C338.356 311.736 352 330.295 352 351.289V400z" />
  </symbol>
  <symbol id="cog" viewBox="0 0 512 512">
    <path d="M444.788 291.1l42.616 24.599c4.867 2.809 7.126 8.618 5.459 13.985-11.07 35.642-29.97 67.842-54.689 94.586a12.016 12.016 0 0 1-14.832 2.254l-42.584-24.595a191.577 191.577 0 0 1-60.759 35.13v49.182a12.01 12.01 0 0 1-9.377 11.718c-34.956 7.85-72.499 8.256-109.219.007-5.49-1.233-9.403-6.096-9.403-11.723v-49.184a191.555 191.555 0 0 1-60.759-35.13l-42.584 24.595a12.016 12.016 0 0 1-14.832-2.254c-24.718-26.744-43.619-58.944-54.689-94.586-1.667-5.366.592-11.175 5.459-13.985L67.212 291.1a193.48 193.48 0 0 1 0-70.199l-42.616-24.599c-4.867-2.809-7.126-8.618-5.459-13.985 11.07-35.642 29.97-67.842 54.689-94.586a12.016 12.016 0 0 1 14.832-2.254l42.584 24.595a191.577 191.577 0 0 1 60.759-35.13V25.759a12.01 12.01 0 0 1 9.377-11.718c34.956-7.85 72.499-8.256 109.219-.007 5.49 1.233 9.403 6.096 9.403 11.723v49.184a191.555 191.555 0 0 1 60.759 35.13l42.584-24.595a12.016 12.016 0 0 1 14.832 2.254c24.718 26.744 43.619 58.944 54.689 94.586 1.667 5.366-.592 11.175-5.459 13.985L444.788 220.9a193.485 193.485 0 0 1 0 70.2zM336 256c0-44.112-35.888-80-80-80s-80 35.888-80 80 35.888 80 80 80 80-35.888 80-80z" />
  </symbol>
  <symbol id="coins" viewBox="0 0 960 960">
    <path d="M557.484 762.058v100.22c31.066 6.566 66.725 10.617 105.366 10.617 128.425 0 224.394-43.592 224.394-82.473V715.44c-45.734 34.233-127.235 56.213-224.394 56.213-37.94.001-73.397-3.458-105.366-9.595zm0-140.879V721.4c31.066 6.568 66.725 10.617 105.366 10.617 128.425 0 224.394-43.558 224.394-82.509V574.6c-45.734 34.162-127.235 56.175-224.394 56.175-37.94.018-73.397-3.44-105.366-9.596zM438.496 292.898v56.875c63.102 17.674 110.908 47.984 117.84 89.778 31.298 6.715 67.369 10.799 106.517 10.799 128.424 0 224.394-43.519 224.394-82.503v-74.949c-45.734 34.25-127.235 56.228-224.394 56.228-97.125 0-178.642-21.978-224.357-56.228zm0-140.842v74.946c0 38.896 95.949 82.454 224.356 82.454 128.424 0 224.394-43.558 224.394-82.454v-74.946c-45.734 34.214-127.235 56.191-224.394 56.191-97.124.019-178.641-21.959-224.356-56.191zM297.112 367.559c-128.421 0-224.358 43.554-224.358 82.47 0 38.948 95.937 82.506 224.358 82.506 128.423 0 224.374-43.559 224.374-82.506 0-38.952-95.969-82.47-224.374-82.47zm260.372 112.797v100.255c31.066 6.567 66.725 10.583 105.366 10.583 128.425 0 224.394-43.559 224.394-82.509v-74.914c-45.734 34.2-127.235 56.141-224.394 56.141-37.94.002-73.397-3.438-105.366-9.556zM72.754 797.624v74.913c0 38.984 95.937 82.504 224.358 82.504 128.423 0 224.374-43.52 224.374-82.504v-74.913c-45.733 34.201-127.234 56.174-224.374 56.174-97.158 0-178.658-21.957-224.358-56.174zm590.099-628.992c128.424 0 224.394-43.539 224.394-82.508 0-38.914-95.971-82.471-224.394-82.471-128.407 0-224.356 43.557-224.356 82.471-.001 38.969 95.948 82.508 224.356 82.508zM72.754 656.763v74.95c0 38.949 95.937 82.507 224.358 82.507 128.423 0 224.374-43.558 224.374-82.507v-74.95c-45.733 34.232-127.234 56.213-224.374 56.213-97.158-.001-178.658-21.981-224.358-56.213zm0-140.824v74.946c0 38.879 95.937 82.437 224.358 82.437 128.423 0 224.374-43.558 224.374-82.437v-74.946c-45.733 34.196-127.234 56.213-224.374 56.213-97.158 0-178.658-22.013-224.358-56.213z" />
  </symbol>
  <symbol id="wallet" viewBox="0 0 1008 1008">
    <g transform="matrix(1 0 0 -1 0 864)">
      <path d="M732 209c21 0 39 7 54 22s22 33 22 54s-7 39 -22 54s-33 22 -54 22s-39 -7 -54 -22s-22 -33 -22 -54s7 -39 22 -54s33 -22 54 -22zM176 562h630h2c28 0 52 -10 72 -30s30 -44 30 -72v-403c0 -28 -10 -52 -30 -72s-44 -30 -72 -30h-605c-28 0 -52 10 -72 30s-30 44 -30 72 v504c0 28 10 53 30 76s43 36 70 40l506 72c18 3 35 1 50 -6s27 -18 36 -32s13 -30 13 -48v-76h-76v44l-554 -44v-25z" />
    </g>
  </symbol>
  <symbol id="list" viewBox="0 0 512 512">
    <path d="M80 368H16a16 16 0 0 0-16 16v64a16 16 0 0 0 16 16h64a16 16 0 0 0 16-16v-64a16 16 0 0 0-16-16zm0-320H16A16 16 0 0 0 0 64v64a16 16 0 0 0 16 16h64a16 16 0 0 0 16-16V64a16 16 0 0 0-16-16zm0 160H16a16 16 0 0 0-16 16v64a16 16 0 0 0 16 16h64a16 16 0 0 0 16-16v-64a16 16 0 0 0-16-16zm416 176H176a16 16 0 0 0-16 16v32a16 16 0 0 0 16 16h320a16 16 0 0 0 16-16v-32a16 16 0 0 0-16-16zm0-320H176a16 16 0 0 0-16 16v32a16 16 0 0 0 16 16h320a16 16 0 0 0 16-16V80a16 16 0 0 0-16-16zm0 160H176a16 16 0 0 0-16 16v32a16 16 0 0 0 16 16h320a16 16 0 0 0 16-16v-32a16 16 0 0 0-16-16z"></path>
  </symbol>
  <symbol id="grid" viewBox="0 0 512 512">
    <path d="M149.333 56v80c0 13.255-10.745 24-24 24H24c-13.255 0-24-10.745-24-24V56c0-13.255 10.745-24 24-24h101.333c13.255 0 24 10.745 24 24zm181.334 240v-80c0-13.255-10.745-24-24-24H205.333c-13.255 0-24 10.745-24 24v80c0 13.255 10.745 24 24 24h101.333c13.256 0 24.001-10.745 24.001-24zm32-240v80c0 13.255 10.745 24 24 24H488c13.255 0 24-10.745 24-24V56c0-13.255-10.745-24-24-24H386.667c-13.255 0-24 10.745-24 24zm-32 80V56c0-13.255-10.745-24-24-24H205.333c-13.255 0-24 10.745-24 24v80c0 13.255 10.745 24 24 24h101.333c13.256 0 24.001-10.745 24.001-24zm-205.334 56H24c-13.255 0-24 10.745-24 24v80c0 13.255 10.745 24 24 24h101.333c13.255 0 24-10.745 24-24v-80c0-13.255-10.745-24-24-24zM0 376v80c0 13.255 10.745 24 24 24h101.333c13.255 0 24-10.745 24-24v-80c0-13.255-10.745-24-24-24H24c-13.255 0-24 10.745-24 24zm386.667-56H488c13.255 0 24-10.745 24-24v-80c0-13.255-10.745-24-24-24H386.667c-13.255 0-24 10.745-24 24v80c0 13.255 10.745 24 24 24zm0 160H488c13.255 0 24-10.745 24-24v-80c0-13.255-10.745-24-24-24H386.667c-13.255 0-24 10.745-24 24v80c0 13.255 10.745 24 24 24zM181.333 376v80c0 13.255 10.745 24 24 24h101.333c13.255 0 24-10.745 24-24v-80c0-13.255-10.745-24-24-24H205.333c-13.255 0-24 10.745-24 24z"></path>
  </symbol>
  <symbol id="sort" viewBox="0 0 320 512">
    <path d="M41 288h238c21.4 0 32.1 25.9 17 41L177 448c-9.4 9.4-24.6 9.4-33.9 0L24 329c-15.1-15.1-4.4-41 17-41zm255-105L177 64c-9.4-9.4-24.6-9.4-33.9 0L24 183c-15.1 15.1-4.4 41 17 41h238c21.4 0 32.1-25.9 17-41z" />
  </symbol>
  <symbol id="life-ring" viewBox="0 0 512 512">
    <path d="M256 8C119.033 8 8 119.033 8 256s111.033 248 248 248 248-111.033 248-248S392.967 8 256 8zm168.766 113.176l-62.885 62.885a128.711 128.711 0 0 0-33.941-33.941l62.885-62.885a217.323 217.323 0 0 1 33.941 33.941zM256 352c-52.935 0-96-43.065-96-96s43.065-96 96-96 96 43.065 96 96-43.065 96-96 96zM363.952 68.853l-66.14 66.14c-26.99-9.325-56.618-9.33-83.624 0l-66.139-66.14c66.716-38.524 149.23-38.499 215.903 0zM121.176 87.234l62.885 62.885a128.711 128.711 0 0 0-33.941 33.941l-62.885-62.885a217.323 217.323 0 0 1 33.941-33.941zm-52.323 60.814l66.139 66.14c-9.325 26.99-9.33 56.618 0 83.624l-66.139 66.14c-38.523-66.715-38.5-149.229 0-215.904zm18.381 242.776l62.885-62.885a128.711 128.711 0 0 0 33.941 33.941l-62.885 62.885a217.366 217.366 0 0 1-33.941-33.941zm60.814 52.323l66.139-66.14c26.99 9.325 56.618 9.33 83.624 0l66.14 66.14c-66.716 38.524-149.23 38.499-215.903 0zm242.776-18.381l-62.885-62.885a128.711 128.711 0 0 0 33.941-33.941l62.885 62.885a217.323 217.323 0 0 1-33.941 33.941zm52.323-60.814l-66.14-66.14c9.325-26.99 9.33-56.618 0-83.624l66.14-66.14c38.523 66.715 38.5 149.229 0 215.904z" />
  </symbol>
  <symbol id="users" viewBox="0 0 640 512">
    <path d="M573.127 249.095C584.979 233.127 592 213.369 592 192c0-52.935-43.065-96-96-96-26.331 0-50.217 10.658-67.578 27.885a128.993 128.993 0 0 0-17.913-22.394C386.334 77.314 354.19 64 320 64s-66.334 13.314-90.51 37.49a129.115 129.115 0 0 0-17.913 22.394C194.217 106.658 170.331 96 144 96c-52.935 0-96 43.065-96 96 0 21.369 7.021 41.127 18.873 57.095C28.987 255.378 0 288.36 0 328v44c0 24.262 19.738 44 44 44h117.677c5.238 18.445 22.222 32 42.323 32h232c20.102 0 37.085-13.555 42.323-32H596c24.262 0 44-19.738 44-44v-44c0-39.64-28.986-72.622-66.873-78.905zM496 128c35.346 0 64 28.654 64 64s-28.654 64-64 64c-22.083 0-41.554-11.185-53.057-28.199C446.27 216.314 448 204.291 448 192s-1.73-24.314-5.057-35.801C454.446 139.185 473.917 128 496 128zM320 96c53.02 0 96 42.981 96 96s-42.98 96-96 96-96-42.981-96-96 42.98-96 96-96zm-176 32c22.083 0 41.554 11.185 53.057 28.199C193.73 167.686 192 179.709 192 192s1.73 24.314 5.057 35.801C185.554 244.815 166.083 256 144 256c-35.346 0-64-28.654-64-64s28.654-64 64-64zm16 224v32H44c-6.627 0-12-5.373-12-12v-44c0-26.51 21.49-48 48-48h25.655c24.374 10.662 52.272 10.681 76.689 0h22.81C178.452 292.976 160 320.372 160 352zm288 52c0 6.627-5.373 12-12 12H204c-6.627 0-12-5.373-12-12v-52c0-26.51 21.49-48 48-48h17.929c37.818 21.031 85.208 21.651 124.142 0H400c26.51 0 48 21.49 48 48v52zm160-32c0 6.627-5.373 12-12 12H480v-32c0-31.628-18.452-59.024-45.154-72h22.81c24.374 10.662 52.272 10.681 76.689 0H560c26.51 0 48 21.49 48 48v44z" />
  </symbol>
  <symbol id="user" viewBox="0 0 448 512">
    <path d="M224 256c70.7 0 128-57.3 128-128S294.7 0 224 0 96 57.3 96 128s57.3 128 128 128zm89.6 32h-16.7c-22.2 10.2-46.9 16-72.9 16s-50.6-5.8-72.9-16h-16.7C60.2 288 0 348.2 0 422.4V464c0 26.5 21.5 48 48 48h352c26.5 0 48-21.5 48-48v-41.6c0-74.2-60.2-134.4-134.4-134.4z" />
  </symbol>
  <symbol id="info-square" viewBox="0 0 448 512">
    <path d="M400 32H48C21.49 32 0 53.49 0 80v352c0 26.51 21.49 48 48 48h352c26.51 0 48-21.49 48-48V80c0-26.51-21.49-48-48-48zm-176 86c23.196 0 42 18.804 42 42s-18.804 42-42 42-42-18.804-42-42 18.804-42 42-42zm56 254c0 6.627-5.373 12-12 12h-88c-6.627 0-12-5.373-12-12v-24c0-6.627 5.373-12 12-12h12v-64h-12c-6.627 0-12-5.373-12-12v-24c0-6.627 5.373-12 12-12h64c6.627 0 12 5.373 12 12v100h12c6.627 0 12 5.373 12 12v24z" />
  </symbol>
  <symbol id="external-link" viewBox="0 0 576 512">
    <path d="M576 14.4l-.174 163.2c0 7.953-6.447 14.4-14.4 14.4H528.12c-8.067 0-14.56-6.626-14.397-14.691l2.717-73.627-2.062-2.062-278.863 278.865c-4.686 4.686-12.284 4.686-16.971 0l-23.029-23.029c-4.686-4.686-4.686-12.284 0-16.971L474.379 61.621l-2.062-2.062-73.626 2.717C390.626 62.44 384 55.946 384 47.879V14.574c0-7.953 6.447-14.4 14.4-14.4L561.6 0c7.953 0 14.4 6.447 14.4 14.4zM427.515 233.74l-24 24a12.002 12.002 0 0 0-3.515 8.485V458a6 6 0 0 1-6 6H54a6 6 0 0 1-6-6V118a6 6 0 0 1 6-6h301.976c10.691 0 16.045-12.926 8.485-20.485l-24-24A12.002 12.002 0 0 0 331.976 64H48C21.49 64 0 85.49 0 112v352c0 26.51 21.49 48 48 48h352c26.51 0 48-21.49 48-48V242.225c0-10.691-12.926-16.045-20.485-8.485z" />
  </symbol>

  <symbol id="deactivate" viewBox="0 0 512 512">
    <path d="M400 54.1c63 45 104 118.6 104 201.9 0 136.8-110.8 247.7-247.5 248C120 504.3 8.2 393 8 256.4 7.9 173.1 48.9 99.3 111.8 54.2c11.7-8.3 28-4.8 35 7.7L162.6 90c5.9 10.5 3.1 23.8-6.6 31-41.5 30.8-68 79.6-68 134.9-.1 92.3 74.5 168.1 168 168.1 91.6 0 168.6-74.2 168-169.1-.3-51.8-24.7-101.8-68.1-134-9.7-7.2-12.4-20.5-6.5-30.9l15.8-28.1c7-12.4 23.2-16.1 34.8-7.8zM296 264V24c0-13.3-10.7-24-24-24h-32c-13.3 0-24 10.7-24 24v240c0 13.3 10.7 24 24 24h32c13.3 0 24-10.7 24-24z" />
  </symbol>
  <symbol id="hourglass-end" viewBox="0 0 384 512">
    <path d="M360 64c13.255 0 24-10.745 24-24V24c0-13.255-10.745-24-24-24H24C10.745 0 0 10.745 0 24v16c0 13.255 10.745 24 24 24 0 90.965 51.016 167.734 120.842 192C75.016 280.266 24 357.035 24 448c-13.255 0-24 10.745-24 24v16c0 13.255 10.745 24 24 24h336c13.255 0 24-10.745 24-24v-16c0-13.255-10.745-24-24-24 0-90.965-51.016-167.734-120.842-192C308.984 231.734 360 154.965 360 64zM192 208c-57.787 0-104-66.518-104-144h208c0 77.945-46.51 144-104 144z" />
  </symbol>

  <symbol id="gift" viewBox="0 0 512 512">
    <path d="M488 160h-72.044C426.024 146.62 432 129.996 432 112c0-44.112-35.888-80-80-80-49.048 0-75.315 34.969-94.543 80.224C239.098 66.478 209.724 32 160 32c-44.112 0-80 35.888-80 80 0 17.996 5.976 34.62 16.044 48H24c-13.255 0-24 10.745-24 24v112c0 13.255 10.745 24 24 24h8v112c0 26.51 21.49 48 48 48h352c26.51 0 48-21.49 48-48V320h8c13.255 0 24-10.745 24-24V184c0-13.255-10.745-24-24-24zM352 64c26.468 0 48 21.532 48 48s-21.532 48-48 48h-80c24-88 57.025-96 80-96zm-240 48c0-26.468 21.533-48 48-48 15.228 0 54.856.003 80 96h-80c-26.467 0-48-21.532-48-48zM32 288v-96h160v96H32zm48 160c-8.822 0-16-7.178-16-16V320h128v128H80zm144 0V192h64v256h-64zm224-16c0 8.822-7.178 16-16 16H320V320h128v112zm32-144H320v-96h160v96z" />
  </symbol>
  <symbol id="info-circle" viewBox="0 0 512 512">
    <path d="M256 8C119.043 8 8 119.083 8 256c0 136.997 111.043 248 248 248s248-111.003 248-248C504 119.083 392.957 8 256 8zm0 110c23.196 0 42 18.804 42 42s-18.804 42-42 42-42-18.804-42-42 18.804-42 42-42zm56 254c0 6.627-5.373 12-12 12h-88c-6.627 0-12-5.373-12-12v-24c0-6.627 5.373-12 12-12h12v-64h-12c-6.627 0-12-5.373-12-12v-24c0-6.627 5.373-12 12-12h64c6.627 0 12 5.373 12 12v100h12c6.627 0 12 5.373 12 12v24z"></path>
  </symbol>
  <symbol id="exclamation-triangle" viewBox="0 0 576 512">
    <path d="M569.517 440.013C587.975 472.007 564.806 512 527.94 512H48.054c-36.937 0-59.999-40.055-41.577-71.987L246.423 23.985c18.467-32.009 64.72-31.951 83.154 0l239.94 416.028zM288 354c-25.405 0-46 20.595-46 46s20.595 46 46 46 46-20.595 46-46-20.595-46-46-46zm-43.673-165.346l7.418 136c.347 6.364 5.609 11.346 11.982 11.346h48.546c6.373 0 11.635-4.982 11.982-11.346l7.418-136c.375-6.874-5.098-12.654-11.982-12.654h-63.383c-6.884 0-12.356 5.78-11.981 12.654z" />
  </symbol>
</svg>
